%TF.GenerationSoftware,KiCad,Pcbnew,(6.0.7)*%
%TF.CreationDate,2022-08-27T17:55:12+01:00*%
%TF.ProjectId,Buck Racing 2,4275636b-2052-4616-9369-6e6720322e6b,v01*%
%TF.SameCoordinates,Original*%
%TF.FileFunction,Drillmap*%
%TF.FilePolarity,Positive*%
%FSLAX45Y45*%
G04 Gerber Fmt 4.5, Leading zero omitted, Abs format (unit mm)*
G04 Created by KiCad (PCBNEW (6.0.7)) date 2022-08-27 17:55:12*
%MOMM*%
%LPD*%
G01*
G04 APERTURE LIST*
%ADD10C,0.150000*%
%ADD11C,0.100000*%
%ADD12C,0.200000*%
%ADD13C,0.071000*%
%ADD14C,0.144000*%
%ADD15C,0.190000*%
%ADD16C,0.220000*%
%ADD17C,0.250000*%
%ADD18C,0.854400*%
G04 APERTURE END LIST*
D10*
X17020600Y-15240000D02*
G75*
G03*
X17020600Y-15240000I-155000J0D01*
G01*
X6911400Y-15240000D02*
G75*
G03*
X6911400Y-15240000I-155000J0D01*
G01*
X6911400Y-5384800D02*
G75*
G03*
X6911400Y-5384800I-155000J0D01*
G01*
X17020600Y-5384800D02*
G75*
G03*
X17020600Y-5384800I-155000J0D01*
G01*
D11*
X17221200Y-15595600D02*
X17221200Y-5029200D01*
X6400800Y-5029200D02*
X17221200Y-5029200D01*
X6400800Y-15595600D02*
X6400800Y-5029200D01*
X17221200Y-15595600D02*
X6400800Y-15595600D01*
D12*
D13*
X13909100Y-14137700D02*
X13980100Y-14208700D01*
X13980100Y-14137700D02*
X13909100Y-14208700D01*
X14163100Y-14137700D02*
X14234100Y-14208700D01*
X14234100Y-14137700D02*
X14163100Y-14208700D01*
D11*
X13564300Y-14681200D02*
G75*
G03*
X13564300Y-14681200I-50000J0D01*
G01*
X13818300Y-14681200D02*
G75*
G03*
X13818300Y-14681200I-50000J0D01*
G01*
X14072300Y-14681200D02*
G75*
G03*
X14072300Y-14681200I-50000J0D01*
G01*
X14731200Y-14123900D02*
G75*
G03*
X14731200Y-14123900I-50000J0D01*
G01*
X14731200Y-14377900D02*
G75*
G03*
X14731200Y-14377900I-50000J0D01*
G01*
X14731200Y-14631900D02*
G75*
G03*
X14731200Y-14631900I-50000J0D01*
G01*
D14*
X12242800Y-14507600D02*
X12242800Y-14651600D01*
X12170800Y-14579600D02*
X12314800Y-14579600D01*
X12496800Y-14507600D02*
X12496800Y-14651600D01*
X12424800Y-14579600D02*
X12568800Y-14579600D01*
X12750800Y-14507600D02*
X12750800Y-14651600D01*
X12678800Y-14579600D02*
X12822800Y-14579600D01*
D10*
X11505793Y-13598953D02*
X11505793Y-13492886D01*
X11399726Y-13492886D01*
X11399726Y-13598953D01*
X11505793Y-13598953D01*
X11505793Y-14690953D02*
X11505793Y-14584886D01*
X11399726Y-14584886D01*
X11399726Y-14690953D01*
X11505793Y-14690953D01*
D15*
X12954000Y-11533000D02*
X13049000Y-11438000D01*
X12954000Y-11343000D01*
X12859000Y-11438000D01*
X12954000Y-11533000D01*
X12954000Y-12533000D02*
X13049000Y-12438000D01*
X12954000Y-12343000D01*
X12859000Y-12438000D01*
X12954000Y-12533000D01*
D16*
X15187000Y-10814000D02*
X15407000Y-11034000D01*
X15407000Y-10814000D02*
X15187000Y-11034000D01*
X15407000Y-10924000D02*
G75*
G03*
X15407000Y-10924000I-110000J0D01*
G01*
X15187000Y-11830000D02*
X15407000Y-12050000D01*
X15407000Y-11830000D02*
X15187000Y-12050000D01*
X15407000Y-11940000D02*
G75*
G03*
X15407000Y-11940000I-110000J0D01*
G01*
X15187000Y-13160960D02*
X15407000Y-13380960D01*
X15407000Y-13160960D02*
X15187000Y-13380960D01*
X15407000Y-13270960D02*
G75*
G03*
X15407000Y-13270960I-110000J0D01*
G01*
X15187000Y-14176960D02*
X15407000Y-14396960D01*
X15407000Y-14176960D02*
X15187000Y-14396960D01*
X15407000Y-14286960D02*
G75*
G03*
X15407000Y-14286960I-110000J0D01*
G01*
X16203000Y-10814000D02*
X16423000Y-11034000D01*
X16423000Y-10814000D02*
X16203000Y-11034000D01*
X16423000Y-10924000D02*
G75*
G03*
X16423000Y-10924000I-110000J0D01*
G01*
X16203000Y-11830000D02*
X16423000Y-12050000D01*
X16423000Y-11830000D02*
X16203000Y-12050000D01*
X16423000Y-11940000D02*
G75*
G03*
X16423000Y-11940000I-110000J0D01*
G01*
X16203000Y-13160960D02*
X16423000Y-13380960D01*
X16423000Y-13160960D02*
X16203000Y-13380960D01*
X16423000Y-13270960D02*
G75*
G03*
X16423000Y-13270960I-110000J0D01*
G01*
X16203000Y-14176960D02*
X16423000Y-14396960D01*
X16423000Y-14176960D02*
X16203000Y-14396960D01*
X16423000Y-14286960D02*
G75*
G03*
X16423000Y-14286960I-110000J0D01*
G01*
D17*
X7380000Y-13036000D02*
X7630000Y-13286000D01*
X7630000Y-13036000D02*
X7380000Y-13286000D01*
X7505000Y-13036000D02*
X7505000Y-13286000D01*
X7380000Y-13161000D02*
X7630000Y-13161000D01*
X8050000Y-6364000D02*
X8300000Y-6614000D01*
X8300000Y-6364000D02*
X8050000Y-6614000D01*
X8175000Y-6364000D02*
X8175000Y-6614000D01*
X8050000Y-6489000D02*
X8300000Y-6489000D01*
X9480000Y-9134000D02*
X9730000Y-9384000D01*
X9730000Y-9134000D02*
X9480000Y-9384000D01*
X9605000Y-9134000D02*
X9605000Y-9384000D01*
X9480000Y-9259000D02*
X9730000Y-9259000D01*
X10150000Y-11606000D02*
X10400000Y-11856000D01*
X10400000Y-11606000D02*
X10150000Y-11856000D01*
X10275000Y-11606000D02*
X10275000Y-11856000D01*
X10150000Y-11731000D02*
X10400000Y-11731000D01*
X11952000Y-8464000D02*
X12202000Y-8714000D01*
X12202000Y-8464000D02*
X11952000Y-8714000D01*
X12077000Y-8464000D02*
X12077000Y-8714000D01*
X11952000Y-8589000D02*
X12202000Y-8589000D01*
X14722000Y-7034000D02*
X14972000Y-7284000D01*
X14972000Y-7034000D02*
X14722000Y-7284000D01*
X14847000Y-7034000D02*
X14847000Y-7284000D01*
X14722000Y-7159000D02*
X14972000Y-7159000D01*
D18*
X7077800Y-11303800D02*
X7932200Y-12158200D01*
X7932200Y-11303800D02*
X7077800Y-12158200D01*
X7807079Y-12033079D02*
X7807079Y-11428921D01*
X7202921Y-11428921D01*
X7202921Y-12033079D01*
X7807079Y-12033079D01*
X7747800Y-8831800D02*
X8602200Y-9686200D01*
X8602200Y-8831800D02*
X7747800Y-9686200D01*
X8477079Y-9561079D02*
X8477079Y-8956921D01*
X7872921Y-8956921D01*
X7872921Y-9561079D01*
X8477079Y-9561079D01*
X9177800Y-6061800D02*
X10032200Y-6916200D01*
X10032200Y-6061800D02*
X9177800Y-6916200D01*
X9907079Y-6791079D02*
X9907079Y-6186921D01*
X9302921Y-6186921D01*
X9302921Y-6791079D01*
X9907079Y-6791079D01*
X9847800Y-12733800D02*
X10702200Y-13588200D01*
X10702200Y-12733800D02*
X9847800Y-13588200D01*
X10577079Y-13463079D02*
X10577079Y-12858921D01*
X9972921Y-12858921D01*
X9972921Y-13463079D01*
X10577079Y-13463079D01*
X11649800Y-6731800D02*
X12504200Y-7586200D01*
X12504200Y-6731800D02*
X11649800Y-7586200D01*
X12379079Y-7461079D02*
X12379079Y-6856921D01*
X11774921Y-6856921D01*
X11774921Y-7461079D01*
X12379079Y-7461079D01*
X14419800Y-8161800D02*
X15274200Y-9016200D01*
X15274200Y-8161800D02*
X14419800Y-9016200D01*
X15149079Y-8891079D02*
X15149079Y-8286921D01*
X14544921Y-8286921D01*
X14544921Y-8891079D01*
X15149079Y-8891079D01*
D12*
X6653419Y-15911076D02*
X6653419Y-15711076D01*
X6701038Y-15711076D01*
X6729609Y-15720600D01*
X6748657Y-15739648D01*
X6758181Y-15758695D01*
X6767705Y-15796790D01*
X6767705Y-15825362D01*
X6758181Y-15863457D01*
X6748657Y-15882505D01*
X6729609Y-15901552D01*
X6701038Y-15911076D01*
X6653419Y-15911076D01*
X6853419Y-15911076D02*
X6853419Y-15777743D01*
X6853419Y-15815838D02*
X6862943Y-15796790D01*
X6872467Y-15787267D01*
X6891514Y-15777743D01*
X6910562Y-15777743D01*
X6977228Y-15911076D02*
X6977228Y-15777743D01*
X6977228Y-15711076D02*
X6967705Y-15720600D01*
X6977228Y-15730124D01*
X6986752Y-15720600D01*
X6977228Y-15711076D01*
X6977228Y-15730124D01*
X7101038Y-15911076D02*
X7081990Y-15901552D01*
X7072467Y-15882505D01*
X7072467Y-15711076D01*
X7205800Y-15911076D02*
X7186752Y-15901552D01*
X7177228Y-15882505D01*
X7177228Y-15711076D01*
X7434371Y-15911076D02*
X7434371Y-15711076D01*
X7501038Y-15853933D01*
X7567705Y-15711076D01*
X7567705Y-15911076D01*
X7748657Y-15911076D02*
X7748657Y-15806314D01*
X7739133Y-15787267D01*
X7720086Y-15777743D01*
X7681990Y-15777743D01*
X7662943Y-15787267D01*
X7748657Y-15901552D02*
X7729609Y-15911076D01*
X7681990Y-15911076D01*
X7662943Y-15901552D01*
X7653419Y-15882505D01*
X7653419Y-15863457D01*
X7662943Y-15844409D01*
X7681990Y-15834886D01*
X7729609Y-15834886D01*
X7748657Y-15825362D01*
X7843895Y-15777743D02*
X7843895Y-15977743D01*
X7843895Y-15787267D02*
X7862943Y-15777743D01*
X7901038Y-15777743D01*
X7920086Y-15787267D01*
X7929609Y-15796790D01*
X7939133Y-15815838D01*
X7939133Y-15872981D01*
X7929609Y-15892028D01*
X7920086Y-15901552D01*
X7901038Y-15911076D01*
X7862943Y-15911076D01*
X7843895Y-15901552D01*
X8024848Y-15892028D02*
X8034371Y-15901552D01*
X8024848Y-15911076D01*
X8015324Y-15901552D01*
X8024848Y-15892028D01*
X8024848Y-15911076D01*
X8024848Y-15787267D02*
X8034371Y-15796790D01*
X8024848Y-15806314D01*
X8015324Y-15796790D01*
X8024848Y-15787267D01*
X8024848Y-15806314D01*
D13*
X6324800Y-16205100D02*
X6395800Y-16276100D01*
X6395800Y-16205100D02*
X6324800Y-16276100D01*
D12*
X6691514Y-16131076D02*
X6710562Y-16131076D01*
X6729609Y-16140600D01*
X6739133Y-16150124D01*
X6748657Y-16169171D01*
X6758181Y-16207267D01*
X6758181Y-16254886D01*
X6748657Y-16292981D01*
X6739133Y-16312028D01*
X6729609Y-16321552D01*
X6710562Y-16331076D01*
X6691514Y-16331076D01*
X6672467Y-16321552D01*
X6662943Y-16312028D01*
X6653419Y-16292981D01*
X6643895Y-16254886D01*
X6643895Y-16207267D01*
X6653419Y-16169171D01*
X6662943Y-16150124D01*
X6672467Y-16140600D01*
X6691514Y-16131076D01*
X6843895Y-16312028D02*
X6853419Y-16321552D01*
X6843895Y-16331076D01*
X6834371Y-16321552D01*
X6843895Y-16312028D01*
X6843895Y-16331076D01*
X6920086Y-16131076D02*
X7053419Y-16131076D01*
X6967705Y-16331076D01*
X7234371Y-16331076D02*
X7120086Y-16331076D01*
X7177228Y-16331076D02*
X7177228Y-16131076D01*
X7158181Y-16159648D01*
X7139133Y-16178695D01*
X7120086Y-16188219D01*
X7358181Y-16131076D02*
X7377228Y-16131076D01*
X7396276Y-16140600D01*
X7405800Y-16150124D01*
X7415324Y-16169171D01*
X7424848Y-16207267D01*
X7424848Y-16254886D01*
X7415324Y-16292981D01*
X7405800Y-16312028D01*
X7396276Y-16321552D01*
X7377228Y-16331076D01*
X7358181Y-16331076D01*
X7339133Y-16321552D01*
X7329609Y-16312028D01*
X7320086Y-16292981D01*
X7310562Y-16254886D01*
X7310562Y-16207267D01*
X7320086Y-16169171D01*
X7329609Y-16150124D01*
X7339133Y-16140600D01*
X7358181Y-16131076D01*
X7510562Y-16331076D02*
X7510562Y-16197743D01*
X7510562Y-16216790D02*
X7520086Y-16207267D01*
X7539133Y-16197743D01*
X7567705Y-16197743D01*
X7586752Y-16207267D01*
X7596276Y-16226314D01*
X7596276Y-16331076D01*
X7596276Y-16226314D02*
X7605800Y-16207267D01*
X7624848Y-16197743D01*
X7653419Y-16197743D01*
X7672467Y-16207267D01*
X7681990Y-16226314D01*
X7681990Y-16331076D01*
X7777228Y-16331076D02*
X7777228Y-16197743D01*
X7777228Y-16216790D02*
X7786752Y-16207267D01*
X7805800Y-16197743D01*
X7834371Y-16197743D01*
X7853419Y-16207267D01*
X7862943Y-16226314D01*
X7862943Y-16331076D01*
X7862943Y-16226314D02*
X7872467Y-16207267D01*
X7891514Y-16197743D01*
X7920086Y-16197743D01*
X7939133Y-16207267D01*
X7948657Y-16226314D01*
X7948657Y-16331076D01*
X8339133Y-16121552D02*
X8167705Y-16378695D01*
X8596276Y-16131076D02*
X8615324Y-16131076D01*
X8634371Y-16140600D01*
X8643895Y-16150124D01*
X8653419Y-16169171D01*
X8662943Y-16207267D01*
X8662943Y-16254886D01*
X8653419Y-16292981D01*
X8643895Y-16312028D01*
X8634371Y-16321552D01*
X8615324Y-16331076D01*
X8596276Y-16331076D01*
X8577229Y-16321552D01*
X8567705Y-16312028D01*
X8558181Y-16292981D01*
X8548657Y-16254886D01*
X8548657Y-16207267D01*
X8558181Y-16169171D01*
X8567705Y-16150124D01*
X8577229Y-16140600D01*
X8596276Y-16131076D01*
X8748657Y-16312028D02*
X8758181Y-16321552D01*
X8748657Y-16331076D01*
X8739133Y-16321552D01*
X8748657Y-16312028D01*
X8748657Y-16331076D01*
X8881990Y-16131076D02*
X8901038Y-16131076D01*
X8920086Y-16140600D01*
X8929610Y-16150124D01*
X8939133Y-16169171D01*
X8948657Y-16207267D01*
X8948657Y-16254886D01*
X8939133Y-16292981D01*
X8929610Y-16312028D01*
X8920086Y-16321552D01*
X8901038Y-16331076D01*
X8881990Y-16331076D01*
X8862943Y-16321552D01*
X8853419Y-16312028D01*
X8843895Y-16292981D01*
X8834371Y-16254886D01*
X8834371Y-16207267D01*
X8843895Y-16169171D01*
X8853419Y-16150124D01*
X8862943Y-16140600D01*
X8881990Y-16131076D01*
X9024848Y-16150124D02*
X9034371Y-16140600D01*
X9053419Y-16131076D01*
X9101038Y-16131076D01*
X9120086Y-16140600D01*
X9129610Y-16150124D01*
X9139133Y-16169171D01*
X9139133Y-16188219D01*
X9129610Y-16216790D01*
X9015324Y-16331076D01*
X9139133Y-16331076D01*
X9253419Y-16216790D02*
X9234371Y-16207267D01*
X9224848Y-16197743D01*
X9215324Y-16178695D01*
X9215324Y-16169171D01*
X9224848Y-16150124D01*
X9234371Y-16140600D01*
X9253419Y-16131076D01*
X9291514Y-16131076D01*
X9310562Y-16140600D01*
X9320086Y-16150124D01*
X9329610Y-16169171D01*
X9329610Y-16178695D01*
X9320086Y-16197743D01*
X9310562Y-16207267D01*
X9291514Y-16216790D01*
X9253419Y-16216790D01*
X9234371Y-16226314D01*
X9224848Y-16235838D01*
X9215324Y-16254886D01*
X9215324Y-16292981D01*
X9224848Y-16312028D01*
X9234371Y-16321552D01*
X9253419Y-16331076D01*
X9291514Y-16331076D01*
X9310562Y-16321552D01*
X9320086Y-16312028D01*
X9329610Y-16292981D01*
X9329610Y-16254886D01*
X9320086Y-16235838D01*
X9310562Y-16226314D01*
X9291514Y-16216790D01*
X9453419Y-16131076D02*
X9472467Y-16131076D01*
X9491514Y-16140600D01*
X9501038Y-16150124D01*
X9510562Y-16169171D01*
X9520086Y-16207267D01*
X9520086Y-16254886D01*
X9510562Y-16292981D01*
X9501038Y-16312028D01*
X9491514Y-16321552D01*
X9472467Y-16331076D01*
X9453419Y-16331076D01*
X9434371Y-16321552D01*
X9424848Y-16312028D01*
X9415324Y-16292981D01*
X9405800Y-16254886D01*
X9405800Y-16207267D01*
X9415324Y-16169171D01*
X9424848Y-16150124D01*
X9434371Y-16140600D01*
X9453419Y-16131076D01*
X9596276Y-16131076D02*
X9596276Y-16169171D01*
X9672467Y-16131076D02*
X9672467Y-16169171D01*
X9967705Y-16407267D02*
X9958181Y-16397743D01*
X9939133Y-16369171D01*
X9929610Y-16350124D01*
X9920086Y-16321552D01*
X9910562Y-16273933D01*
X9910562Y-16235838D01*
X9920086Y-16188219D01*
X9929610Y-16159648D01*
X9939133Y-16140600D01*
X9958181Y-16112028D01*
X9967705Y-16102505D01*
X10034371Y-16150124D02*
X10043895Y-16140600D01*
X10062943Y-16131076D01*
X10110562Y-16131076D01*
X10129610Y-16140600D01*
X10139133Y-16150124D01*
X10148657Y-16169171D01*
X10148657Y-16188219D01*
X10139133Y-16216790D01*
X10024848Y-16331076D01*
X10148657Y-16331076D01*
X10386752Y-16331076D02*
X10386752Y-16131076D01*
X10472467Y-16331076D02*
X10472467Y-16226314D01*
X10462943Y-16207267D01*
X10443895Y-16197743D01*
X10415324Y-16197743D01*
X10396276Y-16207267D01*
X10386752Y-16216790D01*
X10596276Y-16331076D02*
X10577229Y-16321552D01*
X10567705Y-16312028D01*
X10558181Y-16292981D01*
X10558181Y-16235838D01*
X10567705Y-16216790D01*
X10577229Y-16207267D01*
X10596276Y-16197743D01*
X10624848Y-16197743D01*
X10643895Y-16207267D01*
X10653419Y-16216790D01*
X10662943Y-16235838D01*
X10662943Y-16292981D01*
X10653419Y-16312028D01*
X10643895Y-16321552D01*
X10624848Y-16331076D01*
X10596276Y-16331076D01*
X10777229Y-16331076D02*
X10758181Y-16321552D01*
X10748657Y-16302505D01*
X10748657Y-16131076D01*
X10929610Y-16321552D02*
X10910562Y-16331076D01*
X10872467Y-16331076D01*
X10853419Y-16321552D01*
X10843895Y-16302505D01*
X10843895Y-16226314D01*
X10853419Y-16207267D01*
X10872467Y-16197743D01*
X10910562Y-16197743D01*
X10929610Y-16207267D01*
X10939133Y-16226314D01*
X10939133Y-16245362D01*
X10843895Y-16264409D01*
X11015324Y-16321552D02*
X11034371Y-16331076D01*
X11072467Y-16331076D01*
X11091514Y-16321552D01*
X11101038Y-16302505D01*
X11101038Y-16292981D01*
X11091514Y-16273933D01*
X11072467Y-16264409D01*
X11043895Y-16264409D01*
X11024848Y-16254886D01*
X11015324Y-16235838D01*
X11015324Y-16226314D01*
X11024848Y-16207267D01*
X11043895Y-16197743D01*
X11072467Y-16197743D01*
X11091514Y-16207267D01*
X11167705Y-16407267D02*
X11177229Y-16397743D01*
X11196276Y-16369171D01*
X11205800Y-16350124D01*
X11215324Y-16321552D01*
X11224848Y-16273933D01*
X11224848Y-16235838D01*
X11215324Y-16188219D01*
X11205800Y-16159648D01*
X11196276Y-16140600D01*
X11177229Y-16112028D01*
X11167705Y-16102505D01*
D11*
X6395800Y-16504600D02*
G75*
G03*
X6395800Y-16504600I-50000J0D01*
G01*
D12*
X6758181Y-16595076D02*
X6643895Y-16595076D01*
X6701038Y-16595076D02*
X6701038Y-16395076D01*
X6681990Y-16423648D01*
X6662943Y-16442695D01*
X6643895Y-16452219D01*
X6843895Y-16576028D02*
X6853419Y-16585552D01*
X6843895Y-16595076D01*
X6834371Y-16585552D01*
X6843895Y-16576028D01*
X6843895Y-16595076D01*
X6977228Y-16395076D02*
X6996276Y-16395076D01*
X7015324Y-16404600D01*
X7024848Y-16414124D01*
X7034371Y-16433171D01*
X7043895Y-16471267D01*
X7043895Y-16518886D01*
X7034371Y-16556981D01*
X7024848Y-16576028D01*
X7015324Y-16585552D01*
X6996276Y-16595076D01*
X6977228Y-16595076D01*
X6958181Y-16585552D01*
X6948657Y-16576028D01*
X6939133Y-16556981D01*
X6929609Y-16518886D01*
X6929609Y-16471267D01*
X6939133Y-16433171D01*
X6948657Y-16414124D01*
X6958181Y-16404600D01*
X6977228Y-16395076D01*
X7167705Y-16395076D02*
X7186752Y-16395076D01*
X7205800Y-16404600D01*
X7215324Y-16414124D01*
X7224848Y-16433171D01*
X7234371Y-16471267D01*
X7234371Y-16518886D01*
X7224848Y-16556981D01*
X7215324Y-16576028D01*
X7205800Y-16585552D01*
X7186752Y-16595076D01*
X7167705Y-16595076D01*
X7148657Y-16585552D01*
X7139133Y-16576028D01*
X7129609Y-16556981D01*
X7120086Y-16518886D01*
X7120086Y-16471267D01*
X7129609Y-16433171D01*
X7139133Y-16414124D01*
X7148657Y-16404600D01*
X7167705Y-16395076D01*
X7358181Y-16395076D02*
X7377228Y-16395076D01*
X7396276Y-16404600D01*
X7405800Y-16414124D01*
X7415324Y-16433171D01*
X7424848Y-16471267D01*
X7424848Y-16518886D01*
X7415324Y-16556981D01*
X7405800Y-16576028D01*
X7396276Y-16585552D01*
X7377228Y-16595076D01*
X7358181Y-16595076D01*
X7339133Y-16585552D01*
X7329609Y-16576028D01*
X7320086Y-16556981D01*
X7310562Y-16518886D01*
X7310562Y-16471267D01*
X7320086Y-16433171D01*
X7329609Y-16414124D01*
X7339133Y-16404600D01*
X7358181Y-16395076D01*
X7510562Y-16595076D02*
X7510562Y-16461743D01*
X7510562Y-16480790D02*
X7520086Y-16471267D01*
X7539133Y-16461743D01*
X7567705Y-16461743D01*
X7586752Y-16471267D01*
X7596276Y-16490314D01*
X7596276Y-16595076D01*
X7596276Y-16490314D02*
X7605800Y-16471267D01*
X7624848Y-16461743D01*
X7653419Y-16461743D01*
X7672467Y-16471267D01*
X7681990Y-16490314D01*
X7681990Y-16595076D01*
X7777228Y-16595076D02*
X7777228Y-16461743D01*
X7777228Y-16480790D02*
X7786752Y-16471267D01*
X7805800Y-16461743D01*
X7834371Y-16461743D01*
X7853419Y-16471267D01*
X7862943Y-16490314D01*
X7862943Y-16595076D01*
X7862943Y-16490314D02*
X7872467Y-16471267D01*
X7891514Y-16461743D01*
X7920086Y-16461743D01*
X7939133Y-16471267D01*
X7948657Y-16490314D01*
X7948657Y-16595076D01*
X8339133Y-16385552D02*
X8167705Y-16642695D01*
X8596276Y-16395076D02*
X8615324Y-16395076D01*
X8634371Y-16404600D01*
X8643895Y-16414124D01*
X8653419Y-16433171D01*
X8662943Y-16471267D01*
X8662943Y-16518886D01*
X8653419Y-16556981D01*
X8643895Y-16576028D01*
X8634371Y-16585552D01*
X8615324Y-16595076D01*
X8596276Y-16595076D01*
X8577229Y-16585552D01*
X8567705Y-16576028D01*
X8558181Y-16556981D01*
X8548657Y-16518886D01*
X8548657Y-16471267D01*
X8558181Y-16433171D01*
X8567705Y-16414124D01*
X8577229Y-16404600D01*
X8596276Y-16395076D01*
X8748657Y-16576028D02*
X8758181Y-16585552D01*
X8748657Y-16595076D01*
X8739133Y-16585552D01*
X8748657Y-16576028D01*
X8748657Y-16595076D01*
X8881990Y-16395076D02*
X8901038Y-16395076D01*
X8920086Y-16404600D01*
X8929610Y-16414124D01*
X8939133Y-16433171D01*
X8948657Y-16471267D01*
X8948657Y-16518886D01*
X8939133Y-16556981D01*
X8929610Y-16576028D01*
X8920086Y-16585552D01*
X8901038Y-16595076D01*
X8881990Y-16595076D01*
X8862943Y-16585552D01*
X8853419Y-16576028D01*
X8843895Y-16556981D01*
X8834371Y-16518886D01*
X8834371Y-16471267D01*
X8843895Y-16433171D01*
X8853419Y-16414124D01*
X8862943Y-16404600D01*
X8881990Y-16395076D01*
X9015324Y-16395076D02*
X9139133Y-16395076D01*
X9072467Y-16471267D01*
X9101038Y-16471267D01*
X9120086Y-16480790D01*
X9129610Y-16490314D01*
X9139133Y-16509362D01*
X9139133Y-16556981D01*
X9129610Y-16576028D01*
X9120086Y-16585552D01*
X9101038Y-16595076D01*
X9043895Y-16595076D01*
X9024848Y-16585552D01*
X9015324Y-16576028D01*
X9234371Y-16595076D02*
X9272467Y-16595076D01*
X9291514Y-16585552D01*
X9301038Y-16576028D01*
X9320086Y-16547457D01*
X9329610Y-16509362D01*
X9329610Y-16433171D01*
X9320086Y-16414124D01*
X9310562Y-16404600D01*
X9291514Y-16395076D01*
X9253419Y-16395076D01*
X9234371Y-16404600D01*
X9224848Y-16414124D01*
X9215324Y-16433171D01*
X9215324Y-16480790D01*
X9224848Y-16499838D01*
X9234371Y-16509362D01*
X9253419Y-16518886D01*
X9291514Y-16518886D01*
X9310562Y-16509362D01*
X9320086Y-16499838D01*
X9329610Y-16480790D01*
X9501038Y-16461743D02*
X9501038Y-16595076D01*
X9453419Y-16385552D02*
X9405800Y-16528409D01*
X9529610Y-16528409D01*
X9596276Y-16395076D02*
X9596276Y-16433171D01*
X9672467Y-16395076D02*
X9672467Y-16433171D01*
X9967705Y-16671267D02*
X9958181Y-16661743D01*
X9939133Y-16633171D01*
X9929610Y-16614124D01*
X9920086Y-16585552D01*
X9910562Y-16537933D01*
X9910562Y-16499838D01*
X9920086Y-16452219D01*
X9929610Y-16423648D01*
X9939133Y-16404600D01*
X9958181Y-16376028D01*
X9967705Y-16366505D01*
X10129610Y-16395076D02*
X10091514Y-16395076D01*
X10072467Y-16404600D01*
X10062943Y-16414124D01*
X10043895Y-16442695D01*
X10034371Y-16480790D01*
X10034371Y-16556981D01*
X10043895Y-16576028D01*
X10053419Y-16585552D01*
X10072467Y-16595076D01*
X10110562Y-16595076D01*
X10129610Y-16585552D01*
X10139133Y-16576028D01*
X10148657Y-16556981D01*
X10148657Y-16509362D01*
X10139133Y-16490314D01*
X10129610Y-16480790D01*
X10110562Y-16471267D01*
X10072467Y-16471267D01*
X10053419Y-16480790D01*
X10043895Y-16490314D01*
X10034371Y-16509362D01*
X10386752Y-16595076D02*
X10386752Y-16395076D01*
X10472467Y-16595076D02*
X10472467Y-16490314D01*
X10462943Y-16471267D01*
X10443895Y-16461743D01*
X10415324Y-16461743D01*
X10396276Y-16471267D01*
X10386752Y-16480790D01*
X10596276Y-16595076D02*
X10577229Y-16585552D01*
X10567705Y-16576028D01*
X10558181Y-16556981D01*
X10558181Y-16499838D01*
X10567705Y-16480790D01*
X10577229Y-16471267D01*
X10596276Y-16461743D01*
X10624848Y-16461743D01*
X10643895Y-16471267D01*
X10653419Y-16480790D01*
X10662943Y-16499838D01*
X10662943Y-16556981D01*
X10653419Y-16576028D01*
X10643895Y-16585552D01*
X10624848Y-16595076D01*
X10596276Y-16595076D01*
X10777229Y-16595076D02*
X10758181Y-16585552D01*
X10748657Y-16566505D01*
X10748657Y-16395076D01*
X10929610Y-16585552D02*
X10910562Y-16595076D01*
X10872467Y-16595076D01*
X10853419Y-16585552D01*
X10843895Y-16566505D01*
X10843895Y-16490314D01*
X10853419Y-16471267D01*
X10872467Y-16461743D01*
X10910562Y-16461743D01*
X10929610Y-16471267D01*
X10939133Y-16490314D01*
X10939133Y-16509362D01*
X10843895Y-16528409D01*
X11015324Y-16585552D02*
X11034371Y-16595076D01*
X11072467Y-16595076D01*
X11091514Y-16585552D01*
X11101038Y-16566505D01*
X11101038Y-16556981D01*
X11091514Y-16537933D01*
X11072467Y-16528409D01*
X11043895Y-16528409D01*
X11024848Y-16518886D01*
X11015324Y-16499838D01*
X11015324Y-16490314D01*
X11024848Y-16471267D01*
X11043895Y-16461743D01*
X11072467Y-16461743D01*
X11091514Y-16471267D01*
X11167705Y-16671267D02*
X11177229Y-16661743D01*
X11196276Y-16633171D01*
X11205800Y-16614124D01*
X11215324Y-16585552D01*
X11224848Y-16537933D01*
X11224848Y-16499838D01*
X11215324Y-16452219D01*
X11205800Y-16423648D01*
X11196276Y-16404600D01*
X11177229Y-16376028D01*
X11167705Y-16366505D01*
D14*
X6323800Y-16696600D02*
X6323800Y-16840600D01*
X6251800Y-16768600D02*
X6395800Y-16768600D01*
D12*
X6758181Y-16859076D02*
X6643895Y-16859076D01*
X6701038Y-16859076D02*
X6701038Y-16659076D01*
X6681990Y-16687648D01*
X6662943Y-16706695D01*
X6643895Y-16716219D01*
X6843895Y-16840029D02*
X6853419Y-16849552D01*
X6843895Y-16859076D01*
X6834371Y-16849552D01*
X6843895Y-16840029D01*
X6843895Y-16859076D01*
X7024848Y-16725743D02*
X7024848Y-16859076D01*
X6977228Y-16649552D02*
X6929609Y-16792410D01*
X7053419Y-16792410D01*
X7215324Y-16725743D02*
X7215324Y-16859076D01*
X7167705Y-16649552D02*
X7120086Y-16792410D01*
X7243895Y-16792410D01*
X7358181Y-16659076D02*
X7377228Y-16659076D01*
X7396276Y-16668600D01*
X7405800Y-16678124D01*
X7415324Y-16697171D01*
X7424848Y-16735267D01*
X7424848Y-16782886D01*
X7415324Y-16820981D01*
X7405800Y-16840029D01*
X7396276Y-16849552D01*
X7377228Y-16859076D01*
X7358181Y-16859076D01*
X7339133Y-16849552D01*
X7329609Y-16840029D01*
X7320086Y-16820981D01*
X7310562Y-16782886D01*
X7310562Y-16735267D01*
X7320086Y-16697171D01*
X7329609Y-16678124D01*
X7339133Y-16668600D01*
X7358181Y-16659076D01*
X7510562Y-16859076D02*
X7510562Y-16725743D01*
X7510562Y-16744790D02*
X7520086Y-16735267D01*
X7539133Y-16725743D01*
X7567705Y-16725743D01*
X7586752Y-16735267D01*
X7596276Y-16754314D01*
X7596276Y-16859076D01*
X7596276Y-16754314D02*
X7605800Y-16735267D01*
X7624848Y-16725743D01*
X7653419Y-16725743D01*
X7672467Y-16735267D01*
X7681990Y-16754314D01*
X7681990Y-16859076D01*
X7777228Y-16859076D02*
X7777228Y-16725743D01*
X7777228Y-16744790D02*
X7786752Y-16735267D01*
X7805800Y-16725743D01*
X7834371Y-16725743D01*
X7853419Y-16735267D01*
X7862943Y-16754314D01*
X7862943Y-16859076D01*
X7862943Y-16754314D02*
X7872467Y-16735267D01*
X7891514Y-16725743D01*
X7920086Y-16725743D01*
X7939133Y-16735267D01*
X7948657Y-16754314D01*
X7948657Y-16859076D01*
X8339133Y-16649552D02*
X8167705Y-16906695D01*
X8596276Y-16659076D02*
X8615324Y-16659076D01*
X8634371Y-16668600D01*
X8643895Y-16678124D01*
X8653419Y-16697171D01*
X8662943Y-16735267D01*
X8662943Y-16782886D01*
X8653419Y-16820981D01*
X8643895Y-16840029D01*
X8634371Y-16849552D01*
X8615324Y-16859076D01*
X8596276Y-16859076D01*
X8577229Y-16849552D01*
X8567705Y-16840029D01*
X8558181Y-16820981D01*
X8548657Y-16782886D01*
X8548657Y-16735267D01*
X8558181Y-16697171D01*
X8567705Y-16678124D01*
X8577229Y-16668600D01*
X8596276Y-16659076D01*
X8748657Y-16840029D02*
X8758181Y-16849552D01*
X8748657Y-16859076D01*
X8739133Y-16849552D01*
X8748657Y-16840029D01*
X8748657Y-16859076D01*
X8881990Y-16659076D02*
X8901038Y-16659076D01*
X8920086Y-16668600D01*
X8929610Y-16678124D01*
X8939133Y-16697171D01*
X8948657Y-16735267D01*
X8948657Y-16782886D01*
X8939133Y-16820981D01*
X8929610Y-16840029D01*
X8920086Y-16849552D01*
X8901038Y-16859076D01*
X8881990Y-16859076D01*
X8862943Y-16849552D01*
X8853419Y-16840029D01*
X8843895Y-16820981D01*
X8834371Y-16782886D01*
X8834371Y-16735267D01*
X8843895Y-16697171D01*
X8853419Y-16678124D01*
X8862943Y-16668600D01*
X8881990Y-16659076D01*
X9129610Y-16659076D02*
X9034371Y-16659076D01*
X9024848Y-16754314D01*
X9034371Y-16744790D01*
X9053419Y-16735267D01*
X9101038Y-16735267D01*
X9120086Y-16744790D01*
X9129610Y-16754314D01*
X9139133Y-16773362D01*
X9139133Y-16820981D01*
X9129610Y-16840029D01*
X9120086Y-16849552D01*
X9101038Y-16859076D01*
X9053419Y-16859076D01*
X9034371Y-16849552D01*
X9024848Y-16840029D01*
X9310562Y-16659076D02*
X9272467Y-16659076D01*
X9253419Y-16668600D01*
X9243895Y-16678124D01*
X9224848Y-16706695D01*
X9215324Y-16744790D01*
X9215324Y-16820981D01*
X9224848Y-16840029D01*
X9234371Y-16849552D01*
X9253419Y-16859076D01*
X9291514Y-16859076D01*
X9310562Y-16849552D01*
X9320086Y-16840029D01*
X9329610Y-16820981D01*
X9329610Y-16773362D01*
X9320086Y-16754314D01*
X9310562Y-16744790D01*
X9291514Y-16735267D01*
X9253419Y-16735267D01*
X9234371Y-16744790D01*
X9224848Y-16754314D01*
X9215324Y-16773362D01*
X9396276Y-16659076D02*
X9529610Y-16659076D01*
X9443895Y-16859076D01*
X9596276Y-16659076D02*
X9596276Y-16697171D01*
X9672467Y-16659076D02*
X9672467Y-16697171D01*
X9967705Y-16935267D02*
X9958181Y-16925743D01*
X9939133Y-16897171D01*
X9929610Y-16878124D01*
X9920086Y-16849552D01*
X9910562Y-16801933D01*
X9910562Y-16763838D01*
X9920086Y-16716219D01*
X9929610Y-16687648D01*
X9939133Y-16668600D01*
X9958181Y-16640028D01*
X9967705Y-16630505D01*
X10024848Y-16659076D02*
X10148657Y-16659076D01*
X10081990Y-16735267D01*
X10110562Y-16735267D01*
X10129610Y-16744790D01*
X10139133Y-16754314D01*
X10148657Y-16773362D01*
X10148657Y-16820981D01*
X10139133Y-16840029D01*
X10129610Y-16849552D01*
X10110562Y-16859076D01*
X10053419Y-16859076D01*
X10034371Y-16849552D01*
X10024848Y-16840029D01*
X10386752Y-16859076D02*
X10386752Y-16659076D01*
X10472467Y-16859076D02*
X10472467Y-16754314D01*
X10462943Y-16735267D01*
X10443895Y-16725743D01*
X10415324Y-16725743D01*
X10396276Y-16735267D01*
X10386752Y-16744790D01*
X10596276Y-16859076D02*
X10577229Y-16849552D01*
X10567705Y-16840029D01*
X10558181Y-16820981D01*
X10558181Y-16763838D01*
X10567705Y-16744790D01*
X10577229Y-16735267D01*
X10596276Y-16725743D01*
X10624848Y-16725743D01*
X10643895Y-16735267D01*
X10653419Y-16744790D01*
X10662943Y-16763838D01*
X10662943Y-16820981D01*
X10653419Y-16840029D01*
X10643895Y-16849552D01*
X10624848Y-16859076D01*
X10596276Y-16859076D01*
X10777229Y-16859076D02*
X10758181Y-16849552D01*
X10748657Y-16830505D01*
X10748657Y-16659076D01*
X10929610Y-16849552D02*
X10910562Y-16859076D01*
X10872467Y-16859076D01*
X10853419Y-16849552D01*
X10843895Y-16830505D01*
X10843895Y-16754314D01*
X10853419Y-16735267D01*
X10872467Y-16725743D01*
X10910562Y-16725743D01*
X10929610Y-16735267D01*
X10939133Y-16754314D01*
X10939133Y-16773362D01*
X10843895Y-16792410D01*
X11015324Y-16849552D02*
X11034371Y-16859076D01*
X11072467Y-16859076D01*
X11091514Y-16849552D01*
X11101038Y-16830505D01*
X11101038Y-16820981D01*
X11091514Y-16801933D01*
X11072467Y-16792410D01*
X11043895Y-16792410D01*
X11024848Y-16782886D01*
X11015324Y-16763838D01*
X11015324Y-16754314D01*
X11024848Y-16735267D01*
X11043895Y-16725743D01*
X11072467Y-16725743D01*
X11091514Y-16735267D01*
X11167705Y-16935267D02*
X11177229Y-16925743D01*
X11196276Y-16897171D01*
X11205800Y-16878124D01*
X11215324Y-16849552D01*
X11224848Y-16801933D01*
X11224848Y-16763838D01*
X11215324Y-16716219D01*
X11205800Y-16687648D01*
X11196276Y-16668600D01*
X11177229Y-16640028D01*
X11167705Y-16630505D01*
D10*
X6373833Y-17085634D02*
X6373833Y-16979567D01*
X6267766Y-16979567D01*
X6267766Y-17085634D01*
X6373833Y-17085634D01*
D12*
X6758181Y-17123076D02*
X6643895Y-17123076D01*
X6701038Y-17123076D02*
X6701038Y-16923076D01*
X6681990Y-16951648D01*
X6662943Y-16970695D01*
X6643895Y-16980219D01*
X6843895Y-17104029D02*
X6853419Y-17113552D01*
X6843895Y-17123076D01*
X6834371Y-17113552D01*
X6843895Y-17104029D01*
X6843895Y-17123076D01*
X7034371Y-16923076D02*
X6939133Y-16923076D01*
X6929609Y-17018314D01*
X6939133Y-17008790D01*
X6958181Y-16999267D01*
X7005800Y-16999267D01*
X7024848Y-17008790D01*
X7034371Y-17018314D01*
X7043895Y-17037362D01*
X7043895Y-17084981D01*
X7034371Y-17104029D01*
X7024848Y-17113552D01*
X7005800Y-17123076D01*
X6958181Y-17123076D01*
X6939133Y-17113552D01*
X6929609Y-17104029D01*
X7167705Y-16923076D02*
X7186752Y-16923076D01*
X7205800Y-16932600D01*
X7215324Y-16942124D01*
X7224848Y-16961171D01*
X7234371Y-16999267D01*
X7234371Y-17046886D01*
X7224848Y-17084981D01*
X7215324Y-17104029D01*
X7205800Y-17113552D01*
X7186752Y-17123076D01*
X7167705Y-17123076D01*
X7148657Y-17113552D01*
X7139133Y-17104029D01*
X7129609Y-17084981D01*
X7120086Y-17046886D01*
X7120086Y-16999267D01*
X7129609Y-16961171D01*
X7139133Y-16942124D01*
X7148657Y-16932600D01*
X7167705Y-16923076D01*
X7358181Y-16923076D02*
X7377228Y-16923076D01*
X7396276Y-16932600D01*
X7405800Y-16942124D01*
X7415324Y-16961171D01*
X7424848Y-16999267D01*
X7424848Y-17046886D01*
X7415324Y-17084981D01*
X7405800Y-17104029D01*
X7396276Y-17113552D01*
X7377228Y-17123076D01*
X7358181Y-17123076D01*
X7339133Y-17113552D01*
X7329609Y-17104029D01*
X7320086Y-17084981D01*
X7310562Y-17046886D01*
X7310562Y-16999267D01*
X7320086Y-16961171D01*
X7329609Y-16942124D01*
X7339133Y-16932600D01*
X7358181Y-16923076D01*
X7510562Y-17123076D02*
X7510562Y-16989743D01*
X7510562Y-17008790D02*
X7520086Y-16999267D01*
X7539133Y-16989743D01*
X7567705Y-16989743D01*
X7586752Y-16999267D01*
X7596276Y-17018314D01*
X7596276Y-17123076D01*
X7596276Y-17018314D02*
X7605800Y-16999267D01*
X7624848Y-16989743D01*
X7653419Y-16989743D01*
X7672467Y-16999267D01*
X7681990Y-17018314D01*
X7681990Y-17123076D01*
X7777228Y-17123076D02*
X7777228Y-16989743D01*
X7777228Y-17008790D02*
X7786752Y-16999267D01*
X7805800Y-16989743D01*
X7834371Y-16989743D01*
X7853419Y-16999267D01*
X7862943Y-17018314D01*
X7862943Y-17123076D01*
X7862943Y-17018314D02*
X7872467Y-16999267D01*
X7891514Y-16989743D01*
X7920086Y-16989743D01*
X7939133Y-16999267D01*
X7948657Y-17018314D01*
X7948657Y-17123076D01*
X8339133Y-16913552D02*
X8167705Y-17170695D01*
X8596276Y-16923076D02*
X8615324Y-16923076D01*
X8634371Y-16932600D01*
X8643895Y-16942124D01*
X8653419Y-16961171D01*
X8662943Y-16999267D01*
X8662943Y-17046886D01*
X8653419Y-17084981D01*
X8643895Y-17104029D01*
X8634371Y-17113552D01*
X8615324Y-17123076D01*
X8596276Y-17123076D01*
X8577229Y-17113552D01*
X8567705Y-17104029D01*
X8558181Y-17084981D01*
X8548657Y-17046886D01*
X8548657Y-16999267D01*
X8558181Y-16961171D01*
X8567705Y-16942124D01*
X8577229Y-16932600D01*
X8596276Y-16923076D01*
X8748657Y-17104029D02*
X8758181Y-17113552D01*
X8748657Y-17123076D01*
X8739133Y-17113552D01*
X8748657Y-17104029D01*
X8748657Y-17123076D01*
X8881990Y-16923076D02*
X8901038Y-16923076D01*
X8920086Y-16932600D01*
X8929610Y-16942124D01*
X8939133Y-16961171D01*
X8948657Y-16999267D01*
X8948657Y-17046886D01*
X8939133Y-17084981D01*
X8929610Y-17104029D01*
X8920086Y-17113552D01*
X8901038Y-17123076D01*
X8881990Y-17123076D01*
X8862943Y-17113552D01*
X8853419Y-17104029D01*
X8843895Y-17084981D01*
X8834371Y-17046886D01*
X8834371Y-16999267D01*
X8843895Y-16961171D01*
X8853419Y-16942124D01*
X8862943Y-16932600D01*
X8881990Y-16923076D01*
X9129610Y-16923076D02*
X9034371Y-16923076D01*
X9024848Y-17018314D01*
X9034371Y-17008790D01*
X9053419Y-16999267D01*
X9101038Y-16999267D01*
X9120086Y-17008790D01*
X9129610Y-17018314D01*
X9139133Y-17037362D01*
X9139133Y-17084981D01*
X9129610Y-17104029D01*
X9120086Y-17113552D01*
X9101038Y-17123076D01*
X9053419Y-17123076D01*
X9034371Y-17113552D01*
X9024848Y-17104029D01*
X9234371Y-17123076D02*
X9272467Y-17123076D01*
X9291514Y-17113552D01*
X9301038Y-17104029D01*
X9320086Y-17075457D01*
X9329610Y-17037362D01*
X9329610Y-16961171D01*
X9320086Y-16942124D01*
X9310562Y-16932600D01*
X9291514Y-16923076D01*
X9253419Y-16923076D01*
X9234371Y-16932600D01*
X9224848Y-16942124D01*
X9215324Y-16961171D01*
X9215324Y-17008790D01*
X9224848Y-17027838D01*
X9234371Y-17037362D01*
X9253419Y-17046886D01*
X9291514Y-17046886D01*
X9310562Y-17037362D01*
X9320086Y-17027838D01*
X9329610Y-17008790D01*
X9520086Y-17123076D02*
X9405800Y-17123076D01*
X9462943Y-17123076D02*
X9462943Y-16923076D01*
X9443895Y-16951648D01*
X9424848Y-16970695D01*
X9405800Y-16980219D01*
X9596276Y-16923076D02*
X9596276Y-16961171D01*
X9672467Y-16923076D02*
X9672467Y-16961171D01*
X9967705Y-17199267D02*
X9958181Y-17189743D01*
X9939133Y-17161171D01*
X9929610Y-17142124D01*
X9920086Y-17113552D01*
X9910562Y-17065933D01*
X9910562Y-17027838D01*
X9920086Y-16980219D01*
X9929610Y-16951648D01*
X9939133Y-16932600D01*
X9958181Y-16904029D01*
X9967705Y-16894505D01*
X10034371Y-16942124D02*
X10043895Y-16932600D01*
X10062943Y-16923076D01*
X10110562Y-16923076D01*
X10129610Y-16932600D01*
X10139133Y-16942124D01*
X10148657Y-16961171D01*
X10148657Y-16980219D01*
X10139133Y-17008790D01*
X10024848Y-17123076D01*
X10148657Y-17123076D01*
X10386752Y-17123076D02*
X10386752Y-16923076D01*
X10472467Y-17123076D02*
X10472467Y-17018314D01*
X10462943Y-16999267D01*
X10443895Y-16989743D01*
X10415324Y-16989743D01*
X10396276Y-16999267D01*
X10386752Y-17008790D01*
X10596276Y-17123076D02*
X10577229Y-17113552D01*
X10567705Y-17104029D01*
X10558181Y-17084981D01*
X10558181Y-17027838D01*
X10567705Y-17008790D01*
X10577229Y-16999267D01*
X10596276Y-16989743D01*
X10624848Y-16989743D01*
X10643895Y-16999267D01*
X10653419Y-17008790D01*
X10662943Y-17027838D01*
X10662943Y-17084981D01*
X10653419Y-17104029D01*
X10643895Y-17113552D01*
X10624848Y-17123076D01*
X10596276Y-17123076D01*
X10777229Y-17123076D02*
X10758181Y-17113552D01*
X10748657Y-17094505D01*
X10748657Y-16923076D01*
X10929610Y-17113552D02*
X10910562Y-17123076D01*
X10872467Y-17123076D01*
X10853419Y-17113552D01*
X10843895Y-17094505D01*
X10843895Y-17018314D01*
X10853419Y-16999267D01*
X10872467Y-16989743D01*
X10910562Y-16989743D01*
X10929610Y-16999267D01*
X10939133Y-17018314D01*
X10939133Y-17037362D01*
X10843895Y-17056410D01*
X11015324Y-17113552D02*
X11034371Y-17123076D01*
X11072467Y-17123076D01*
X11091514Y-17113552D01*
X11101038Y-17094505D01*
X11101038Y-17084981D01*
X11091514Y-17065933D01*
X11072467Y-17056410D01*
X11043895Y-17056410D01*
X11024848Y-17046886D01*
X11015324Y-17027838D01*
X11015324Y-17018314D01*
X11024848Y-16999267D01*
X11043895Y-16989743D01*
X11072467Y-16989743D01*
X11091514Y-16999267D01*
X11167705Y-17199267D02*
X11177229Y-17189743D01*
X11196276Y-17161171D01*
X11205800Y-17142124D01*
X11215324Y-17113552D01*
X11224848Y-17065933D01*
X11224848Y-17027838D01*
X11215324Y-16980219D01*
X11205800Y-16951648D01*
X11196276Y-16932600D01*
X11177229Y-16904029D01*
X11167705Y-16894505D01*
D15*
X6300800Y-17397600D02*
X6395800Y-17302600D01*
X6300800Y-17207600D01*
X6205800Y-17302600D01*
X6300800Y-17397600D01*
D12*
X6758181Y-17393076D02*
X6643895Y-17393076D01*
X6701038Y-17393076D02*
X6701038Y-17193076D01*
X6681990Y-17221648D01*
X6662943Y-17240695D01*
X6643895Y-17250219D01*
X6843895Y-17374029D02*
X6853419Y-17383552D01*
X6843895Y-17393076D01*
X6834371Y-17383552D01*
X6843895Y-17374029D01*
X6843895Y-17393076D01*
X6948657Y-17393076D02*
X6986752Y-17393076D01*
X7005800Y-17383552D01*
X7015324Y-17374029D01*
X7034371Y-17345457D01*
X7043895Y-17307362D01*
X7043895Y-17231171D01*
X7034371Y-17212124D01*
X7024848Y-17202600D01*
X7005800Y-17193076D01*
X6967705Y-17193076D01*
X6948657Y-17202600D01*
X6939133Y-17212124D01*
X6929609Y-17231171D01*
X6929609Y-17278790D01*
X6939133Y-17297838D01*
X6948657Y-17307362D01*
X6967705Y-17316886D01*
X7005800Y-17316886D01*
X7024848Y-17307362D01*
X7034371Y-17297838D01*
X7043895Y-17278790D01*
X7167705Y-17193076D02*
X7186752Y-17193076D01*
X7205800Y-17202600D01*
X7215324Y-17212124D01*
X7224848Y-17231171D01*
X7234371Y-17269267D01*
X7234371Y-17316886D01*
X7224848Y-17354981D01*
X7215324Y-17374029D01*
X7205800Y-17383552D01*
X7186752Y-17393076D01*
X7167705Y-17393076D01*
X7148657Y-17383552D01*
X7139133Y-17374029D01*
X7129609Y-17354981D01*
X7120086Y-17316886D01*
X7120086Y-17269267D01*
X7129609Y-17231171D01*
X7139133Y-17212124D01*
X7148657Y-17202600D01*
X7167705Y-17193076D01*
X7358181Y-17193076D02*
X7377228Y-17193076D01*
X7396276Y-17202600D01*
X7405800Y-17212124D01*
X7415324Y-17231171D01*
X7424848Y-17269267D01*
X7424848Y-17316886D01*
X7415324Y-17354981D01*
X7405800Y-17374029D01*
X7396276Y-17383552D01*
X7377228Y-17393076D01*
X7358181Y-17393076D01*
X7339133Y-17383552D01*
X7329609Y-17374029D01*
X7320086Y-17354981D01*
X7310562Y-17316886D01*
X7310562Y-17269267D01*
X7320086Y-17231171D01*
X7329609Y-17212124D01*
X7339133Y-17202600D01*
X7358181Y-17193076D01*
X7510562Y-17393076D02*
X7510562Y-17259743D01*
X7510562Y-17278790D02*
X7520086Y-17269267D01*
X7539133Y-17259743D01*
X7567705Y-17259743D01*
X7586752Y-17269267D01*
X7596276Y-17288314D01*
X7596276Y-17393076D01*
X7596276Y-17288314D02*
X7605800Y-17269267D01*
X7624848Y-17259743D01*
X7653419Y-17259743D01*
X7672467Y-17269267D01*
X7681990Y-17288314D01*
X7681990Y-17393076D01*
X7777228Y-17393076D02*
X7777228Y-17259743D01*
X7777228Y-17278790D02*
X7786752Y-17269267D01*
X7805800Y-17259743D01*
X7834371Y-17259743D01*
X7853419Y-17269267D01*
X7862943Y-17288314D01*
X7862943Y-17393076D01*
X7862943Y-17288314D02*
X7872467Y-17269267D01*
X7891514Y-17259743D01*
X7920086Y-17259743D01*
X7939133Y-17269267D01*
X7948657Y-17288314D01*
X7948657Y-17393076D01*
X8339133Y-17183552D02*
X8167705Y-17440695D01*
X8596276Y-17193076D02*
X8615324Y-17193076D01*
X8634371Y-17202600D01*
X8643895Y-17212124D01*
X8653419Y-17231171D01*
X8662943Y-17269267D01*
X8662943Y-17316886D01*
X8653419Y-17354981D01*
X8643895Y-17374029D01*
X8634371Y-17383552D01*
X8615324Y-17393076D01*
X8596276Y-17393076D01*
X8577229Y-17383552D01*
X8567705Y-17374029D01*
X8558181Y-17354981D01*
X8548657Y-17316886D01*
X8548657Y-17269267D01*
X8558181Y-17231171D01*
X8567705Y-17212124D01*
X8577229Y-17202600D01*
X8596276Y-17193076D01*
X8748657Y-17374029D02*
X8758181Y-17383552D01*
X8748657Y-17393076D01*
X8739133Y-17383552D01*
X8748657Y-17374029D01*
X8748657Y-17393076D01*
X8881990Y-17193076D02*
X8901038Y-17193076D01*
X8920086Y-17202600D01*
X8929610Y-17212124D01*
X8939133Y-17231171D01*
X8948657Y-17269267D01*
X8948657Y-17316886D01*
X8939133Y-17354981D01*
X8929610Y-17374029D01*
X8920086Y-17383552D01*
X8901038Y-17393076D01*
X8881990Y-17393076D01*
X8862943Y-17383552D01*
X8853419Y-17374029D01*
X8843895Y-17354981D01*
X8834371Y-17316886D01*
X8834371Y-17269267D01*
X8843895Y-17231171D01*
X8853419Y-17212124D01*
X8862943Y-17202600D01*
X8881990Y-17193076D01*
X9015324Y-17193076D02*
X9148657Y-17193076D01*
X9062943Y-17393076D01*
X9310562Y-17259743D02*
X9310562Y-17393076D01*
X9262943Y-17183552D02*
X9215324Y-17326410D01*
X9339133Y-17326410D01*
X9443895Y-17278790D02*
X9424848Y-17269267D01*
X9415324Y-17259743D01*
X9405800Y-17240695D01*
X9405800Y-17231171D01*
X9415324Y-17212124D01*
X9424848Y-17202600D01*
X9443895Y-17193076D01*
X9481990Y-17193076D01*
X9501038Y-17202600D01*
X9510562Y-17212124D01*
X9520086Y-17231171D01*
X9520086Y-17240695D01*
X9510562Y-17259743D01*
X9501038Y-17269267D01*
X9481990Y-17278790D01*
X9443895Y-17278790D01*
X9424848Y-17288314D01*
X9415324Y-17297838D01*
X9405800Y-17316886D01*
X9405800Y-17354981D01*
X9415324Y-17374029D01*
X9424848Y-17383552D01*
X9443895Y-17393076D01*
X9481990Y-17393076D01*
X9501038Y-17383552D01*
X9510562Y-17374029D01*
X9520086Y-17354981D01*
X9520086Y-17316886D01*
X9510562Y-17297838D01*
X9501038Y-17288314D01*
X9481990Y-17278790D01*
X9596276Y-17193076D02*
X9596276Y-17231171D01*
X9672467Y-17193076D02*
X9672467Y-17231171D01*
X9967705Y-17469267D02*
X9958181Y-17459743D01*
X9939133Y-17431171D01*
X9929610Y-17412124D01*
X9920086Y-17383552D01*
X9910562Y-17335933D01*
X9910562Y-17297838D01*
X9920086Y-17250219D01*
X9929610Y-17221648D01*
X9939133Y-17202600D01*
X9958181Y-17174029D01*
X9967705Y-17164505D01*
X10034371Y-17212124D02*
X10043895Y-17202600D01*
X10062943Y-17193076D01*
X10110562Y-17193076D01*
X10129610Y-17202600D01*
X10139133Y-17212124D01*
X10148657Y-17231171D01*
X10148657Y-17250219D01*
X10139133Y-17278790D01*
X10024848Y-17393076D01*
X10148657Y-17393076D01*
X10386752Y-17393076D02*
X10386752Y-17193076D01*
X10472467Y-17393076D02*
X10472467Y-17288314D01*
X10462943Y-17269267D01*
X10443895Y-17259743D01*
X10415324Y-17259743D01*
X10396276Y-17269267D01*
X10386752Y-17278790D01*
X10596276Y-17393076D02*
X10577229Y-17383552D01*
X10567705Y-17374029D01*
X10558181Y-17354981D01*
X10558181Y-17297838D01*
X10567705Y-17278790D01*
X10577229Y-17269267D01*
X10596276Y-17259743D01*
X10624848Y-17259743D01*
X10643895Y-17269267D01*
X10653419Y-17278790D01*
X10662943Y-17297838D01*
X10662943Y-17354981D01*
X10653419Y-17374029D01*
X10643895Y-17383552D01*
X10624848Y-17393076D01*
X10596276Y-17393076D01*
X10777229Y-17393076D02*
X10758181Y-17383552D01*
X10748657Y-17364505D01*
X10748657Y-17193076D01*
X10929610Y-17383552D02*
X10910562Y-17393076D01*
X10872467Y-17393076D01*
X10853419Y-17383552D01*
X10843895Y-17364505D01*
X10843895Y-17288314D01*
X10853419Y-17269267D01*
X10872467Y-17259743D01*
X10910562Y-17259743D01*
X10929610Y-17269267D01*
X10939133Y-17288314D01*
X10939133Y-17307362D01*
X10843895Y-17326410D01*
X11015324Y-17383552D02*
X11034371Y-17393076D01*
X11072467Y-17393076D01*
X11091514Y-17383552D01*
X11101038Y-17364505D01*
X11101038Y-17354981D01*
X11091514Y-17335933D01*
X11072467Y-17326410D01*
X11043895Y-17326410D01*
X11024848Y-17316886D01*
X11015324Y-17297838D01*
X11015324Y-17288314D01*
X11024848Y-17269267D01*
X11043895Y-17259743D01*
X11072467Y-17259743D01*
X11091514Y-17269267D01*
X11167705Y-17469267D02*
X11177229Y-17459743D01*
X11196276Y-17431171D01*
X11205800Y-17412124D01*
X11215324Y-17383552D01*
X11224848Y-17335933D01*
X11224848Y-17297838D01*
X11215324Y-17250219D01*
X11205800Y-17221648D01*
X11196276Y-17202600D01*
X11177229Y-17174029D01*
X11167705Y-17164505D01*
X6195800Y-17512600D02*
X6395800Y-17712600D01*
X6395800Y-17512600D02*
X6195800Y-17712600D01*
X6395800Y-17612600D02*
G75*
G03*
X6395800Y-17612600I-100000J0D01*
G01*
X6643895Y-17522124D02*
X6653419Y-17512600D01*
X6672467Y-17503076D01*
X6720086Y-17503076D01*
X6739133Y-17512600D01*
X6748657Y-17522124D01*
X6758181Y-17541171D01*
X6758181Y-17560219D01*
X6748657Y-17588790D01*
X6634371Y-17703076D01*
X6758181Y-17703076D01*
X6843895Y-17684029D02*
X6853419Y-17693552D01*
X6843895Y-17703076D01*
X6834371Y-17693552D01*
X6843895Y-17684029D01*
X6843895Y-17703076D01*
X6929609Y-17522124D02*
X6939133Y-17512600D01*
X6958181Y-17503076D01*
X7005800Y-17503076D01*
X7024848Y-17512600D01*
X7034371Y-17522124D01*
X7043895Y-17541171D01*
X7043895Y-17560219D01*
X7034371Y-17588790D01*
X6920086Y-17703076D01*
X7043895Y-17703076D01*
X7167705Y-17503076D02*
X7186752Y-17503076D01*
X7205800Y-17512600D01*
X7215324Y-17522124D01*
X7224848Y-17541171D01*
X7234371Y-17579267D01*
X7234371Y-17626886D01*
X7224848Y-17664981D01*
X7215324Y-17684029D01*
X7205800Y-17693552D01*
X7186752Y-17703076D01*
X7167705Y-17703076D01*
X7148657Y-17693552D01*
X7139133Y-17684029D01*
X7129609Y-17664981D01*
X7120086Y-17626886D01*
X7120086Y-17579267D01*
X7129609Y-17541171D01*
X7139133Y-17522124D01*
X7148657Y-17512600D01*
X7167705Y-17503076D01*
X7358181Y-17503076D02*
X7377228Y-17503076D01*
X7396276Y-17512600D01*
X7405800Y-17522124D01*
X7415324Y-17541171D01*
X7424848Y-17579267D01*
X7424848Y-17626886D01*
X7415324Y-17664981D01*
X7405800Y-17684029D01*
X7396276Y-17693552D01*
X7377228Y-17703076D01*
X7358181Y-17703076D01*
X7339133Y-17693552D01*
X7329609Y-17684029D01*
X7320086Y-17664981D01*
X7310562Y-17626886D01*
X7310562Y-17579267D01*
X7320086Y-17541171D01*
X7329609Y-17522124D01*
X7339133Y-17512600D01*
X7358181Y-17503076D01*
X7510562Y-17703076D02*
X7510562Y-17569743D01*
X7510562Y-17588790D02*
X7520086Y-17579267D01*
X7539133Y-17569743D01*
X7567705Y-17569743D01*
X7586752Y-17579267D01*
X7596276Y-17598314D01*
X7596276Y-17703076D01*
X7596276Y-17598314D02*
X7605800Y-17579267D01*
X7624848Y-17569743D01*
X7653419Y-17569743D01*
X7672467Y-17579267D01*
X7681990Y-17598314D01*
X7681990Y-17703076D01*
X7777228Y-17703076D02*
X7777228Y-17569743D01*
X7777228Y-17588790D02*
X7786752Y-17579267D01*
X7805800Y-17569743D01*
X7834371Y-17569743D01*
X7853419Y-17579267D01*
X7862943Y-17598314D01*
X7862943Y-17703076D01*
X7862943Y-17598314D02*
X7872467Y-17579267D01*
X7891514Y-17569743D01*
X7920086Y-17569743D01*
X7939133Y-17579267D01*
X7948657Y-17598314D01*
X7948657Y-17703076D01*
X8339133Y-17493552D02*
X8167705Y-17750695D01*
X8596276Y-17503076D02*
X8615324Y-17503076D01*
X8634371Y-17512600D01*
X8643895Y-17522124D01*
X8653419Y-17541171D01*
X8662943Y-17579267D01*
X8662943Y-17626886D01*
X8653419Y-17664981D01*
X8643895Y-17684029D01*
X8634371Y-17693552D01*
X8615324Y-17703076D01*
X8596276Y-17703076D01*
X8577229Y-17693552D01*
X8567705Y-17684029D01*
X8558181Y-17664981D01*
X8548657Y-17626886D01*
X8548657Y-17579267D01*
X8558181Y-17541171D01*
X8567705Y-17522124D01*
X8577229Y-17512600D01*
X8596276Y-17503076D01*
X8748657Y-17684029D02*
X8758181Y-17693552D01*
X8748657Y-17703076D01*
X8739133Y-17693552D01*
X8748657Y-17684029D01*
X8748657Y-17703076D01*
X8881990Y-17503076D02*
X8901038Y-17503076D01*
X8920086Y-17512600D01*
X8929610Y-17522124D01*
X8939133Y-17541171D01*
X8948657Y-17579267D01*
X8948657Y-17626886D01*
X8939133Y-17664981D01*
X8929610Y-17684029D01*
X8920086Y-17693552D01*
X8901038Y-17703076D01*
X8881990Y-17703076D01*
X8862943Y-17693552D01*
X8853419Y-17684029D01*
X8843895Y-17664981D01*
X8834371Y-17626886D01*
X8834371Y-17579267D01*
X8843895Y-17541171D01*
X8853419Y-17522124D01*
X8862943Y-17512600D01*
X8881990Y-17503076D01*
X9062943Y-17588790D02*
X9043895Y-17579267D01*
X9034371Y-17569743D01*
X9024848Y-17550695D01*
X9024848Y-17541171D01*
X9034371Y-17522124D01*
X9043895Y-17512600D01*
X9062943Y-17503076D01*
X9101038Y-17503076D01*
X9120086Y-17512600D01*
X9129610Y-17522124D01*
X9139133Y-17541171D01*
X9139133Y-17550695D01*
X9129610Y-17569743D01*
X9120086Y-17579267D01*
X9101038Y-17588790D01*
X9062943Y-17588790D01*
X9043895Y-17598314D01*
X9034371Y-17607838D01*
X9024848Y-17626886D01*
X9024848Y-17664981D01*
X9034371Y-17684029D01*
X9043895Y-17693552D01*
X9062943Y-17703076D01*
X9101038Y-17703076D01*
X9120086Y-17693552D01*
X9129610Y-17684029D01*
X9139133Y-17664981D01*
X9139133Y-17626886D01*
X9129610Y-17607838D01*
X9120086Y-17598314D01*
X9101038Y-17588790D01*
X9310562Y-17503076D02*
X9272467Y-17503076D01*
X9253419Y-17512600D01*
X9243895Y-17522124D01*
X9224848Y-17550695D01*
X9215324Y-17588790D01*
X9215324Y-17664981D01*
X9224848Y-17684029D01*
X9234371Y-17693552D01*
X9253419Y-17703076D01*
X9291514Y-17703076D01*
X9310562Y-17693552D01*
X9320086Y-17684029D01*
X9329610Y-17664981D01*
X9329610Y-17617362D01*
X9320086Y-17598314D01*
X9310562Y-17588790D01*
X9291514Y-17579267D01*
X9253419Y-17579267D01*
X9234371Y-17588790D01*
X9224848Y-17598314D01*
X9215324Y-17617362D01*
X9501038Y-17503076D02*
X9462943Y-17503076D01*
X9443895Y-17512600D01*
X9434371Y-17522124D01*
X9415324Y-17550695D01*
X9405800Y-17588790D01*
X9405800Y-17664981D01*
X9415324Y-17684029D01*
X9424848Y-17693552D01*
X9443895Y-17703076D01*
X9481990Y-17703076D01*
X9501038Y-17693552D01*
X9510562Y-17684029D01*
X9520086Y-17664981D01*
X9520086Y-17617362D01*
X9510562Y-17598314D01*
X9501038Y-17588790D01*
X9481990Y-17579267D01*
X9443895Y-17579267D01*
X9424848Y-17588790D01*
X9415324Y-17598314D01*
X9405800Y-17617362D01*
X9596276Y-17503076D02*
X9596276Y-17541171D01*
X9672467Y-17503076D02*
X9672467Y-17541171D01*
X9967705Y-17779267D02*
X9958181Y-17769743D01*
X9939133Y-17741171D01*
X9929610Y-17722124D01*
X9920086Y-17693552D01*
X9910562Y-17645933D01*
X9910562Y-17607838D01*
X9920086Y-17560219D01*
X9929610Y-17531648D01*
X9939133Y-17512600D01*
X9958181Y-17484029D01*
X9967705Y-17474505D01*
X10072467Y-17588790D02*
X10053419Y-17579267D01*
X10043895Y-17569743D01*
X10034371Y-17550695D01*
X10034371Y-17541171D01*
X10043895Y-17522124D01*
X10053419Y-17512600D01*
X10072467Y-17503076D01*
X10110562Y-17503076D01*
X10129610Y-17512600D01*
X10139133Y-17522124D01*
X10148657Y-17541171D01*
X10148657Y-17550695D01*
X10139133Y-17569743D01*
X10129610Y-17579267D01*
X10110562Y-17588790D01*
X10072467Y-17588790D01*
X10053419Y-17598314D01*
X10043895Y-17607838D01*
X10034371Y-17626886D01*
X10034371Y-17664981D01*
X10043895Y-17684029D01*
X10053419Y-17693552D01*
X10072467Y-17703076D01*
X10110562Y-17703076D01*
X10129610Y-17693552D01*
X10139133Y-17684029D01*
X10148657Y-17664981D01*
X10148657Y-17626886D01*
X10139133Y-17607838D01*
X10129610Y-17598314D01*
X10110562Y-17588790D01*
X10386752Y-17703076D02*
X10386752Y-17503076D01*
X10472467Y-17703076D02*
X10472467Y-17598314D01*
X10462943Y-17579267D01*
X10443895Y-17569743D01*
X10415324Y-17569743D01*
X10396276Y-17579267D01*
X10386752Y-17588790D01*
X10596276Y-17703076D02*
X10577229Y-17693552D01*
X10567705Y-17684029D01*
X10558181Y-17664981D01*
X10558181Y-17607838D01*
X10567705Y-17588790D01*
X10577229Y-17579267D01*
X10596276Y-17569743D01*
X10624848Y-17569743D01*
X10643895Y-17579267D01*
X10653419Y-17588790D01*
X10662943Y-17607838D01*
X10662943Y-17664981D01*
X10653419Y-17684029D01*
X10643895Y-17693552D01*
X10624848Y-17703076D01*
X10596276Y-17703076D01*
X10777229Y-17703076D02*
X10758181Y-17693552D01*
X10748657Y-17674505D01*
X10748657Y-17503076D01*
X10929610Y-17693552D02*
X10910562Y-17703076D01*
X10872467Y-17703076D01*
X10853419Y-17693552D01*
X10843895Y-17674505D01*
X10843895Y-17598314D01*
X10853419Y-17579267D01*
X10872467Y-17569743D01*
X10910562Y-17569743D01*
X10929610Y-17579267D01*
X10939133Y-17598314D01*
X10939133Y-17617362D01*
X10843895Y-17636410D01*
X11015324Y-17693552D02*
X11034371Y-17703076D01*
X11072467Y-17703076D01*
X11091514Y-17693552D01*
X11101038Y-17674505D01*
X11101038Y-17664981D01*
X11091514Y-17645933D01*
X11072467Y-17636410D01*
X11043895Y-17636410D01*
X11024848Y-17626886D01*
X11015324Y-17607838D01*
X11015324Y-17598314D01*
X11024848Y-17579267D01*
X11043895Y-17569743D01*
X11072467Y-17569743D01*
X11091514Y-17579267D01*
X11167705Y-17779267D02*
X11177229Y-17769743D01*
X11196276Y-17741171D01*
X11205800Y-17722124D01*
X11215324Y-17693552D01*
X11224848Y-17645933D01*
X11224848Y-17607838D01*
X11215324Y-17560219D01*
X11205800Y-17531648D01*
X11196276Y-17512600D01*
X11177229Y-17484029D01*
X11167705Y-17474505D01*
X6195800Y-17832600D02*
X6395800Y-18032600D01*
X6395800Y-17832600D02*
X6195800Y-18032600D01*
X6295800Y-17832600D02*
X6295800Y-18032600D01*
X6195800Y-17932600D02*
X6395800Y-17932600D01*
X6643895Y-17842124D02*
X6653419Y-17832600D01*
X6672467Y-17823076D01*
X6720086Y-17823076D01*
X6739133Y-17832600D01*
X6748657Y-17842124D01*
X6758181Y-17861171D01*
X6758181Y-17880219D01*
X6748657Y-17908790D01*
X6634371Y-18023076D01*
X6758181Y-18023076D01*
X6843895Y-18004029D02*
X6853419Y-18013552D01*
X6843895Y-18023076D01*
X6834371Y-18013552D01*
X6843895Y-18004029D01*
X6843895Y-18023076D01*
X7034371Y-17823076D02*
X6939133Y-17823076D01*
X6929609Y-17918314D01*
X6939133Y-17908790D01*
X6958181Y-17899267D01*
X7005800Y-17899267D01*
X7024848Y-17908790D01*
X7034371Y-17918314D01*
X7043895Y-17937362D01*
X7043895Y-17984981D01*
X7034371Y-18004029D01*
X7024848Y-18013552D01*
X7005800Y-18023076D01*
X6958181Y-18023076D01*
X6939133Y-18013552D01*
X6929609Y-18004029D01*
X7167705Y-17823076D02*
X7186752Y-17823076D01*
X7205800Y-17832600D01*
X7215324Y-17842124D01*
X7224848Y-17861171D01*
X7234371Y-17899267D01*
X7234371Y-17946886D01*
X7224848Y-17984981D01*
X7215324Y-18004029D01*
X7205800Y-18013552D01*
X7186752Y-18023076D01*
X7167705Y-18023076D01*
X7148657Y-18013552D01*
X7139133Y-18004029D01*
X7129609Y-17984981D01*
X7120086Y-17946886D01*
X7120086Y-17899267D01*
X7129609Y-17861171D01*
X7139133Y-17842124D01*
X7148657Y-17832600D01*
X7167705Y-17823076D01*
X7358181Y-17823076D02*
X7377228Y-17823076D01*
X7396276Y-17832600D01*
X7405800Y-17842124D01*
X7415324Y-17861171D01*
X7424848Y-17899267D01*
X7424848Y-17946886D01*
X7415324Y-17984981D01*
X7405800Y-18004029D01*
X7396276Y-18013552D01*
X7377228Y-18023076D01*
X7358181Y-18023076D01*
X7339133Y-18013552D01*
X7329609Y-18004029D01*
X7320086Y-17984981D01*
X7310562Y-17946886D01*
X7310562Y-17899267D01*
X7320086Y-17861171D01*
X7329609Y-17842124D01*
X7339133Y-17832600D01*
X7358181Y-17823076D01*
X7510562Y-18023076D02*
X7510562Y-17889743D01*
X7510562Y-17908790D02*
X7520086Y-17899267D01*
X7539133Y-17889743D01*
X7567705Y-17889743D01*
X7586752Y-17899267D01*
X7596276Y-17918314D01*
X7596276Y-18023076D01*
X7596276Y-17918314D02*
X7605800Y-17899267D01*
X7624848Y-17889743D01*
X7653419Y-17889743D01*
X7672467Y-17899267D01*
X7681990Y-17918314D01*
X7681990Y-18023076D01*
X7777228Y-18023076D02*
X7777228Y-17889743D01*
X7777228Y-17908790D02*
X7786752Y-17899267D01*
X7805800Y-17889743D01*
X7834371Y-17889743D01*
X7853419Y-17899267D01*
X7862943Y-17918314D01*
X7862943Y-18023076D01*
X7862943Y-17918314D02*
X7872467Y-17899267D01*
X7891514Y-17889743D01*
X7920086Y-17889743D01*
X7939133Y-17899267D01*
X7948657Y-17918314D01*
X7948657Y-18023076D01*
X8339133Y-17813552D02*
X8167705Y-18070695D01*
X8596276Y-17823076D02*
X8615324Y-17823076D01*
X8634371Y-17832600D01*
X8643895Y-17842124D01*
X8653419Y-17861171D01*
X8662943Y-17899267D01*
X8662943Y-17946886D01*
X8653419Y-17984981D01*
X8643895Y-18004029D01*
X8634371Y-18013552D01*
X8615324Y-18023076D01*
X8596276Y-18023076D01*
X8577229Y-18013552D01*
X8567705Y-18004029D01*
X8558181Y-17984981D01*
X8548657Y-17946886D01*
X8548657Y-17899267D01*
X8558181Y-17861171D01*
X8567705Y-17842124D01*
X8577229Y-17832600D01*
X8596276Y-17823076D01*
X8748657Y-18004029D02*
X8758181Y-18013552D01*
X8748657Y-18023076D01*
X8739133Y-18013552D01*
X8748657Y-18004029D01*
X8748657Y-18023076D01*
X8881990Y-17823076D02*
X8901038Y-17823076D01*
X8920086Y-17832600D01*
X8929610Y-17842124D01*
X8939133Y-17861171D01*
X8948657Y-17899267D01*
X8948657Y-17946886D01*
X8939133Y-17984981D01*
X8929610Y-18004029D01*
X8920086Y-18013552D01*
X8901038Y-18023076D01*
X8881990Y-18023076D01*
X8862943Y-18013552D01*
X8853419Y-18004029D01*
X8843895Y-17984981D01*
X8834371Y-17946886D01*
X8834371Y-17899267D01*
X8843895Y-17861171D01*
X8853419Y-17842124D01*
X8862943Y-17832600D01*
X8881990Y-17823076D01*
X9043895Y-18023076D02*
X9081990Y-18023076D01*
X9101038Y-18013552D01*
X9110562Y-18004029D01*
X9129610Y-17975457D01*
X9139133Y-17937362D01*
X9139133Y-17861171D01*
X9129610Y-17842124D01*
X9120086Y-17832600D01*
X9101038Y-17823076D01*
X9062943Y-17823076D01*
X9043895Y-17832600D01*
X9034371Y-17842124D01*
X9024848Y-17861171D01*
X9024848Y-17908790D01*
X9034371Y-17927838D01*
X9043895Y-17937362D01*
X9062943Y-17946886D01*
X9101038Y-17946886D01*
X9120086Y-17937362D01*
X9129610Y-17927838D01*
X9139133Y-17908790D01*
X9253419Y-17908790D02*
X9234371Y-17899267D01*
X9224848Y-17889743D01*
X9215324Y-17870695D01*
X9215324Y-17861171D01*
X9224848Y-17842124D01*
X9234371Y-17832600D01*
X9253419Y-17823076D01*
X9291514Y-17823076D01*
X9310562Y-17832600D01*
X9320086Y-17842124D01*
X9329610Y-17861171D01*
X9329610Y-17870695D01*
X9320086Y-17889743D01*
X9310562Y-17899267D01*
X9291514Y-17908790D01*
X9253419Y-17908790D01*
X9234371Y-17918314D01*
X9224848Y-17927838D01*
X9215324Y-17946886D01*
X9215324Y-17984981D01*
X9224848Y-18004029D01*
X9234371Y-18013552D01*
X9253419Y-18023076D01*
X9291514Y-18023076D01*
X9310562Y-18013552D01*
X9320086Y-18004029D01*
X9329610Y-17984981D01*
X9329610Y-17946886D01*
X9320086Y-17927838D01*
X9310562Y-17918314D01*
X9291514Y-17908790D01*
X9501038Y-17889743D02*
X9501038Y-18023076D01*
X9453419Y-17813552D02*
X9405800Y-17956410D01*
X9529610Y-17956410D01*
X9596276Y-17823076D02*
X9596276Y-17861171D01*
X9672467Y-17823076D02*
X9672467Y-17861171D01*
X9967705Y-18099267D02*
X9958181Y-18089743D01*
X9939133Y-18061171D01*
X9929610Y-18042124D01*
X9920086Y-18013552D01*
X9910562Y-17965933D01*
X9910562Y-17927838D01*
X9920086Y-17880219D01*
X9929610Y-17851648D01*
X9939133Y-17832600D01*
X9958181Y-17804029D01*
X9967705Y-17794505D01*
X10129610Y-17823076D02*
X10091514Y-17823076D01*
X10072467Y-17832600D01*
X10062943Y-17842124D01*
X10043895Y-17870695D01*
X10034371Y-17908790D01*
X10034371Y-17984981D01*
X10043895Y-18004029D01*
X10053419Y-18013552D01*
X10072467Y-18023076D01*
X10110562Y-18023076D01*
X10129610Y-18013552D01*
X10139133Y-18004029D01*
X10148657Y-17984981D01*
X10148657Y-17937362D01*
X10139133Y-17918314D01*
X10129610Y-17908790D01*
X10110562Y-17899267D01*
X10072467Y-17899267D01*
X10053419Y-17908790D01*
X10043895Y-17918314D01*
X10034371Y-17937362D01*
X10386752Y-18023076D02*
X10386752Y-17823076D01*
X10472467Y-18023076D02*
X10472467Y-17918314D01*
X10462943Y-17899267D01*
X10443895Y-17889743D01*
X10415324Y-17889743D01*
X10396276Y-17899267D01*
X10386752Y-17908790D01*
X10596276Y-18023076D02*
X10577229Y-18013552D01*
X10567705Y-18004029D01*
X10558181Y-17984981D01*
X10558181Y-17927838D01*
X10567705Y-17908790D01*
X10577229Y-17899267D01*
X10596276Y-17889743D01*
X10624848Y-17889743D01*
X10643895Y-17899267D01*
X10653419Y-17908790D01*
X10662943Y-17927838D01*
X10662943Y-17984981D01*
X10653419Y-18004029D01*
X10643895Y-18013552D01*
X10624848Y-18023076D01*
X10596276Y-18023076D01*
X10777229Y-18023076D02*
X10758181Y-18013552D01*
X10748657Y-17994505D01*
X10748657Y-17823076D01*
X10929610Y-18013552D02*
X10910562Y-18023076D01*
X10872467Y-18023076D01*
X10853419Y-18013552D01*
X10843895Y-17994505D01*
X10843895Y-17918314D01*
X10853419Y-17899267D01*
X10872467Y-17889743D01*
X10910562Y-17889743D01*
X10929610Y-17899267D01*
X10939133Y-17918314D01*
X10939133Y-17937362D01*
X10843895Y-17956410D01*
X11015324Y-18013552D02*
X11034371Y-18023076D01*
X11072467Y-18023076D01*
X11091514Y-18013552D01*
X11101038Y-17994505D01*
X11101038Y-17984981D01*
X11091514Y-17965933D01*
X11072467Y-17956410D01*
X11043895Y-17956410D01*
X11024848Y-17946886D01*
X11015324Y-17927838D01*
X11015324Y-17918314D01*
X11024848Y-17899267D01*
X11043895Y-17889743D01*
X11072467Y-17889743D01*
X11091514Y-17899267D01*
X11167705Y-18099267D02*
X11177229Y-18089743D01*
X11196276Y-18061171D01*
X11205800Y-18042124D01*
X11215324Y-18013552D01*
X11224848Y-17965933D01*
X11224848Y-17927838D01*
X11215324Y-17880219D01*
X11205800Y-17851648D01*
X11196276Y-17832600D01*
X11177229Y-17804029D01*
X11167705Y-17794505D01*
X6195800Y-18152600D02*
X6395800Y-18352600D01*
X6395800Y-18152600D02*
X6195800Y-18352600D01*
X6366511Y-18323311D02*
X6366511Y-18181889D01*
X6225089Y-18181889D01*
X6225089Y-18323311D01*
X6366511Y-18323311D01*
X6681990Y-18228790D02*
X6662943Y-18219267D01*
X6653419Y-18209743D01*
X6643895Y-18190695D01*
X6643895Y-18181171D01*
X6653419Y-18162124D01*
X6662943Y-18152600D01*
X6681990Y-18143076D01*
X6720086Y-18143076D01*
X6739133Y-18152600D01*
X6748657Y-18162124D01*
X6758181Y-18181171D01*
X6758181Y-18190695D01*
X6748657Y-18209743D01*
X6739133Y-18219267D01*
X6720086Y-18228790D01*
X6681990Y-18228790D01*
X6662943Y-18238314D01*
X6653419Y-18247838D01*
X6643895Y-18266886D01*
X6643895Y-18304981D01*
X6653419Y-18324029D01*
X6662943Y-18333552D01*
X6681990Y-18343076D01*
X6720086Y-18343076D01*
X6739133Y-18333552D01*
X6748657Y-18324029D01*
X6758181Y-18304981D01*
X6758181Y-18266886D01*
X6748657Y-18247838D01*
X6739133Y-18238314D01*
X6720086Y-18228790D01*
X6843895Y-18324029D02*
X6853419Y-18333552D01*
X6843895Y-18343076D01*
X6834371Y-18333552D01*
X6843895Y-18324029D01*
X6843895Y-18343076D01*
X7034371Y-18143076D02*
X6939133Y-18143076D01*
X6929609Y-18238314D01*
X6939133Y-18228790D01*
X6958181Y-18219267D01*
X7005800Y-18219267D01*
X7024848Y-18228790D01*
X7034371Y-18238314D01*
X7043895Y-18257362D01*
X7043895Y-18304981D01*
X7034371Y-18324029D01*
X7024848Y-18333552D01*
X7005800Y-18343076D01*
X6958181Y-18343076D01*
X6939133Y-18333552D01*
X6929609Y-18324029D01*
X7215324Y-18209743D02*
X7215324Y-18343076D01*
X7167705Y-18133552D02*
X7120086Y-18276410D01*
X7243895Y-18276410D01*
X7405800Y-18209743D02*
X7405800Y-18343076D01*
X7358181Y-18133552D02*
X7310562Y-18276410D01*
X7434371Y-18276410D01*
X7510562Y-18343076D02*
X7510562Y-18209743D01*
X7510562Y-18228790D02*
X7520086Y-18219267D01*
X7539133Y-18209743D01*
X7567705Y-18209743D01*
X7586752Y-18219267D01*
X7596276Y-18238314D01*
X7596276Y-18343076D01*
X7596276Y-18238314D02*
X7605800Y-18219267D01*
X7624848Y-18209743D01*
X7653419Y-18209743D01*
X7672467Y-18219267D01*
X7681990Y-18238314D01*
X7681990Y-18343076D01*
X7777228Y-18343076D02*
X7777228Y-18209743D01*
X7777228Y-18228790D02*
X7786752Y-18219267D01*
X7805800Y-18209743D01*
X7834371Y-18209743D01*
X7853419Y-18219267D01*
X7862943Y-18238314D01*
X7862943Y-18343076D01*
X7862943Y-18238314D02*
X7872467Y-18219267D01*
X7891514Y-18209743D01*
X7920086Y-18209743D01*
X7939133Y-18219267D01*
X7948657Y-18238314D01*
X7948657Y-18343076D01*
X8339133Y-18133552D02*
X8167705Y-18390695D01*
X8596276Y-18143076D02*
X8615324Y-18143076D01*
X8634371Y-18152600D01*
X8643895Y-18162124D01*
X8653419Y-18181171D01*
X8662943Y-18219267D01*
X8662943Y-18266886D01*
X8653419Y-18304981D01*
X8643895Y-18324029D01*
X8634371Y-18333552D01*
X8615324Y-18343076D01*
X8596276Y-18343076D01*
X8577229Y-18333552D01*
X8567705Y-18324029D01*
X8558181Y-18304981D01*
X8548657Y-18266886D01*
X8548657Y-18219267D01*
X8558181Y-18181171D01*
X8567705Y-18162124D01*
X8577229Y-18152600D01*
X8596276Y-18143076D01*
X8748657Y-18324029D02*
X8758181Y-18333552D01*
X8748657Y-18343076D01*
X8739133Y-18333552D01*
X8748657Y-18324029D01*
X8748657Y-18343076D01*
X8824848Y-18143076D02*
X8948657Y-18143076D01*
X8881990Y-18219267D01*
X8910562Y-18219267D01*
X8929610Y-18228790D01*
X8939133Y-18238314D01*
X8948657Y-18257362D01*
X8948657Y-18304981D01*
X8939133Y-18324029D01*
X8929610Y-18333552D01*
X8910562Y-18343076D01*
X8853419Y-18343076D01*
X8834371Y-18333552D01*
X8824848Y-18324029D01*
X9015324Y-18143076D02*
X9139133Y-18143076D01*
X9072467Y-18219267D01*
X9101038Y-18219267D01*
X9120086Y-18228790D01*
X9129610Y-18238314D01*
X9139133Y-18257362D01*
X9139133Y-18304981D01*
X9129610Y-18324029D01*
X9120086Y-18333552D01*
X9101038Y-18343076D01*
X9043895Y-18343076D01*
X9024848Y-18333552D01*
X9015324Y-18324029D01*
X9310562Y-18143076D02*
X9272467Y-18143076D01*
X9253419Y-18152600D01*
X9243895Y-18162124D01*
X9224848Y-18190695D01*
X9215324Y-18228790D01*
X9215324Y-18304981D01*
X9224848Y-18324029D01*
X9234371Y-18333552D01*
X9253419Y-18343076D01*
X9291514Y-18343076D01*
X9310562Y-18333552D01*
X9320086Y-18324029D01*
X9329610Y-18304981D01*
X9329610Y-18257362D01*
X9320086Y-18238314D01*
X9310562Y-18228790D01*
X9291514Y-18219267D01*
X9253419Y-18219267D01*
X9234371Y-18228790D01*
X9224848Y-18238314D01*
X9215324Y-18257362D01*
X9501038Y-18209743D02*
X9501038Y-18343076D01*
X9453419Y-18133552D02*
X9405800Y-18276410D01*
X9529610Y-18276410D01*
X9596276Y-18143076D02*
X9596276Y-18181171D01*
X9672467Y-18143076D02*
X9672467Y-18181171D01*
X9967705Y-18419267D02*
X9958181Y-18409743D01*
X9939133Y-18381171D01*
X9929610Y-18362124D01*
X9920086Y-18333552D01*
X9910562Y-18285933D01*
X9910562Y-18247838D01*
X9920086Y-18200219D01*
X9929610Y-18171648D01*
X9939133Y-18152600D01*
X9958181Y-18124029D01*
X9967705Y-18114505D01*
X10129610Y-18143076D02*
X10091514Y-18143076D01*
X10072467Y-18152600D01*
X10062943Y-18162124D01*
X10043895Y-18190695D01*
X10034371Y-18228790D01*
X10034371Y-18304981D01*
X10043895Y-18324029D01*
X10053419Y-18333552D01*
X10072467Y-18343076D01*
X10110562Y-18343076D01*
X10129610Y-18333552D01*
X10139133Y-18324029D01*
X10148657Y-18304981D01*
X10148657Y-18257362D01*
X10139133Y-18238314D01*
X10129610Y-18228790D01*
X10110562Y-18219267D01*
X10072467Y-18219267D01*
X10053419Y-18228790D01*
X10043895Y-18238314D01*
X10034371Y-18257362D01*
X10386752Y-18343076D02*
X10386752Y-18143076D01*
X10472467Y-18343076D02*
X10472467Y-18238314D01*
X10462943Y-18219267D01*
X10443895Y-18209743D01*
X10415324Y-18209743D01*
X10396276Y-18219267D01*
X10386752Y-18228790D01*
X10596276Y-18343076D02*
X10577229Y-18333552D01*
X10567705Y-18324029D01*
X10558181Y-18304981D01*
X10558181Y-18247838D01*
X10567705Y-18228790D01*
X10577229Y-18219267D01*
X10596276Y-18209743D01*
X10624848Y-18209743D01*
X10643895Y-18219267D01*
X10653419Y-18228790D01*
X10662943Y-18247838D01*
X10662943Y-18304981D01*
X10653419Y-18324029D01*
X10643895Y-18333552D01*
X10624848Y-18343076D01*
X10596276Y-18343076D01*
X10777229Y-18343076D02*
X10758181Y-18333552D01*
X10748657Y-18314505D01*
X10748657Y-18143076D01*
X10929610Y-18333552D02*
X10910562Y-18343076D01*
X10872467Y-18343076D01*
X10853419Y-18333552D01*
X10843895Y-18314505D01*
X10843895Y-18238314D01*
X10853419Y-18219267D01*
X10872467Y-18209743D01*
X10910562Y-18209743D01*
X10929610Y-18219267D01*
X10939133Y-18238314D01*
X10939133Y-18257362D01*
X10843895Y-18276410D01*
X11015324Y-18333552D02*
X11034371Y-18343076D01*
X11072467Y-18343076D01*
X11091514Y-18333552D01*
X11101038Y-18314505D01*
X11101038Y-18304981D01*
X11091514Y-18285933D01*
X11072467Y-18276410D01*
X11043895Y-18276410D01*
X11024848Y-18266886D01*
X11015324Y-18247838D01*
X11015324Y-18238314D01*
X11024848Y-18219267D01*
X11043895Y-18209743D01*
X11072467Y-18209743D01*
X11091514Y-18219267D01*
X11167705Y-18419267D02*
X11177229Y-18409743D01*
X11196276Y-18381171D01*
X11205800Y-18362124D01*
X11215324Y-18333552D01*
X11224848Y-18285933D01*
X11224848Y-18247838D01*
X11215324Y-18200219D01*
X11205800Y-18171648D01*
X11196276Y-18152600D01*
X11177229Y-18124029D01*
X11167705Y-18114505D01*
M02*
