%TF.GenerationSoftware,KiCad,Pcbnew,(6.0.7)*%
%TF.CreationDate,2022-08-27T17:54:50+01:00*%
%TF.ProjectId,Buck Racing 2,4275636b-2052-4616-9369-6e6720322e6b,v01*%
%TF.SameCoordinates,Original*%
%TF.FileFunction,Legend,Bot*%
%TF.FilePolarity,Positive*%
%FSLAX46Y46*%
G04 Gerber Fmt 4.6, Leading zero omitted, Abs format (unit mm)*
G04 Created by KiCad (PCBNEW (6.0.7)) date 2022-08-27 17:54:50*
%MOMM*%
%LPD*%
G01*
G04 APERTURE LIST*
%ADD10C,0.254000*%
%ADD11C,0.200000*%
%ADD12C,3.000000*%
%ADD13C,3.300000*%
%ADD14C,2.160000*%
%ADD15R,2.160000X2.160000*%
%ADD16C,3.750000*%
%ADD17C,12.816000*%
%ADD18R,2.850000X2.850000*%
%ADD19C,2.850000*%
%ADD20C,1.217000*%
%ADD21R,1.700000X1.700000*%
%ADD22O,1.700000X1.700000*%
G04 APERTURE END LIST*
D10*
X127628952Y-146491476D02*
X127749904Y-146431000D01*
X127870857Y-146310047D01*
X128052285Y-146128619D01*
X128173238Y-146068142D01*
X128294190Y-146068142D01*
X128233714Y-146370523D02*
X128354666Y-146310047D01*
X128475619Y-146189095D01*
X128536095Y-145947190D01*
X128536095Y-145523857D01*
X128475619Y-145281952D01*
X128354666Y-145161000D01*
X128233714Y-145100523D01*
X127991809Y-145100523D01*
X127870857Y-145161000D01*
X127749904Y-145281952D01*
X127689428Y-145523857D01*
X127689428Y-145947190D01*
X127749904Y-146189095D01*
X127870857Y-146310047D01*
X127991809Y-146370523D01*
X128233714Y-146370523D01*
X126479904Y-146370523D02*
X127205619Y-146370523D01*
X126842761Y-146370523D02*
X126842761Y-145100523D01*
X126963714Y-145281952D01*
X127084666Y-145402904D01*
X127205619Y-145463380D01*
D11*
X130303000Y-142406000D02*
X130303000Y-145796000D01*
X119633000Y-142406000D02*
X130303000Y-142406000D01*
X119633000Y-147236000D02*
X119633000Y-142406000D01*
%LPC*%
D12*
X114527600Y-146379200D03*
X114527600Y-135459200D03*
D13*
X163130000Y-119400000D03*
X163130000Y-109240000D03*
X152970000Y-119400000D03*
X152970000Y-109240000D03*
X152970000Y-132709600D03*
X152970000Y-142869600D03*
X163130000Y-132709600D03*
X163130000Y-142869600D03*
D14*
X122428000Y-145796000D03*
X124968000Y-145796000D03*
D15*
X127508000Y-145796000D03*
D16*
X148470000Y-71590000D03*
D17*
X120770000Y-71590000D03*
D16*
X120770000Y-85890000D03*
D17*
X148470000Y-85890000D03*
D16*
X81750000Y-64890000D03*
D17*
X81750000Y-92590000D03*
D16*
X96050000Y-92590000D03*
D17*
X96050000Y-64890000D03*
D16*
X75050000Y-131610000D03*
D17*
X102750000Y-131610000D03*
D16*
X102750000Y-117310000D03*
D17*
X75050000Y-117310000D03*
D18*
X129540000Y-114380000D03*
D19*
X129540000Y-124380000D03*
D20*
X139446000Y-141732000D03*
X141986000Y-141732000D03*
D21*
X146812000Y-141239000D03*
D22*
X146812000Y-143779000D03*
X146812000Y-146319000D03*
D21*
X135143000Y-146812000D03*
D22*
X137683000Y-146812000D03*
X140223000Y-146812000D03*
M02*
