%TF.GenerationSoftware,KiCad,Pcbnew,(6.0.7)*%
%TF.CreationDate,2022-08-27T17:54:50+01:00*%
%TF.ProjectId,Buck Racing 2,4275636b-2052-4616-9369-6e6720322e6b,v01*%
%TF.SameCoordinates,Original*%
%TF.FileFunction,Copper,L1,Top*%
%TF.FilePolarity,Positive*%
%FSLAX46Y46*%
G04 Gerber Fmt 4.6, Leading zero omitted, Abs format (unit mm)*
G04 Created by KiCad (PCBNEW (6.0.7)) date 2022-08-27 17:54:50*
%MOMM*%
%LPD*%
G01*
G04 APERTURE LIST*
%TA.AperFunction,ComponentPad*%
%ADD10C,3.000000*%
%TD*%
%TA.AperFunction,ComponentPad*%
%ADD11C,3.300000*%
%TD*%
%TA.AperFunction,ComponentPad*%
%ADD12C,2.160000*%
%TD*%
%TA.AperFunction,ComponentPad*%
%ADD13R,2.160000X2.160000*%
%TD*%
%TA.AperFunction,ComponentPad*%
%ADD14C,3.750000*%
%TD*%
%TA.AperFunction,ComponentPad*%
%ADD15C,12.816000*%
%TD*%
%TA.AperFunction,ComponentPad*%
%ADD16R,2.850000X2.850000*%
%TD*%
%TA.AperFunction,ComponentPad*%
%ADD17C,2.850000*%
%TD*%
%TA.AperFunction,ComponentPad*%
%ADD18C,1.217000*%
%TD*%
%TA.AperFunction,ComponentPad*%
%ADD19R,1.700000X1.700000*%
%TD*%
%TA.AperFunction,ComponentPad*%
%ADD20O,1.700000X1.700000*%
%TD*%
%TA.AperFunction,Conductor*%
%ADD21C,1.000000*%
%TD*%
%TA.AperFunction,Conductor*%
%ADD22C,4.000000*%
%TD*%
%TA.AperFunction,Conductor*%
%ADD23C,9.000000*%
%TD*%
%TA.AperFunction,Conductor*%
%ADD24C,5.000000*%
%TD*%
%TA.AperFunction,Conductor*%
%ADD25C,15.000000*%
%TD*%
%TA.AperFunction,Conductor*%
%ADD26C,20.000000*%
%TD*%
%TA.AperFunction,Conductor*%
%ADD27C,2.000000*%
%TD*%
%TA.AperFunction,Conductor*%
%ADD28C,8.000000*%
%TD*%
%TA.AperFunction,Conductor*%
%ADD29C,3.000000*%
%TD*%
%TA.AperFunction,Conductor*%
%ADD30C,2.500000*%
%TD*%
G04 APERTURE END LIST*
D10*
X114527600Y-146379200D03*
X114527600Y-135459200D03*
D11*
X163130000Y-119400000D03*
X163130000Y-109240000D03*
X152970000Y-119400000D03*
X152970000Y-109240000D03*
X152970000Y-132709600D03*
X152970000Y-142869600D03*
X163130000Y-132709600D03*
X163130000Y-142869600D03*
D12*
X122428000Y-145796000D03*
X124968000Y-145796000D03*
D13*
X127508000Y-145796000D03*
D14*
X148470000Y-71590000D03*
D15*
X120770000Y-71590000D03*
D14*
X120770000Y-85890000D03*
D15*
X148470000Y-85890000D03*
D14*
X81750000Y-64890000D03*
D15*
X81750000Y-92590000D03*
D14*
X96050000Y-92590000D03*
D15*
X96050000Y-64890000D03*
D14*
X75050000Y-131610000D03*
D15*
X102750000Y-131610000D03*
D14*
X102750000Y-117310000D03*
D15*
X75050000Y-117310000D03*
D16*
X129540000Y-114380000D03*
D17*
X129540000Y-124380000D03*
D18*
X139446000Y-141732000D03*
X141986000Y-141732000D03*
D19*
X146812000Y-141239000D03*
D20*
X146812000Y-143779000D03*
X146812000Y-146319000D03*
D19*
X135143000Y-146812000D03*
D20*
X137683000Y-146812000D03*
X140223000Y-146812000D03*
D21*
X163322000Y-137033000D02*
X163703000Y-136652000D01*
X145161000Y-137033000D02*
X163322000Y-137033000D01*
X144145000Y-137033000D02*
X145161000Y-137033000D01*
X139446000Y-141732000D02*
X144145000Y-137033000D01*
D22*
X104775000Y-139446000D02*
X111887000Y-139446000D01*
X102743000Y-141478000D02*
X104775000Y-139446000D01*
D23*
X105918000Y-144653000D02*
X113262200Y-144653000D01*
X102743000Y-141478000D02*
X105918000Y-144653000D01*
X113262200Y-144653000D02*
X114527600Y-143387600D01*
D21*
X110490000Y-135382000D02*
X110236000Y-135382000D01*
X110998000Y-135890000D02*
X110490000Y-135382000D01*
X110998000Y-136017000D02*
X110998000Y-135890000D01*
D24*
X109204500Y-138064500D02*
X102750000Y-131610000D01*
D21*
X113411000Y-138430000D02*
X110998000Y-136017000D01*
X114527600Y-139546600D02*
X113411000Y-138430000D01*
X114527600Y-143387600D02*
X114527600Y-139546600D01*
D25*
X102750000Y-141471000D02*
X102743000Y-141478000D01*
X102750000Y-131610000D02*
X102750000Y-141471000D01*
D24*
X114527600Y-146379200D02*
X114527600Y-143387600D01*
D26*
X148470000Y-85890000D02*
X160231500Y-97651500D01*
D25*
X160231500Y-106341500D02*
X163130000Y-109240000D01*
D26*
X160231500Y-97651500D02*
X160231500Y-106341500D01*
D25*
X134680000Y-109240000D02*
X133938000Y-109982000D01*
X152970000Y-109240000D02*
X134680000Y-109240000D01*
X163130000Y-109240000D02*
X152970000Y-109240000D01*
X148470000Y-104740000D02*
X152970000Y-109240000D01*
X148470000Y-85890000D02*
X148470000Y-104740000D01*
X129540000Y-104820000D02*
X148470000Y-85890000D01*
X129540000Y-114380000D02*
X129540000Y-104820000D01*
D24*
X134239000Y-135763000D02*
X128397000Y-135763000D01*
X138684000Y-131318000D02*
X134493000Y-135509000D01*
X134493000Y-135509000D02*
X134239000Y-135763000D01*
X141996800Y-131318000D02*
X138684000Y-131318000D01*
X128524000Y-131318000D02*
X141996800Y-131318000D01*
X141996800Y-131318000D02*
X143388400Y-132709600D01*
X124333000Y-135509000D02*
X128524000Y-131318000D01*
X124333000Y-140716000D02*
X124333000Y-135509000D01*
D21*
X122428000Y-140462000D02*
X122428000Y-142240000D01*
X122428000Y-142240000D02*
X123698000Y-143510000D01*
X122682000Y-140716000D02*
X122428000Y-140462000D01*
X124333000Y-140716000D02*
X122682000Y-140716000D01*
D22*
X124587000Y-140716000D02*
X124333000Y-140716000D01*
X126492000Y-138811000D02*
X124587000Y-140716000D01*
X126619000Y-138684000D02*
X126492000Y-138811000D01*
X130683000Y-138684000D02*
X126619000Y-138684000D01*
X134493000Y-138684000D02*
X130683000Y-138684000D01*
X134874000Y-138303000D02*
X134493000Y-138684000D01*
X139446000Y-136652000D02*
X136525000Y-136652000D01*
X136525000Y-136652000D02*
X134874000Y-138303000D01*
D27*
X139446000Y-138176000D02*
X139446000Y-136652000D01*
X137287000Y-140335000D02*
X139446000Y-138176000D01*
X126111000Y-140335000D02*
X137287000Y-140335000D01*
X123698000Y-143510000D02*
X123698000Y-142748000D01*
X124968000Y-144780000D02*
X123698000Y-143510000D01*
X124968000Y-145796000D02*
X124968000Y-144780000D01*
X123698000Y-142748000D02*
X126111000Y-140335000D01*
D23*
X129540000Y-114380000D02*
X133938000Y-109982000D01*
D28*
X143388400Y-132709600D02*
X139446000Y-136652000D01*
X152970000Y-132709600D02*
X143388400Y-132709600D01*
D29*
X139446000Y-141732000D02*
X139446000Y-136652000D01*
D28*
X163130000Y-132709600D02*
X152970000Y-132709600D01*
D26*
X114070000Y-64890000D02*
X120770000Y-71590000D01*
X96050000Y-64890000D02*
X114070000Y-64890000D01*
D30*
X124968000Y-143764000D02*
X124968000Y-144780000D01*
X127000000Y-141732000D02*
X124968000Y-143764000D01*
X139446000Y-141732000D02*
X127000000Y-141732000D01*
D26*
X75050000Y-99290000D02*
X81750000Y-92590000D01*
X75050000Y-117310000D02*
X75050000Y-99290000D01*
%TA.AperFunction,Conductor*%
G36*
X171645621Y-50820502D02*
G01*
X171692114Y-50874158D01*
X171703500Y-50926500D01*
X171703500Y-155321500D01*
X171683498Y-155389621D01*
X171629842Y-155436114D01*
X171577500Y-155447500D01*
X64642500Y-155447500D01*
X64574379Y-155427498D01*
X64527886Y-155373842D01*
X64516500Y-155321500D01*
X64516500Y-152378393D01*
X65500803Y-152378393D01*
X65501210Y-152385458D01*
X65516960Y-152658601D01*
X65517785Y-152662806D01*
X65517786Y-152662814D01*
X65528711Y-152718497D01*
X65570996Y-152934024D01*
X65572383Y-152938074D01*
X65572384Y-152938079D01*
X65660522Y-153195509D01*
X65661911Y-153199565D01*
X65702048Y-153279368D01*
X65739781Y-153354392D01*
X65788022Y-153450310D01*
X65790448Y-153453839D01*
X65790451Y-153453845D01*
X65899012Y-153611801D01*
X65946997Y-153681620D01*
X66135894Y-153889215D01*
X66139183Y-153891965D01*
X66347925Y-154066501D01*
X66347930Y-154066505D01*
X66351217Y-154069253D01*
X66406424Y-154103884D01*
X66585341Y-154216119D01*
X66585345Y-154216121D01*
X66588981Y-154218402D01*
X66844788Y-154333903D01*
X66848907Y-154335123D01*
X67109790Y-154412401D01*
X67109795Y-154412402D01*
X67113903Y-154413619D01*
X67118137Y-154414267D01*
X67118142Y-154414268D01*
X67362514Y-154451662D01*
X67391347Y-154456074D01*
X67534292Y-154458319D01*
X67667694Y-154460415D01*
X67667700Y-154460415D01*
X67671985Y-154460482D01*
X67950626Y-154426763D01*
X68222112Y-154355540D01*
X68226072Y-154353900D01*
X68226077Y-154353898D01*
X68365600Y-154296105D01*
X68481420Y-154248131D01*
X68532296Y-154218402D01*
X68720054Y-154108685D01*
X68720055Y-154108685D01*
X68723752Y-154106524D01*
X68944624Y-153933338D01*
X69139948Y-153731779D01*
X69142481Y-153728331D01*
X69142485Y-153728326D01*
X69303572Y-153509032D01*
X69306110Y-153505577D01*
X69388197Y-153354392D01*
X69437986Y-153262692D01*
X69437987Y-153262690D01*
X69440036Y-153258916D01*
X69539247Y-152996362D01*
X69601907Y-152722773D01*
X69610121Y-152630743D01*
X69626637Y-152445677D01*
X69626637Y-152445675D01*
X69626857Y-152443211D01*
X69627310Y-152400000D01*
X69625837Y-152378393D01*
X166592803Y-152378393D01*
X166593210Y-152385458D01*
X166608960Y-152658601D01*
X166609785Y-152662806D01*
X166609786Y-152662814D01*
X166620711Y-152718497D01*
X166662996Y-152934024D01*
X166664383Y-152938074D01*
X166664384Y-152938079D01*
X166752522Y-153195509D01*
X166753911Y-153199565D01*
X166794048Y-153279368D01*
X166831781Y-153354392D01*
X166880022Y-153450310D01*
X166882448Y-153453839D01*
X166882451Y-153453845D01*
X166991012Y-153611801D01*
X167038997Y-153681620D01*
X167227894Y-153889215D01*
X167231183Y-153891965D01*
X167439925Y-154066501D01*
X167439930Y-154066505D01*
X167443217Y-154069253D01*
X167498424Y-154103884D01*
X167677341Y-154216119D01*
X167677345Y-154216121D01*
X167680981Y-154218402D01*
X167936788Y-154333903D01*
X167940907Y-154335123D01*
X168201790Y-154412401D01*
X168201795Y-154412402D01*
X168205903Y-154413619D01*
X168210137Y-154414267D01*
X168210142Y-154414268D01*
X168454514Y-154451662D01*
X168483347Y-154456074D01*
X168626292Y-154458319D01*
X168759694Y-154460415D01*
X168759700Y-154460415D01*
X168763985Y-154460482D01*
X169042626Y-154426763D01*
X169314112Y-154355540D01*
X169318072Y-154353900D01*
X169318077Y-154353898D01*
X169457600Y-154296105D01*
X169573420Y-154248131D01*
X169624296Y-154218402D01*
X169812054Y-154108685D01*
X169812055Y-154108685D01*
X169815752Y-154106524D01*
X170036624Y-153933338D01*
X170231948Y-153731779D01*
X170234481Y-153728331D01*
X170234485Y-153728326D01*
X170395572Y-153509032D01*
X170398110Y-153505577D01*
X170480197Y-153354392D01*
X170529986Y-153262692D01*
X170529987Y-153262690D01*
X170532036Y-153258916D01*
X170631247Y-152996362D01*
X170693907Y-152722773D01*
X170702121Y-152630743D01*
X170718637Y-152445677D01*
X170718637Y-152445675D01*
X170718857Y-152443211D01*
X170719310Y-152400000D01*
X170700220Y-152119977D01*
X170694923Y-152094396D01*
X170644172Y-151849332D01*
X170643303Y-151845135D01*
X170549612Y-151580561D01*
X170539401Y-151560776D01*
X170422847Y-151334957D01*
X170422847Y-151334956D01*
X170420882Y-151331150D01*
X170410595Y-151316512D01*
X170261956Y-151105022D01*
X170259493Y-151101517D01*
X170068433Y-150895912D01*
X169851237Y-150718139D01*
X169611923Y-150571487D01*
X169589348Y-150561577D01*
X169358853Y-150460397D01*
X169354921Y-150458671D01*
X169335519Y-150453144D01*
X169089114Y-150382954D01*
X169089115Y-150382954D01*
X169084986Y-150381778D01*
X168879217Y-150352493D01*
X168811365Y-150342836D01*
X168811363Y-150342836D01*
X168807113Y-150342231D01*
X168802824Y-150342209D01*
X168802817Y-150342208D01*
X168530730Y-150340783D01*
X168530723Y-150340783D01*
X168526444Y-150340761D01*
X168522199Y-150341320D01*
X168522197Y-150341320D01*
X168458813Y-150349665D01*
X168248172Y-150377397D01*
X167977446Y-150451459D01*
X167719277Y-150561577D01*
X167573721Y-150648691D01*
X167482123Y-150703511D01*
X167482119Y-150703514D01*
X167478441Y-150705715D01*
X167259395Y-150881204D01*
X167256451Y-150884306D01*
X167256447Y-150884310D01*
X167069142Y-151081688D01*
X167066192Y-151084797D01*
X166902408Y-151312727D01*
X166771073Y-151560776D01*
X166769601Y-151564799D01*
X166769599Y-151564803D01*
X166762354Y-151584602D01*
X166674616Y-151824355D01*
X166673703Y-151828541D01*
X166673703Y-151828542D01*
X166635641Y-152003115D01*
X166614825Y-152098585D01*
X166592803Y-152378393D01*
X69625837Y-152378393D01*
X69608220Y-152119977D01*
X69602923Y-152094396D01*
X69552172Y-151849332D01*
X69551303Y-151845135D01*
X69457612Y-151580561D01*
X69447401Y-151560776D01*
X69330847Y-151334957D01*
X69330847Y-151334956D01*
X69328882Y-151331150D01*
X69318595Y-151316512D01*
X69169956Y-151105022D01*
X69167493Y-151101517D01*
X68976433Y-150895912D01*
X68759237Y-150718139D01*
X68519923Y-150571487D01*
X68497348Y-150561577D01*
X68266853Y-150460397D01*
X68262921Y-150458671D01*
X68243519Y-150453144D01*
X67997114Y-150382954D01*
X67997115Y-150382954D01*
X67992986Y-150381778D01*
X67787217Y-150352493D01*
X67719365Y-150342836D01*
X67719363Y-150342836D01*
X67715113Y-150342231D01*
X67710824Y-150342209D01*
X67710817Y-150342208D01*
X67438730Y-150340783D01*
X67438723Y-150340783D01*
X67434444Y-150340761D01*
X67430199Y-150341320D01*
X67430197Y-150341320D01*
X67366813Y-150349665D01*
X67156172Y-150377397D01*
X66885446Y-150451459D01*
X66627277Y-150561577D01*
X66481721Y-150648691D01*
X66390123Y-150703511D01*
X66390119Y-150703514D01*
X66386441Y-150705715D01*
X66167395Y-150881204D01*
X66164451Y-150884306D01*
X66164447Y-150884310D01*
X65977142Y-151081688D01*
X65974192Y-151084797D01*
X65810408Y-151312727D01*
X65679073Y-151560776D01*
X65677601Y-151564799D01*
X65677599Y-151564803D01*
X65670354Y-151584602D01*
X65582616Y-151824355D01*
X65581703Y-151828541D01*
X65581703Y-151828542D01*
X65543641Y-152003115D01*
X65522825Y-152098585D01*
X65500803Y-152378393D01*
X64516500Y-152378393D01*
X64516500Y-141338145D01*
X94730729Y-141338145D01*
X94740490Y-141897394D01*
X94740682Y-141899586D01*
X94787685Y-142436833D01*
X94789239Y-142454599D01*
X94824501Y-142677236D01*
X94862590Y-142917717D01*
X94876738Y-143007046D01*
X94877229Y-143009171D01*
X94877229Y-143009173D01*
X94993304Y-143511947D01*
X95002561Y-143552045D01*
X95003205Y-143554151D01*
X95003207Y-143554159D01*
X95157965Y-144060348D01*
X95166094Y-144086938D01*
X95210289Y-144202068D01*
X95353719Y-144575714D01*
X95366542Y-144609120D01*
X95367467Y-144611104D01*
X95367468Y-144611106D01*
X95584801Y-145077180D01*
X95602926Y-145116050D01*
X95603992Y-145117973D01*
X95603996Y-145117981D01*
X95639215Y-145181517D01*
X95874097Y-145605254D01*
X95875285Y-145607084D01*
X95875292Y-145607095D01*
X96170792Y-146062124D01*
X96178732Y-146074350D01*
X96515347Y-146521054D01*
X96882303Y-146943188D01*
X97277812Y-147338697D01*
X97699946Y-147705653D01*
X98146650Y-148042268D01*
X98148492Y-148043464D01*
X98148496Y-148043467D01*
X98613905Y-148345708D01*
X98613916Y-148345715D01*
X98615746Y-148346903D01*
X98937449Y-148525227D01*
X99103019Y-148617004D01*
X99103027Y-148617008D01*
X99104950Y-148618074D01*
X99106940Y-148619002D01*
X99106946Y-148619005D01*
X99566701Y-148833391D01*
X99611880Y-148854458D01*
X99613921Y-148855242D01*
X99613927Y-148855244D01*
X99872971Y-148954682D01*
X100134062Y-149054906D01*
X100136155Y-149055546D01*
X100136164Y-149055549D01*
X100666841Y-149217793D01*
X100666849Y-149217795D01*
X100668955Y-149218439D01*
X100671091Y-149218932D01*
X100671098Y-149218934D01*
X101211827Y-149343771D01*
X101213954Y-149344262D01*
X101216101Y-149344602D01*
X101216111Y-149344604D01*
X101510212Y-149391185D01*
X101766401Y-149431761D01*
X101768556Y-149431950D01*
X101768568Y-149431951D01*
X102126121Y-149463232D01*
X102323606Y-149480510D01*
X102882855Y-149490271D01*
X103441422Y-149460998D01*
X103996586Y-149392832D01*
X104045141Y-149383394D01*
X104150483Y-149362918D01*
X104221825Y-149369818D01*
X104241840Y-149377925D01*
X104241846Y-149377927D01*
X104244443Y-149378979D01*
X104354947Y-149412657D01*
X104359949Y-149414298D01*
X104466264Y-149451633D01*
X104466274Y-149451636D01*
X104468925Y-149452567D01*
X104471639Y-149453256D01*
X104471648Y-149453259D01*
X104567838Y-149477688D01*
X104573532Y-149479277D01*
X104671182Y-149509038D01*
X104685466Y-149512035D01*
X104784220Y-149532756D01*
X104789360Y-149533948D01*
X104898602Y-149561692D01*
X104898608Y-149561693D01*
X104901316Y-149562381D01*
X104904062Y-149562823D01*
X104904075Y-149562826D01*
X104975476Y-149574326D01*
X105002084Y-149578612D01*
X105007890Y-149579688D01*
X105107791Y-149600649D01*
X105110550Y-149600976D01*
X105110559Y-149600977D01*
X105177562Y-149608907D01*
X105222518Y-149614228D01*
X105227708Y-149614952D01*
X105341757Y-149633322D01*
X105344561Y-149633521D01*
X105344565Y-149633521D01*
X105412868Y-149638357D01*
X105443542Y-149640528D01*
X105449444Y-149641085D01*
X105484128Y-149645191D01*
X105548035Y-149652755D01*
X105548041Y-149652755D01*
X105550817Y-149653084D01*
X105553613Y-149653165D01*
X105553619Y-149653165D01*
X105599645Y-149654491D01*
X105666312Y-149656411D01*
X105671540Y-149656672D01*
X105711080Y-149659471D01*
X105737508Y-149661343D01*
X105737517Y-149661343D01*
X105739730Y-149661500D01*
X105841145Y-149661500D01*
X105844773Y-149661552D01*
X105993964Y-149665850D01*
X105993970Y-149665850D01*
X105996750Y-149665930D01*
X106066451Y-149661728D01*
X106074033Y-149661500D01*
X113039304Y-149661500D01*
X113046663Y-149661818D01*
X113046664Y-149661791D01*
X113049469Y-149661909D01*
X113052254Y-149662150D01*
X113055039Y-149662143D01*
X113055046Y-149662143D01*
X113300733Y-149661500D01*
X113375550Y-149661500D01*
X113377584Y-149661409D01*
X113382840Y-149661285D01*
X113498370Y-149660983D01*
X113583448Y-149653165D01*
X113600001Y-149651644D01*
X113605926Y-149651240D01*
X113705071Y-149646825D01*
X113705073Y-149646825D01*
X113707876Y-149646700D01*
X113710660Y-149646326D01*
X113710672Y-149646325D01*
X113822375Y-149631321D01*
X113827601Y-149630730D01*
X113895136Y-149624525D01*
X113939822Y-149620419D01*
X113939828Y-149620418D01*
X113942616Y-149620162D01*
X114043025Y-149601824D01*
X114048882Y-149600898D01*
X114063403Y-149598947D01*
X114147242Y-149587686D01*
X114147252Y-149587684D01*
X114150023Y-149587312D01*
X114152747Y-149586696D01*
X114152756Y-149586694D01*
X114262677Y-149561821D01*
X114267848Y-149560764D01*
X114331084Y-149549215D01*
X114381475Y-149540012D01*
X114479859Y-149512821D01*
X114485590Y-149511381D01*
X114585140Y-149488855D01*
X114587794Y-149488001D01*
X114587799Y-149487999D01*
X114695092Y-149453448D01*
X114700147Y-149451936D01*
X114717337Y-149447185D01*
X114811472Y-149421167D01*
X114907054Y-149385335D01*
X114912608Y-149383401D01*
X114992007Y-149357833D01*
X115003775Y-149354663D01*
X115338017Y-149281786D01*
X115341444Y-149280613D01*
X115341450Y-149280611D01*
X115662835Y-149170576D01*
X115666261Y-149169403D01*
X115979412Y-149020037D01*
X116273321Y-148835668D01*
X116276157Y-148833396D01*
X116276164Y-148833391D01*
X116541255Y-148621013D01*
X116544091Y-148618741D01*
X116788134Y-148372129D01*
X117002214Y-148099102D01*
X117108704Y-147925327D01*
X117157481Y-147845731D01*
X117175818Y-147822471D01*
X117288155Y-147710134D01*
X133784500Y-147710134D01*
X133791255Y-147772316D01*
X133842385Y-147908705D01*
X133929739Y-148025261D01*
X134046295Y-148112615D01*
X134182684Y-148163745D01*
X134244866Y-148170500D01*
X136041134Y-148170500D01*
X136103316Y-148163745D01*
X136239705Y-148112615D01*
X136356261Y-148025261D01*
X136443615Y-147908705D01*
X136467223Y-147845731D01*
X136487598Y-147791382D01*
X136530240Y-147734618D01*
X136596802Y-147709918D01*
X136666150Y-147725126D01*
X136700817Y-147753114D01*
X136729250Y-147785938D01*
X136901126Y-147928632D01*
X137094000Y-148041338D01*
X137302692Y-148121030D01*
X137307760Y-148122061D01*
X137307763Y-148122062D01*
X137415017Y-148143883D01*
X137521597Y-148165567D01*
X137526772Y-148165757D01*
X137526774Y-148165757D01*
X137739673Y-148173564D01*
X137739677Y-148173564D01*
X137744837Y-148173753D01*
X137749957Y-148173097D01*
X137749959Y-148173097D01*
X137961288Y-148146025D01*
X137961289Y-148146025D01*
X137966416Y-148145368D01*
X137971366Y-148143883D01*
X138175429Y-148082661D01*
X138175434Y-148082659D01*
X138180384Y-148081174D01*
X138380994Y-147982896D01*
X138562860Y-147853173D01*
X138593670Y-147822471D01*
X138709569Y-147706976D01*
X138721096Y-147695489D01*
X138752807Y-147651359D01*
X138851453Y-147514077D01*
X138852776Y-147515028D01*
X138899645Y-147471857D01*
X138969580Y-147459625D01*
X139035026Y-147487144D01*
X139062875Y-147518994D01*
X139122987Y-147617088D01*
X139269250Y-147785938D01*
X139441126Y-147928632D01*
X139634000Y-148041338D01*
X139842692Y-148121030D01*
X139847760Y-148122061D01*
X139847763Y-148122062D01*
X139955017Y-148143883D01*
X140061597Y-148165567D01*
X140066772Y-148165757D01*
X140066774Y-148165757D01*
X140279673Y-148173564D01*
X140279677Y-148173564D01*
X140284837Y-148173753D01*
X140289957Y-148173097D01*
X140289959Y-148173097D01*
X140501288Y-148146025D01*
X140501289Y-148146025D01*
X140506416Y-148145368D01*
X140511366Y-148143883D01*
X140715429Y-148082661D01*
X140715434Y-148082659D01*
X140720384Y-148081174D01*
X140920994Y-147982896D01*
X141102860Y-147853173D01*
X141133670Y-147822471D01*
X141249569Y-147706976D01*
X141261096Y-147695489D01*
X141292807Y-147651359D01*
X141388435Y-147518277D01*
X141391453Y-147514077D01*
X141412320Y-147471857D01*
X141488136Y-147318453D01*
X141488137Y-147318451D01*
X141490430Y-147313811D01*
X141548493Y-147122705D01*
X141553865Y-147105023D01*
X141553865Y-147105021D01*
X141555370Y-147100069D01*
X141584529Y-146878590D01*
X141584809Y-146867124D01*
X141586074Y-146815365D01*
X141586074Y-146815361D01*
X141586156Y-146812000D01*
X141567852Y-146589361D01*
X141567250Y-146586966D01*
X145480257Y-146586966D01*
X145510565Y-146721446D01*
X145513645Y-146731275D01*
X145593770Y-146928603D01*
X145598413Y-146937794D01*
X145709694Y-147119388D01*
X145715777Y-147127699D01*
X145855213Y-147288667D01*
X145862580Y-147295883D01*
X146026434Y-147431916D01*
X146034881Y-147437831D01*
X146218756Y-147545279D01*
X146228042Y-147549729D01*
X146427001Y-147625703D01*
X146436899Y-147628579D01*
X146540250Y-147649606D01*
X146554299Y-147648410D01*
X146558000Y-147638065D01*
X146558000Y-147637517D01*
X147066000Y-147637517D01*
X147070064Y-147651359D01*
X147083478Y-147653393D01*
X147090184Y-147652534D01*
X147100262Y-147650392D01*
X147304255Y-147589191D01*
X147313842Y-147585433D01*
X147505095Y-147491739D01*
X147513945Y-147486464D01*
X147687328Y-147362792D01*
X147695200Y-147356139D01*
X147846052Y-147205812D01*
X147852730Y-147197965D01*
X147977003Y-147025020D01*
X147982313Y-147016183D01*
X148076670Y-146825267D01*
X148080469Y-146815672D01*
X148142377Y-146611910D01*
X148144555Y-146601837D01*
X148145986Y-146590962D01*
X148143775Y-146576778D01*
X148130617Y-146573000D01*
X147084115Y-146573000D01*
X147068876Y-146577475D01*
X147067671Y-146578865D01*
X147066000Y-146586548D01*
X147066000Y-147637517D01*
X146558000Y-147637517D01*
X146558000Y-146591115D01*
X146553525Y-146575876D01*
X146552135Y-146574671D01*
X146544452Y-146573000D01*
X145495225Y-146573000D01*
X145481694Y-146576973D01*
X145480257Y-146586966D01*
X141567250Y-146586966D01*
X141513431Y-146372702D01*
X141424354Y-146167840D01*
X141350179Y-146053183D01*
X145476389Y-146053183D01*
X145477912Y-146061607D01*
X145490292Y-146065000D01*
X146539885Y-146065000D01*
X146555124Y-146060525D01*
X146556329Y-146059135D01*
X146558000Y-146051452D01*
X146558000Y-146046885D01*
X147066000Y-146046885D01*
X147070475Y-146062124D01*
X147071865Y-146063329D01*
X147079548Y-146065000D01*
X148130344Y-146065000D01*
X148143875Y-146061027D01*
X148145180Y-146051947D01*
X148103214Y-145884875D01*
X148099894Y-145875124D01*
X148014972Y-145679814D01*
X148010105Y-145670739D01*
X147894426Y-145491926D01*
X147888136Y-145483757D01*
X147744806Y-145326240D01*
X147737273Y-145319215D01*
X147570139Y-145187222D01*
X147561552Y-145181517D01*
X147524116Y-145160851D01*
X147474146Y-145110419D01*
X147459374Y-145040976D01*
X147484490Y-144974571D01*
X147511842Y-144947964D01*
X147687327Y-144822792D01*
X147695200Y-144816139D01*
X147846052Y-144665812D01*
X147852730Y-144657965D01*
X147918997Y-144565744D01*
X151639128Y-144565744D01*
X151646182Y-144575714D01*
X151695298Y-144616782D01*
X151702240Y-144621825D01*
X151944212Y-144773614D01*
X151951763Y-144777663D01*
X152212112Y-144895214D01*
X152220143Y-144898201D01*
X152494034Y-144979332D01*
X152502386Y-144981199D01*
X152784760Y-145024408D01*
X152793293Y-145025124D01*
X153078914Y-145029612D01*
X153087465Y-145029163D01*
X153371056Y-144994845D01*
X153379457Y-144993243D01*
X153655780Y-144920751D01*
X153663882Y-144918024D01*
X153927805Y-144808703D01*
X153935467Y-144804900D01*
X154182103Y-144660777D01*
X154189190Y-144655961D01*
X154291497Y-144575743D01*
X154298639Y-144565744D01*
X161799128Y-144565744D01*
X161806182Y-144575714D01*
X161855298Y-144616782D01*
X161862240Y-144621825D01*
X162104212Y-144773614D01*
X162111763Y-144777663D01*
X162372112Y-144895214D01*
X162380143Y-144898201D01*
X162654034Y-144979332D01*
X162662386Y-144981199D01*
X162944760Y-145024408D01*
X162953293Y-145025124D01*
X163238914Y-145029612D01*
X163247465Y-145029163D01*
X163531056Y-144994845D01*
X163539457Y-144993243D01*
X163815780Y-144920751D01*
X163823882Y-144918024D01*
X164087805Y-144808703D01*
X164095467Y-144804900D01*
X164342103Y-144660777D01*
X164349190Y-144655961D01*
X164451497Y-144575743D01*
X164459968Y-144563883D01*
X164453452Y-144552262D01*
X163142812Y-143241622D01*
X163128868Y-143234008D01*
X163127035Y-143234139D01*
X163120420Y-143238390D01*
X161806421Y-144552389D01*
X161799128Y-144565744D01*
X154298639Y-144565744D01*
X154299968Y-144563883D01*
X154293452Y-144552262D01*
X152982812Y-143241622D01*
X152968868Y-143234008D01*
X152967035Y-143234139D01*
X152960420Y-143238390D01*
X151646421Y-144552389D01*
X151639128Y-144565744D01*
X147918997Y-144565744D01*
X147977003Y-144485020D01*
X147982313Y-144476183D01*
X148076670Y-144285267D01*
X148080469Y-144275672D01*
X148142377Y-144071910D01*
X148144555Y-144061837D01*
X148145986Y-144050962D01*
X148143775Y-144036778D01*
X148130617Y-144033000D01*
X147084115Y-144033000D01*
X147068876Y-144037475D01*
X147067671Y-144038865D01*
X147066000Y-144046548D01*
X147066000Y-146046885D01*
X146558000Y-146046885D01*
X146558000Y-144051115D01*
X146553525Y-144035876D01*
X146552135Y-144034671D01*
X146544452Y-144033000D01*
X145495225Y-144033000D01*
X145481694Y-144036973D01*
X145480257Y-144046966D01*
X145510565Y-144181446D01*
X145513645Y-144191275D01*
X145593770Y-144388603D01*
X145598413Y-144397794D01*
X145709694Y-144579388D01*
X145715777Y-144587699D01*
X145855213Y-144748667D01*
X145862580Y-144755883D01*
X146026434Y-144891916D01*
X146034881Y-144897831D01*
X146104479Y-144938501D01*
X146153203Y-144990140D01*
X146166274Y-145059923D01*
X146139543Y-145125694D01*
X146099087Y-145159053D01*
X146090462Y-145163542D01*
X146081738Y-145169036D01*
X145911433Y-145296905D01*
X145903726Y-145303748D01*
X145756590Y-145457717D01*
X145750104Y-145465727D01*
X145630098Y-145641649D01*
X145625000Y-145650623D01*
X145535338Y-145843783D01*
X145531775Y-145853470D01*
X145476389Y-146053183D01*
X141350179Y-146053183D01*
X141305822Y-145984617D01*
X141305820Y-145984614D01*
X141303014Y-145980277D01*
X141152670Y-145815051D01*
X141148619Y-145811852D01*
X141148615Y-145811848D01*
X140981414Y-145679800D01*
X140981410Y-145679798D01*
X140977359Y-145676598D01*
X140966746Y-145670739D01*
X140851454Y-145607095D01*
X140781789Y-145568638D01*
X140776920Y-145566914D01*
X140776916Y-145566912D01*
X140576087Y-145495795D01*
X140576083Y-145495794D01*
X140571212Y-145494069D01*
X140566119Y-145493162D01*
X140566116Y-145493161D01*
X140356373Y-145455800D01*
X140356367Y-145455799D01*
X140351284Y-145454894D01*
X140277452Y-145453992D01*
X140133081Y-145452228D01*
X140133079Y-145452228D01*
X140127911Y-145452165D01*
X139907091Y-145485955D01*
X139694756Y-145555357D01*
X139496607Y-145658507D01*
X139492474Y-145661610D01*
X139492471Y-145661612D01*
X139322100Y-145789530D01*
X139317965Y-145792635D01*
X139314393Y-145796373D01*
X139206729Y-145909037D01*
X139163629Y-145954138D01*
X139056201Y-146111621D01*
X139001293Y-146156621D01*
X138930768Y-146164792D01*
X138867021Y-146133538D01*
X138846324Y-146109054D01*
X138765822Y-145984617D01*
X138765820Y-145984614D01*
X138763014Y-145980277D01*
X138612670Y-145815051D01*
X138608619Y-145811852D01*
X138608615Y-145811848D01*
X138441414Y-145679800D01*
X138441410Y-145679798D01*
X138437359Y-145676598D01*
X138426746Y-145670739D01*
X138311454Y-145607095D01*
X138241789Y-145568638D01*
X138236920Y-145566914D01*
X138236916Y-145566912D01*
X138036087Y-145495795D01*
X138036083Y-145495794D01*
X138031212Y-145494069D01*
X138026119Y-145493162D01*
X138026116Y-145493161D01*
X137816373Y-145455800D01*
X137816367Y-145455799D01*
X137811284Y-145454894D01*
X137737452Y-145453992D01*
X137593081Y-145452228D01*
X137593079Y-145452228D01*
X137587911Y-145452165D01*
X137367091Y-145485955D01*
X137154756Y-145555357D01*
X136956607Y-145658507D01*
X136952474Y-145661610D01*
X136952471Y-145661612D01*
X136782100Y-145789530D01*
X136777965Y-145792635D01*
X136702499Y-145871606D01*
X136697283Y-145877064D01*
X136635759Y-145912494D01*
X136564846Y-145909037D01*
X136507060Y-145867791D01*
X136488207Y-145834243D01*
X136446767Y-145723703D01*
X136443615Y-145715295D01*
X136356261Y-145598739D01*
X136239705Y-145511385D01*
X136103316Y-145460255D01*
X136041134Y-145453500D01*
X134244866Y-145453500D01*
X134182684Y-145460255D01*
X134046295Y-145511385D01*
X133929739Y-145598739D01*
X133842385Y-145715295D01*
X133791255Y-145851684D01*
X133784500Y-145913866D01*
X133784500Y-147710134D01*
X117288155Y-147710134D01*
X118149295Y-146848994D01*
X118373820Y-146603538D01*
X118438111Y-146519297D01*
X118642767Y-146251133D01*
X118642769Y-146251130D01*
X118644471Y-146248900D01*
X118882526Y-145871606D01*
X118917553Y-145803304D01*
X118921299Y-145796000D01*
X120834588Y-145796000D01*
X120854206Y-146045265D01*
X120855360Y-146050072D01*
X120855361Y-146050078D01*
X120882902Y-146164792D01*
X120912575Y-146288391D01*
X121008260Y-146519394D01*
X121138903Y-146732584D01*
X121301288Y-146922712D01*
X121491416Y-147085097D01*
X121704606Y-147215740D01*
X121709176Y-147217633D01*
X121709180Y-147217635D01*
X121898087Y-147295883D01*
X121935609Y-147311425D01*
X122019431Y-147331549D01*
X122173922Y-147368639D01*
X122173928Y-147368640D01*
X122178735Y-147369794D01*
X122428000Y-147389412D01*
X122677265Y-147369794D01*
X122682072Y-147368640D01*
X122682078Y-147368639D01*
X122836569Y-147331549D01*
X122920391Y-147311425D01*
X122957913Y-147295883D01*
X123146820Y-147217635D01*
X123146824Y-147217633D01*
X123151394Y-147215740D01*
X123364584Y-147085097D01*
X123554712Y-146922712D01*
X123602189Y-146867124D01*
X123661640Y-146828315D01*
X123732635Y-146827809D01*
X123793811Y-146867124D01*
X123841288Y-146922712D01*
X124031416Y-147085097D01*
X124244606Y-147215740D01*
X124249176Y-147217633D01*
X124249180Y-147217635D01*
X124438087Y-147295883D01*
X124475609Y-147311425D01*
X124559431Y-147331549D01*
X124713922Y-147368639D01*
X124713928Y-147368640D01*
X124718735Y-147369794D01*
X124968000Y-147389412D01*
X125217265Y-147369794D01*
X125222072Y-147368640D01*
X125222078Y-147368639D01*
X125376569Y-147331549D01*
X125460391Y-147311425D01*
X125497913Y-147295883D01*
X125686820Y-147217635D01*
X125686824Y-147217633D01*
X125691394Y-147215740D01*
X125837316Y-147126319D01*
X125905850Y-147107781D01*
X125973526Y-147129237D01*
X126003977Y-147158187D01*
X126064739Y-147239261D01*
X126181295Y-147326615D01*
X126317684Y-147377745D01*
X126379866Y-147384500D01*
X128636134Y-147384500D01*
X128698316Y-147377745D01*
X128834705Y-147326615D01*
X128951261Y-147239261D01*
X129038615Y-147122705D01*
X129089745Y-146986316D01*
X129096500Y-146924134D01*
X129096500Y-144667866D01*
X129089745Y-144605684D01*
X129038615Y-144469295D01*
X128951261Y-144352739D01*
X128834705Y-144265385D01*
X128698316Y-144214255D01*
X128636134Y-144207500D01*
X127315585Y-144207500D01*
X127247464Y-144187498D01*
X127200971Y-144133842D01*
X127190867Y-144063568D01*
X127220361Y-143998988D01*
X127226490Y-143992405D01*
X127691490Y-143527405D01*
X127753802Y-143493379D01*
X127780585Y-143490500D01*
X138441050Y-143490500D01*
X138504049Y-143507381D01*
X138563381Y-143541636D01*
X138823824Y-143646862D01*
X138828097Y-143647927D01*
X138828099Y-143647928D01*
X139092107Y-143713753D01*
X139092112Y-143713754D01*
X139096376Y-143714817D01*
X139100744Y-143715276D01*
X139100749Y-143715277D01*
X139371364Y-143743719D01*
X139371367Y-143743719D01*
X139375733Y-143744178D01*
X139380121Y-143744025D01*
X139380127Y-143744025D01*
X139652061Y-143734529D01*
X139652067Y-143734528D01*
X139656458Y-143734375D01*
X139660781Y-143733613D01*
X139660788Y-143733612D01*
X139836494Y-143702630D01*
X139933087Y-143685598D01*
X140200235Y-143598797D01*
X140204188Y-143596869D01*
X140204193Y-143596867D01*
X140317432Y-143541636D01*
X140452702Y-143475660D01*
X140456341Y-143473205D01*
X140456347Y-143473202D01*
X140646599Y-143344875D01*
X140685576Y-143318585D01*
X140699477Y-143306069D01*
X140891060Y-143133566D01*
X140894322Y-143130629D01*
X141074879Y-142915450D01*
X141102822Y-142870732D01*
X141204116Y-142708627D01*
X141257177Y-142661457D01*
X141327317Y-142650462D01*
X141380972Y-142670632D01*
X141446166Y-142714193D01*
X141456276Y-142719683D01*
X141634203Y-142796126D01*
X141645135Y-142799678D01*
X141834004Y-142842414D01*
X141845418Y-142843917D01*
X142038915Y-142851519D01*
X142050397Y-142850917D01*
X142242044Y-142823130D01*
X142253227Y-142820446D01*
X142436599Y-142758199D01*
X142447102Y-142753523D01*
X142560278Y-142690142D01*
X142570140Y-142680067D01*
X142567185Y-142672395D01*
X141715885Y-141821095D01*
X141681859Y-141758783D01*
X141683694Y-141733132D01*
X142350408Y-141733132D01*
X142350539Y-141734965D01*
X142354790Y-141741580D01*
X142922480Y-142309270D01*
X142934860Y-142316030D01*
X142941440Y-142311104D01*
X143007523Y-142193102D01*
X143012199Y-142182599D01*
X143028809Y-142133669D01*
X145454001Y-142133669D01*
X145454371Y-142140490D01*
X145459895Y-142191352D01*
X145463521Y-142206604D01*
X145508676Y-142327054D01*
X145517214Y-142342649D01*
X145593715Y-142444724D01*
X145606276Y-142457285D01*
X145708351Y-142533786D01*
X145723946Y-142542324D01*
X145833337Y-142583333D01*
X145890101Y-142625975D01*
X145914801Y-142692536D01*
X145899594Y-142761885D01*
X145880201Y-142788366D01*
X145756590Y-142917717D01*
X145750104Y-142925727D01*
X145630098Y-143101649D01*
X145625000Y-143110623D01*
X145535338Y-143303783D01*
X145531775Y-143313470D01*
X145476389Y-143513183D01*
X145477912Y-143521607D01*
X145490292Y-143525000D01*
X146539885Y-143525000D01*
X146555124Y-143520525D01*
X146556329Y-143519135D01*
X146558000Y-143511452D01*
X146558000Y-143506885D01*
X147066000Y-143506885D01*
X147070475Y-143522124D01*
X147071865Y-143523329D01*
X147079548Y-143525000D01*
X148130344Y-143525000D01*
X148143875Y-143521027D01*
X148145180Y-143511947D01*
X148103214Y-143344875D01*
X148099894Y-143335124D01*
X148014972Y-143139814D01*
X148010105Y-143130739D01*
X147894426Y-142951926D01*
X147888136Y-142943757D01*
X147803941Y-142851229D01*
X150807323Y-142851229D01*
X150823766Y-143136414D01*
X150824839Y-143144913D01*
X150879837Y-143425236D01*
X150882048Y-143433488D01*
X150974581Y-143703757D01*
X150977896Y-143711642D01*
X151106251Y-143966847D01*
X151110608Y-143974213D01*
X151261474Y-144193724D01*
X151271727Y-144202068D01*
X151285468Y-144194922D01*
X152597978Y-142882412D01*
X152604356Y-142870732D01*
X153334408Y-142870732D01*
X153334539Y-142872565D01*
X153338790Y-142879180D01*
X154653033Y-144193423D01*
X154665242Y-144200090D01*
X154676742Y-144191400D01*
X154793777Y-144032075D01*
X154798364Y-144024847D01*
X154934667Y-143773809D01*
X154938235Y-143766015D01*
X155039205Y-143498806D01*
X155041682Y-143490600D01*
X155105454Y-143212158D01*
X155106794Y-143203697D01*
X155132349Y-142917364D01*
X155132595Y-142912425D01*
X155133017Y-142872085D01*
X155132874Y-142867119D01*
X155131791Y-142851229D01*
X160967323Y-142851229D01*
X160983766Y-143136414D01*
X160984839Y-143144913D01*
X161039837Y-143425236D01*
X161042048Y-143433488D01*
X161134581Y-143703757D01*
X161137896Y-143711642D01*
X161266251Y-143966847D01*
X161270608Y-143974213D01*
X161421474Y-144193724D01*
X161431727Y-144202068D01*
X161445468Y-144194922D01*
X162757978Y-142882412D01*
X162764356Y-142870732D01*
X163494408Y-142870732D01*
X163494539Y-142872565D01*
X163498790Y-142879180D01*
X164813033Y-144193423D01*
X164825242Y-144200090D01*
X164836742Y-144191400D01*
X164953777Y-144032075D01*
X164958364Y-144024847D01*
X165094667Y-143773809D01*
X165098235Y-143766015D01*
X165199205Y-143498806D01*
X165201682Y-143490600D01*
X165265454Y-143212158D01*
X165266794Y-143203697D01*
X165292349Y-142917364D01*
X165292595Y-142912425D01*
X165293017Y-142872085D01*
X165292874Y-142867119D01*
X165273322Y-142580318D01*
X165272161Y-142571844D01*
X165214231Y-142292112D01*
X165211932Y-142283877D01*
X165116574Y-142014593D01*
X165113177Y-142006743D01*
X164982155Y-141752892D01*
X164977727Y-141745580D01*
X164837701Y-141546346D01*
X164827180Y-141537966D01*
X164813792Y-141545018D01*
X163502022Y-142856788D01*
X163494408Y-142870732D01*
X162764356Y-142870732D01*
X162765592Y-142868468D01*
X162765461Y-142866635D01*
X162761210Y-142860020D01*
X161446334Y-141545144D01*
X161434323Y-141538585D01*
X161422585Y-141547553D01*
X161294151Y-141726287D01*
X161289636Y-141733568D01*
X161155973Y-141986014D01*
X161152487Y-141993842D01*
X161054318Y-142262099D01*
X161051929Y-142270322D01*
X160991074Y-142549430D01*
X160989825Y-142557885D01*
X160967412Y-142842678D01*
X160967323Y-142851229D01*
X155131791Y-142851229D01*
X155113322Y-142580318D01*
X155112161Y-142571844D01*
X155054231Y-142292112D01*
X155051932Y-142283877D01*
X154956574Y-142014593D01*
X154953177Y-142006743D01*
X154822155Y-141752892D01*
X154817727Y-141745580D01*
X154677701Y-141546346D01*
X154667180Y-141537966D01*
X154653792Y-141545018D01*
X153342022Y-142856788D01*
X153334408Y-142870732D01*
X152604356Y-142870732D01*
X152605592Y-142868468D01*
X152605461Y-142866635D01*
X152601210Y-142860020D01*
X151286334Y-141545144D01*
X151274323Y-141538585D01*
X151262585Y-141547553D01*
X151134151Y-141726287D01*
X151129636Y-141733568D01*
X150995973Y-141986014D01*
X150992487Y-141993842D01*
X150894318Y-142262099D01*
X150891929Y-142270322D01*
X150831074Y-142549430D01*
X150829825Y-142557885D01*
X150807412Y-142842678D01*
X150807323Y-142851229D01*
X147803941Y-142851229D01*
X147743931Y-142785279D01*
X147712879Y-142721433D01*
X147721273Y-142650934D01*
X147766450Y-142596166D01*
X147792894Y-142582497D01*
X147900054Y-142542324D01*
X147915649Y-142533786D01*
X148017724Y-142457285D01*
X148030285Y-142444724D01*
X148106786Y-142342649D01*
X148115324Y-142327054D01*
X148160478Y-142206606D01*
X148164105Y-142191351D01*
X148169631Y-142140486D01*
X148170000Y-142133672D01*
X148170000Y-141511115D01*
X148165525Y-141495876D01*
X148164135Y-141494671D01*
X148156452Y-141493000D01*
X147084115Y-141493000D01*
X147068876Y-141497475D01*
X147067671Y-141498865D01*
X147066000Y-141506548D01*
X147066000Y-143506885D01*
X146558000Y-143506885D01*
X146558000Y-141511115D01*
X146553525Y-141495876D01*
X146552135Y-141494671D01*
X146544452Y-141493000D01*
X145472116Y-141493000D01*
X145456877Y-141497475D01*
X145455672Y-141498865D01*
X145454001Y-141506548D01*
X145454001Y-142133669D01*
X143028809Y-142133669D01*
X143074446Y-141999227D01*
X143077130Y-141988044D01*
X143105213Y-141794357D01*
X143105843Y-141786975D01*
X143107186Y-141735704D01*
X143106943Y-141728305D01*
X143089036Y-141533419D01*
X143086938Y-141522098D01*
X143034377Y-141335732D01*
X143030252Y-141324985D01*
X142956480Y-141175389D01*
X151639872Y-141175389D01*
X151646267Y-141186657D01*
X152957188Y-142497578D01*
X152971132Y-142505192D01*
X152972965Y-142505061D01*
X152979580Y-142500810D01*
X154293199Y-141187191D01*
X154299644Y-141175389D01*
X161799872Y-141175389D01*
X161806267Y-141186657D01*
X163117188Y-142497578D01*
X163131132Y-142505192D01*
X163132965Y-142505061D01*
X163139580Y-142500810D01*
X164453199Y-141187191D01*
X164460390Y-141174022D01*
X164453068Y-141163785D01*
X164386328Y-141109160D01*
X164379356Y-141104205D01*
X164135791Y-140954948D01*
X164128193Y-140950976D01*
X163866633Y-140836158D01*
X163858579Y-140833259D01*
X163583852Y-140755002D01*
X163575474Y-140753220D01*
X163292668Y-140712971D01*
X163284121Y-140712344D01*
X162998467Y-140710847D01*
X162989933Y-140711384D01*
X162706715Y-140748671D01*
X162698317Y-140750364D01*
X162422786Y-140825741D01*
X162414699Y-140828557D01*
X162151952Y-140940629D01*
X162144312Y-140944522D01*
X161899204Y-141091215D01*
X161892175Y-141096100D01*
X161808341Y-141163264D01*
X161799872Y-141175389D01*
X154299644Y-141175389D01*
X154300390Y-141174022D01*
X154293068Y-141163785D01*
X154226328Y-141109160D01*
X154219356Y-141104205D01*
X153975791Y-140954948D01*
X153968193Y-140950976D01*
X153706633Y-140836158D01*
X153698579Y-140833259D01*
X153423852Y-140755002D01*
X153415474Y-140753220D01*
X153132668Y-140712971D01*
X153124121Y-140712344D01*
X152838467Y-140710847D01*
X152829933Y-140711384D01*
X152546715Y-140748671D01*
X152538317Y-140750364D01*
X152262786Y-140825741D01*
X152254699Y-140828557D01*
X151991952Y-140940629D01*
X151984312Y-140944522D01*
X151739204Y-141091215D01*
X151732175Y-141096100D01*
X151648341Y-141163264D01*
X151639872Y-141175389D01*
X142956480Y-141175389D01*
X142944885Y-141151877D01*
X142936940Y-141145916D01*
X142924523Y-141152687D01*
X142358022Y-141719188D01*
X142350408Y-141733132D01*
X141683694Y-141733132D01*
X141686924Y-141687968D01*
X141715885Y-141642905D01*
X142391905Y-140966885D01*
X145454000Y-140966885D01*
X145458475Y-140982124D01*
X145459865Y-140983329D01*
X145467548Y-140985000D01*
X146539885Y-140985000D01*
X146555124Y-140980525D01*
X146556329Y-140979135D01*
X146558000Y-140971452D01*
X146558000Y-140966885D01*
X147066000Y-140966885D01*
X147070475Y-140982124D01*
X147071865Y-140983329D01*
X147079548Y-140985000D01*
X148151884Y-140985000D01*
X148167123Y-140980525D01*
X148168328Y-140979135D01*
X148169999Y-140971452D01*
X148169999Y-140344331D01*
X148169629Y-140337510D01*
X148164105Y-140286648D01*
X148160479Y-140271396D01*
X148115324Y-140150946D01*
X148106786Y-140135351D01*
X148030285Y-140033276D01*
X148017724Y-140020715D01*
X147915649Y-139944214D01*
X147900054Y-139935676D01*
X147779606Y-139890522D01*
X147764351Y-139886895D01*
X147713486Y-139881369D01*
X147706672Y-139881000D01*
X147084115Y-139881000D01*
X147068876Y-139885475D01*
X147067671Y-139886865D01*
X147066000Y-139894548D01*
X147066000Y-140966885D01*
X146558000Y-140966885D01*
X146558000Y-139899116D01*
X146553525Y-139883877D01*
X146552135Y-139882672D01*
X146544452Y-139881001D01*
X145917331Y-139881001D01*
X145910510Y-139881371D01*
X145859648Y-139886895D01*
X145844396Y-139890521D01*
X145723946Y-139935676D01*
X145708351Y-139944214D01*
X145606276Y-140020715D01*
X145593715Y-140033276D01*
X145517214Y-140135351D01*
X145508676Y-140150946D01*
X145463522Y-140271394D01*
X145459895Y-140286649D01*
X145454369Y-140337514D01*
X145454000Y-140344328D01*
X145454000Y-140966885D01*
X142391905Y-140966885D01*
X142562444Y-140796346D01*
X142569204Y-140783966D01*
X142563174Y-140775911D01*
X142499936Y-140736011D01*
X142489688Y-140730790D01*
X142309825Y-140659032D01*
X142298799Y-140655766D01*
X142237792Y-140643631D01*
X142174883Y-140610724D01*
X142139750Y-140549029D01*
X142143550Y-140478135D01*
X142173278Y-140430957D01*
X144525830Y-138078405D01*
X144588142Y-138044379D01*
X144614925Y-138041500D01*
X163260157Y-138041500D01*
X163273764Y-138042237D01*
X163305262Y-138045659D01*
X163305267Y-138045659D01*
X163311388Y-138046324D01*
X163337638Y-138044027D01*
X163361388Y-138041950D01*
X163366214Y-138041621D01*
X163368686Y-138041500D01*
X163371769Y-138041500D01*
X163383738Y-138040326D01*
X163414506Y-138037310D01*
X163415819Y-138037188D01*
X163460084Y-138033315D01*
X163508413Y-138029087D01*
X163513532Y-138027600D01*
X163518833Y-138027080D01*
X163607834Y-138000209D01*
X163608967Y-137999874D01*
X163692414Y-137975630D01*
X163692418Y-137975628D01*
X163698336Y-137973909D01*
X163703068Y-137971456D01*
X163708169Y-137969916D01*
X163713612Y-137967022D01*
X163790260Y-137926269D01*
X163791426Y-137925657D01*
X163868453Y-137885729D01*
X163873926Y-137882892D01*
X163878089Y-137879569D01*
X163882796Y-137877066D01*
X163954918Y-137818245D01*
X163955774Y-137817554D01*
X163994973Y-137786262D01*
X163997477Y-137783758D01*
X163998195Y-137783116D01*
X164002528Y-137779415D01*
X164036062Y-137752065D01*
X164065294Y-137716730D01*
X164073271Y-137707964D01*
X164449138Y-137332096D01*
X164451309Y-137329925D01*
X164545102Y-137215739D01*
X164638562Y-137041437D01*
X164647664Y-137011666D01*
X164686709Y-136952370D01*
X164728072Y-136929053D01*
X164759414Y-136918535D01*
X164759423Y-136918531D01*
X164762178Y-136917607D01*
X164833918Y-136885891D01*
X165141217Y-136750036D01*
X165141228Y-136750030D01*
X165143896Y-136748851D01*
X165278645Y-136673697D01*
X165505856Y-136546974D01*
X165505864Y-136546969D01*
X165508394Y-136545558D01*
X165652311Y-136446832D01*
X165850150Y-136311115D01*
X165850157Y-136311110D01*
X165852556Y-136309464D01*
X166173438Y-136042589D01*
X166437328Y-135778238D01*
X166466242Y-135749274D01*
X166466246Y-135749269D01*
X166468296Y-135747216D01*
X166734610Y-135425869D01*
X166790873Y-135343545D01*
X166968460Y-135083701D01*
X166968466Y-135083691D01*
X166970103Y-135081296D01*
X166971509Y-135078765D01*
X166971515Y-135078755D01*
X167171343Y-134718996D01*
X167171347Y-134718987D01*
X167172760Y-134716444D01*
X167173933Y-134713777D01*
X167173938Y-134713768D01*
X167339675Y-134337101D01*
X167339678Y-134337094D01*
X167340849Y-134334432D01*
X167347758Y-134313725D01*
X167472010Y-133941292D01*
X167472933Y-133938526D01*
X167533233Y-133680426D01*
X167567218Y-133534961D01*
X167567219Y-133534953D01*
X167567883Y-133532113D01*
X167570452Y-133513484D01*
X167600022Y-133299005D01*
X167624885Y-133118667D01*
X167643454Y-132701723D01*
X167635099Y-132527787D01*
X167623570Y-132287751D01*
X167623569Y-132287741D01*
X167623430Y-132284846D01*
X167564985Y-131871601D01*
X167468617Y-131465522D01*
X167467686Y-131462764D01*
X167467683Y-131462753D01*
X167336082Y-131072836D01*
X167335152Y-131070080D01*
X167165730Y-130688657D01*
X167012864Y-130415693D01*
X166963223Y-130327053D01*
X166963222Y-130327051D01*
X166961801Y-130324514D01*
X166725107Y-129980765D01*
X166723244Y-129978533D01*
X166723238Y-129978525D01*
X166570849Y-129795948D01*
X166457673Y-129660350D01*
X166161785Y-129366007D01*
X166159543Y-129364156D01*
X166159538Y-129364151D01*
X165901766Y-129151283D01*
X165839973Y-129100254D01*
X165778211Y-129058202D01*
X165497408Y-128867010D01*
X165497403Y-128867007D01*
X165494990Y-128865364D01*
X165492442Y-128863954D01*
X165492433Y-128863949D01*
X165132339Y-128664756D01*
X165129785Y-128663343D01*
X164747480Y-128495921D01*
X164744723Y-128495007D01*
X164744719Y-128495005D01*
X164354107Y-128365444D01*
X164354105Y-128365443D01*
X164351345Y-128364528D01*
X164177201Y-128324164D01*
X163947597Y-128270945D01*
X163947593Y-128270944D01*
X163944766Y-128270289D01*
X163809106Y-128251826D01*
X163534066Y-128214394D01*
X163534062Y-128214394D01*
X163531221Y-128214007D01*
X163528355Y-128213879D01*
X163528351Y-128213879D01*
X163242821Y-128201163D01*
X163242804Y-128201163D01*
X163241398Y-128201100D01*
X143598327Y-128201100D01*
X143591082Y-128200774D01*
X143591080Y-128200823D01*
X143588191Y-128200697D01*
X143585275Y-128200434D01*
X143330967Y-128201100D01*
X143281212Y-128201100D01*
X143279748Y-128201168D01*
X143278312Y-128201201D01*
X143278311Y-128201177D01*
X143275502Y-128201245D01*
X143170826Y-128201519D01*
X143170818Y-128201519D01*
X143167919Y-128201527D01*
X143165016Y-128201804D01*
X143072938Y-128210589D01*
X143066796Y-128211024D01*
X143030907Y-128212685D01*
X142971489Y-128215435D01*
X142864975Y-128230310D01*
X142859515Y-128230951D01*
X142752448Y-128241166D01*
X142749597Y-128241707D01*
X142749592Y-128241708D01*
X142722904Y-128246775D01*
X142658669Y-128258971D01*
X142652629Y-128259965D01*
X142558143Y-128273160D01*
X142555319Y-128273825D01*
X142555308Y-128273827D01*
X142453467Y-128297807D01*
X142448092Y-128298950D01*
X142389053Y-128310159D01*
X142342416Y-128319014D01*
X142342323Y-128318523D01*
X142297357Y-128320370D01*
X142288495Y-128319014D01*
X142280405Y-128317776D01*
X142189080Y-128314427D01*
X142182503Y-128314013D01*
X142174075Y-128313261D01*
X142134725Y-128309749D01*
X142134717Y-128309749D01*
X142131931Y-128309500D01*
X142057013Y-128309500D01*
X142052396Y-128309415D01*
X141937327Y-128305195D01*
X141937319Y-128305195D01*
X141933688Y-128305062D01*
X141930067Y-128305347D01*
X141930065Y-128305347D01*
X141882227Y-128309112D01*
X141872341Y-128309500D01*
X138857431Y-128309500D01*
X138848959Y-128309034D01*
X138848955Y-128309119D01*
X138845322Y-128308929D01*
X138841720Y-128308531D01*
X138672833Y-128309415D01*
X138656976Y-128309498D01*
X138656316Y-128309500D01*
X128697431Y-128309500D01*
X128688959Y-128309034D01*
X128688955Y-128309119D01*
X128685322Y-128308929D01*
X128681720Y-128308531D01*
X128512833Y-128309415D01*
X128496976Y-128309498D01*
X128496316Y-128309500D01*
X128435568Y-128309500D01*
X128433749Y-128309605D01*
X128433742Y-128309605D01*
X128433239Y-128309634D01*
X128432752Y-128309662D01*
X128426183Y-128309868D01*
X128342701Y-128310305D01*
X128334775Y-128310347D01*
X128260329Y-128319356D01*
X128252480Y-128320057D01*
X128202903Y-128322915D01*
X128181247Y-128324164D01*
X128181244Y-128324164D01*
X128177626Y-128324373D01*
X128087581Y-128340089D01*
X128081069Y-128341049D01*
X128043303Y-128345620D01*
X127993948Y-128351592D01*
X127993946Y-128351592D01*
X127990338Y-128352029D01*
X127986813Y-128352875D01*
X127986809Y-128352876D01*
X127917436Y-128369531D01*
X127909686Y-128371136D01*
X127835842Y-128384024D01*
X127748201Y-128409984D01*
X127741873Y-128411681D01*
X127678448Y-128426907D01*
X127656494Y-128432178D01*
X127656491Y-128432179D01*
X127652975Y-128433023D01*
X127582556Y-128458793D01*
X127575078Y-128461266D01*
X127503180Y-128482563D01*
X127499849Y-128483984D01*
X127499840Y-128483987D01*
X127469128Y-128497087D01*
X127419102Y-128518425D01*
X127412981Y-128520848D01*
X127330563Y-128551009D01*
X127330560Y-128551010D01*
X127327156Y-128552256D01*
X127323918Y-128553885D01*
X127323910Y-128553888D01*
X127260182Y-128585939D01*
X127253005Y-128589271D01*
X127184048Y-128618684D01*
X127104636Y-128663980D01*
X127098848Y-128667083D01*
X127017201Y-128708147D01*
X126954541Y-128749307D01*
X126947811Y-128753431D01*
X126882676Y-128790583D01*
X126879755Y-128792729D01*
X126809012Y-128844695D01*
X126803595Y-128848460D01*
X126768782Y-128871328D01*
X126727218Y-128898630D01*
X126724437Y-128900955D01*
X126724432Y-128900959D01*
X126669706Y-128946716D01*
X126663478Y-128951600D01*
X126636207Y-128971633D01*
X126603060Y-128995982D01*
X126600414Y-128998441D01*
X126536103Y-129058202D01*
X126531171Y-129062550D01*
X126492221Y-129095117D01*
X126439260Y-129148078D01*
X126435936Y-129151283D01*
X126348904Y-129232158D01*
X126315372Y-129271418D01*
X126308667Y-129278671D01*
X122328307Y-133259031D01*
X122321979Y-133264699D01*
X122322037Y-133264763D01*
X122319344Y-133267188D01*
X122316509Y-133269459D01*
X122313956Y-133272039D01*
X122186460Y-133400877D01*
X122185994Y-133401344D01*
X122143138Y-133444200D01*
X122141263Y-133446305D01*
X122136755Y-133451105D01*
X122075025Y-133513484D01*
X122075016Y-133513494D01*
X122072466Y-133516071D01*
X122040118Y-133557327D01*
X122026207Y-133575068D01*
X122021135Y-133581134D01*
X121971263Y-133637109D01*
X121940819Y-133680426D01*
X121918707Y-133711888D01*
X121914774Y-133717183D01*
X121858386Y-133789098D01*
X121856490Y-133792192D01*
X121856483Y-133792202D01*
X121819215Y-133853017D01*
X121814870Y-133859632D01*
X121773859Y-133917984D01*
X121773848Y-133918002D01*
X121771764Y-133920967D01*
X121770029Y-133924162D01*
X121770028Y-133924164D01*
X121728160Y-134001275D01*
X121724862Y-134006987D01*
X121679007Y-134081816D01*
X121679002Y-134081826D01*
X121677105Y-134084921D01*
X121675578Y-134088211D01*
X121675573Y-134088220D01*
X121645536Y-134152930D01*
X121641980Y-134160000D01*
X121606215Y-134225872D01*
X121604864Y-134229233D01*
X121604862Y-134229237D01*
X121572131Y-134310658D01*
X121569513Y-134316709D01*
X121531027Y-134399620D01*
X121507477Y-134470827D01*
X121504777Y-134478203D01*
X121476806Y-134547784D01*
X121453305Y-134633691D01*
X121452691Y-134635934D01*
X121450790Y-134642232D01*
X121422087Y-134729023D01*
X121421351Y-134732578D01*
X121421350Y-134732581D01*
X121406886Y-134802425D01*
X121405038Y-134810122D01*
X121386213Y-134878934D01*
X121386211Y-134878944D01*
X121385255Y-134882438D01*
X121379179Y-134922144D01*
X121371432Y-134972775D01*
X121370266Y-134979258D01*
X121351730Y-135068764D01*
X121351407Y-135072386D01*
X121351406Y-135072391D01*
X121345066Y-135143437D01*
X121344115Y-135151296D01*
X121332776Y-135225395D01*
X121332643Y-135229029D01*
X121329427Y-135316718D01*
X121329013Y-135323297D01*
X121324500Y-135373869D01*
X121324500Y-135448787D01*
X121324415Y-135453404D01*
X121320474Y-135560889D01*
X121320062Y-135572112D01*
X121320347Y-135575733D01*
X121320347Y-135575735D01*
X121324112Y-135623573D01*
X121324500Y-135633459D01*
X121324500Y-140804432D01*
X121324605Y-140806251D01*
X121324605Y-140806255D01*
X121334912Y-140985000D01*
X121339373Y-141062374D01*
X121351058Y-141129327D01*
X121387082Y-141335732D01*
X121399024Y-141404158D01*
X121400053Y-141407633D01*
X121400055Y-141407640D01*
X121414311Y-141455766D01*
X121419500Y-141491552D01*
X121419500Y-142178157D01*
X121418763Y-142191764D01*
X121414676Y-142229388D01*
X121415213Y-142235523D01*
X121419050Y-142279388D01*
X121419379Y-142284214D01*
X121419500Y-142286686D01*
X121419500Y-142289769D01*
X121419801Y-142292837D01*
X121423690Y-142332506D01*
X121423812Y-142333819D01*
X121431913Y-142426413D01*
X121433400Y-142431532D01*
X121433920Y-142436833D01*
X121460791Y-142525834D01*
X121461126Y-142526967D01*
X121477260Y-142582497D01*
X121487091Y-142616336D01*
X121489544Y-142621068D01*
X121491084Y-142626169D01*
X121493978Y-142631612D01*
X121534731Y-142708260D01*
X121535343Y-142709426D01*
X121578108Y-142791926D01*
X121581431Y-142796089D01*
X121583934Y-142800796D01*
X121642755Y-142872918D01*
X121643446Y-142873774D01*
X121674738Y-142912973D01*
X121677242Y-142915477D01*
X121677884Y-142916195D01*
X121681585Y-142920528D01*
X121708935Y-142954062D01*
X121713682Y-142957989D01*
X121713684Y-142957991D01*
X121744262Y-142983287D01*
X121753042Y-142991277D01*
X122152595Y-143390830D01*
X122186621Y-143453142D01*
X122189500Y-143479925D01*
X122189500Y-143485984D01*
X122189451Y-143489502D01*
X122188790Y-143513183D01*
X122186666Y-143589205D01*
X122194502Y-143647928D01*
X122197058Y-143667086D01*
X122197759Y-143673647D01*
X122203397Y-143743719D01*
X122204060Y-143751965D01*
X122211897Y-143783870D01*
X122214426Y-143797258D01*
X122218771Y-143829820D01*
X122220232Y-143834661D01*
X122220233Y-143834663D01*
X122241478Y-143905029D01*
X122243219Y-143911390D01*
X122261963Y-143987706D01*
X122263941Y-143992366D01*
X122274801Y-144017951D01*
X122279437Y-144030755D01*
X122288372Y-144060350D01*
X122288913Y-144131343D01*
X122250987Y-144191360D01*
X122187462Y-144221217D01*
X122183670Y-144221818D01*
X122178735Y-144222206D01*
X121935609Y-144280575D01*
X121931038Y-144282468D01*
X121931036Y-144282469D01*
X121709180Y-144374365D01*
X121709176Y-144374367D01*
X121704606Y-144376260D01*
X121491416Y-144506903D01*
X121356860Y-144621825D01*
X121314546Y-144657965D01*
X121301288Y-144669288D01*
X121138903Y-144859416D01*
X121008260Y-145072606D01*
X121006367Y-145077176D01*
X121006365Y-145077180D01*
X120970593Y-145163542D01*
X120912575Y-145303609D01*
X120907142Y-145326240D01*
X120861400Y-145516771D01*
X120854206Y-145546735D01*
X120834588Y-145796000D01*
X118921299Y-145796000D01*
X119084817Y-145477144D01*
X119084822Y-145477133D01*
X119086099Y-145474643D01*
X119253579Y-145061157D01*
X119383638Y-144634418D01*
X119414985Y-144485020D01*
X119474677Y-144200536D01*
X119474678Y-144200527D01*
X119475249Y-144197808D01*
X119509148Y-143911392D01*
X119527355Y-143757565D01*
X119527355Y-143757559D01*
X119527684Y-143754783D01*
X119527911Y-143746923D01*
X119540450Y-143311636D01*
X119540450Y-143311630D01*
X119540530Y-143308850D01*
X119522464Y-143009173D01*
X119513853Y-142866337D01*
X119513852Y-142866327D01*
X119513684Y-142863541D01*
X119510548Y-142842678D01*
X119447775Y-142425154D01*
X119447774Y-142425149D01*
X119447358Y-142422382D01*
X119342079Y-141988864D01*
X119198678Y-141566422D01*
X119097758Y-141338145D01*
X119019429Y-141160967D01*
X119019424Y-141160956D01*
X119018294Y-141158401D01*
X119015134Y-141152687D01*
X118803710Y-140770482D01*
X118803709Y-140770481D01*
X118802353Y-140768029D01*
X118792346Y-140753220D01*
X118554138Y-140400727D01*
X118554137Y-140400725D01*
X118552564Y-140398398D01*
X118270907Y-140052435D01*
X117959610Y-139732881D01*
X117621139Y-139442263D01*
X117258174Y-139182885D01*
X116873589Y-138956799D01*
X116470428Y-138765794D01*
X116051884Y-138611386D01*
X116049195Y-138610658D01*
X116049189Y-138610656D01*
X115623972Y-138495525D01*
X115623971Y-138495525D01*
X115621272Y-138494794D01*
X115618526Y-138494307D01*
X115618520Y-138494306D01*
X115184760Y-138417432D01*
X115184753Y-138417431D01*
X115181999Y-138416943D01*
X115011895Y-138402210D01*
X114836000Y-138386976D01*
X114769859Y-138361171D01*
X114757777Y-138350542D01*
X114164266Y-137757032D01*
X114164262Y-137757027D01*
X114055845Y-137648610D01*
X114021821Y-137586299D01*
X114026885Y-137515484D01*
X114069432Y-137458648D01*
X114135952Y-137433837D01*
X114164000Y-137434966D01*
X114354941Y-137464184D01*
X114363474Y-137464900D01*
X114628645Y-137469067D01*
X114637196Y-137468618D01*
X114900483Y-137436757D01*
X114908884Y-137435155D01*
X115165424Y-137367853D01*
X115173526Y-137365126D01*
X115418549Y-137263634D01*
X115426217Y-137259828D01*
X115655198Y-137126022D01*
X115662279Y-137121209D01*
X115742255Y-137058501D01*
X115750725Y-137046642D01*
X115744208Y-137035018D01*
X114169522Y-135460332D01*
X114892008Y-135460332D01*
X114892139Y-135462165D01*
X114896390Y-135468780D01*
X116103330Y-136675720D01*
X116115539Y-136682387D01*
X116127039Y-136673697D01*
X116224431Y-136541113D01*
X116229018Y-136533885D01*
X116355562Y-136300821D01*
X116359130Y-136293027D01*
X116452871Y-136044950D01*
X116455348Y-136036744D01*
X116514554Y-135778238D01*
X116515894Y-135769777D01*
X116539631Y-135503816D01*
X116539877Y-135498877D01*
X116540266Y-135461685D01*
X116540123Y-135456719D01*
X116521962Y-135190323D01*
X116520801Y-135181849D01*
X116467019Y-134922144D01*
X116464720Y-134913909D01*
X116376188Y-134663905D01*
X116372791Y-134656054D01*
X116251150Y-134420378D01*
X116246722Y-134413066D01*
X116127631Y-134243617D01*
X116117109Y-134235237D01*
X116103721Y-134242289D01*
X114899622Y-135446388D01*
X114892008Y-135460332D01*
X114169522Y-135460332D01*
X112951414Y-134242224D01*
X112939404Y-134235666D01*
X112927664Y-134244634D01*
X112819535Y-134395111D01*
X112815018Y-134402396D01*
X112690925Y-134636767D01*
X112687439Y-134644595D01*
X112596300Y-134893646D01*
X112593911Y-134901870D01*
X112537412Y-135160995D01*
X112536163Y-135169450D01*
X112515354Y-135433853D01*
X112515265Y-135442404D01*
X112530532Y-135707169D01*
X112531605Y-135715669D01*
X112551769Y-135818443D01*
X112545256Y-135889140D01*
X112501555Y-135945093D01*
X112434541Y-135968538D01*
X112365490Y-135952030D01*
X112339031Y-135931796D01*
X111968124Y-135560889D01*
X111940426Y-135518888D01*
X111938908Y-135513663D01*
X111936457Y-135508934D01*
X111934916Y-135503831D01*
X111891230Y-135421669D01*
X111890683Y-135420627D01*
X111850728Y-135343545D01*
X111850727Y-135343544D01*
X111847892Y-135338074D01*
X111844569Y-135333911D01*
X111842066Y-135329204D01*
X111834573Y-135320016D01*
X111783263Y-135257105D01*
X111782500Y-135256160D01*
X111751261Y-135217027D01*
X111748770Y-135214536D01*
X111748120Y-135213809D01*
X111744408Y-135209463D01*
X111720955Y-135180708D01*
X111717065Y-135175938D01*
X111712323Y-135172015D01*
X111712321Y-135172013D01*
X111681727Y-135146703D01*
X111672947Y-135138713D01*
X111246855Y-134712621D01*
X111237753Y-134702478D01*
X111217897Y-134677782D01*
X111214032Y-134672975D01*
X111175578Y-134640708D01*
X111171931Y-134637528D01*
X111170119Y-134635885D01*
X111167925Y-134633691D01*
X111134651Y-134606358D01*
X111133853Y-134605696D01*
X111062526Y-134545846D01*
X111057856Y-134543278D01*
X111053739Y-134539897D01*
X110971914Y-134496023D01*
X110970755Y-134495394D01*
X110894619Y-134453538D01*
X110894611Y-134453535D01*
X110889213Y-134450567D01*
X110884131Y-134448955D01*
X110879437Y-134446438D01*
X110873539Y-134444635D01*
X110873537Y-134444634D01*
X110847661Y-134436723D01*
X110788365Y-134397678D01*
X110759591Y-134332774D01*
X110758500Y-134316229D01*
X110758500Y-133871700D01*
X113304184Y-133871700D01*
X113310580Y-133882970D01*
X114514788Y-135087178D01*
X114528732Y-135094792D01*
X114530565Y-135094661D01*
X114537180Y-135090410D01*
X115744204Y-133883386D01*
X115751395Y-133870217D01*
X115744073Y-133859980D01*
X115696833Y-133821315D01*
X115689861Y-133816360D01*
X115463722Y-133677782D01*
X115456152Y-133673824D01*
X115213304Y-133567222D01*
X115205244Y-133564320D01*
X114950192Y-133491667D01*
X114941814Y-133489885D01*
X114679256Y-133452518D01*
X114670711Y-133451891D01*
X114405508Y-133450502D01*
X114396974Y-133451039D01*
X114134033Y-133485656D01*
X114125635Y-133487349D01*
X113869838Y-133557327D01*
X113861743Y-133560146D01*
X113617799Y-133664197D01*
X113610177Y-133668081D01*
X113382613Y-133804275D01*
X113375581Y-133809162D01*
X113312653Y-133859577D01*
X113304184Y-133871700D01*
X110758500Y-133871700D01*
X110758500Y-131467044D01*
X110758351Y-131462753D01*
X110744049Y-131053221D01*
X110743972Y-131051007D01*
X110685505Y-130494737D01*
X110625213Y-130152804D01*
X110588760Y-129946066D01*
X110588759Y-129946059D01*
X110588378Y-129943901D01*
X110581992Y-129918286D01*
X110565612Y-129852593D01*
X110453063Y-129401182D01*
X110452379Y-129399076D01*
X110280903Y-128871328D01*
X110280900Y-128871319D01*
X110280219Y-128869224D01*
X110279390Y-128867171D01*
X110071517Y-128352667D01*
X110071511Y-128352654D01*
X110070689Y-128350619D01*
X110055936Y-128320370D01*
X109826463Y-127849881D01*
X109826458Y-127849872D01*
X109825493Y-127847893D01*
X109545827Y-127363496D01*
X109233051Y-126899788D01*
X108888691Y-126459027D01*
X108731218Y-126284135D01*
X108515895Y-126044994D01*
X108515886Y-126044984D01*
X108514424Y-126043361D01*
X108382100Y-125915577D01*
X128369590Y-125915577D01*
X128376980Y-125925879D01*
X128422217Y-125962707D01*
X128429492Y-125967821D01*
X128656379Y-126104418D01*
X128664303Y-126108454D01*
X128908165Y-126211718D01*
X128916570Y-126214596D01*
X129172565Y-126282471D01*
X129181286Y-126284135D01*
X129444295Y-126315264D01*
X129453160Y-126315682D01*
X129717917Y-126309442D01*
X129726777Y-126308605D01*
X129988001Y-126265126D01*
X129996658Y-126263047D01*
X130249157Y-126183192D01*
X130257419Y-126179921D01*
X130496149Y-126065284D01*
X130503874Y-126060878D01*
X130703293Y-125927631D01*
X130711581Y-125917713D01*
X130704324Y-125903534D01*
X129552812Y-124752022D01*
X129538868Y-124744408D01*
X129537035Y-124744539D01*
X129530420Y-124748790D01*
X128376756Y-125902454D01*
X128369590Y-125915577D01*
X108382100Y-125915577D01*
X108112073Y-125654815D01*
X108110393Y-125653405D01*
X108110386Y-125653399D01*
X107836583Y-125423652D01*
X107683598Y-125295282D01*
X107231088Y-124966514D01*
X106756746Y-124670112D01*
X106262884Y-124407521D01*
X106260878Y-124406628D01*
X106260868Y-124406623D01*
X106074350Y-124323580D01*
X127603193Y-124323580D01*
X127613590Y-124588209D01*
X127614565Y-124597038D01*
X127662146Y-124857565D01*
X127664355Y-124866169D01*
X127748168Y-125117388D01*
X127751572Y-125125606D01*
X127869946Y-125362511D01*
X127874464Y-125370150D01*
X127993380Y-125542208D01*
X128003700Y-125550560D01*
X128017354Y-125543436D01*
X129167978Y-124392812D01*
X129174356Y-124381132D01*
X129904408Y-124381132D01*
X129904539Y-124382965D01*
X129908790Y-124389580D01*
X131063262Y-125544052D01*
X131076662Y-125551369D01*
X131086566Y-125544382D01*
X131104963Y-125522496D01*
X131110181Y-125515313D01*
X131250325Y-125290600D01*
X131254486Y-125282740D01*
X131361564Y-125040535D01*
X131364580Y-125032158D01*
X131436462Y-124777282D01*
X131438266Y-124768574D01*
X131473687Y-124504866D01*
X131474215Y-124498473D01*
X131477837Y-124383222D01*
X131477710Y-124376779D01*
X131458919Y-124111394D01*
X131457666Y-124102584D01*
X131401926Y-123843680D01*
X131399450Y-123835159D01*
X131307784Y-123586688D01*
X131304129Y-123578593D01*
X131178371Y-123345523D01*
X131173609Y-123338018D01*
X131085635Y-123218910D01*
X131074510Y-123210470D01*
X131061914Y-123217296D01*
X129912022Y-124367188D01*
X129904408Y-124381132D01*
X129174356Y-124381132D01*
X129175592Y-124378868D01*
X129175461Y-124377035D01*
X129171210Y-124370420D01*
X128018016Y-123217226D01*
X128005176Y-123210215D01*
X127994484Y-123218012D01*
X127939929Y-123287215D01*
X127934931Y-123294571D01*
X127801912Y-123523578D01*
X127798008Y-123531548D01*
X127698584Y-123777013D01*
X127695837Y-123785469D01*
X127631993Y-124042487D01*
X127630465Y-124051245D01*
X127603472Y-124314696D01*
X127603193Y-124323580D01*
X106074350Y-124323580D01*
X105753902Y-124180908D01*
X105753896Y-124180906D01*
X105751907Y-124180020D01*
X105749858Y-124179274D01*
X105749850Y-124179271D01*
X105539154Y-124102584D01*
X105226305Y-123988716D01*
X104688639Y-123834543D01*
X104141528Y-123718251D01*
X103587638Y-123640407D01*
X103585450Y-123640254D01*
X103031857Y-123601543D01*
X103031853Y-123601543D01*
X103029667Y-123601390D01*
X102470333Y-123601390D01*
X102468147Y-123601543D01*
X102468143Y-123601543D01*
X101914550Y-123640254D01*
X101912362Y-123640407D01*
X101358472Y-123718251D01*
X100811361Y-123834543D01*
X100273695Y-123988716D01*
X99960846Y-124102584D01*
X99750150Y-124179271D01*
X99750142Y-124179274D01*
X99748093Y-124180020D01*
X99746104Y-124180906D01*
X99746098Y-124180908D01*
X99239132Y-124406623D01*
X99239122Y-124406628D01*
X99237116Y-124407521D01*
X98743254Y-124670112D01*
X98268912Y-124966514D01*
X97816402Y-125295282D01*
X97663417Y-125423652D01*
X97389614Y-125653399D01*
X97389607Y-125653405D01*
X97387927Y-125654815D01*
X96985576Y-126043361D01*
X96984114Y-126044984D01*
X96984105Y-126044994D01*
X96768782Y-126284135D01*
X96611309Y-126459027D01*
X96266949Y-126899788D01*
X95954173Y-127363496D01*
X95674507Y-127847893D01*
X95673542Y-127849872D01*
X95673537Y-127849881D01*
X95444064Y-128320370D01*
X95429311Y-128350619D01*
X95428489Y-128352654D01*
X95428483Y-128352667D01*
X95220610Y-128867171D01*
X95219781Y-128869224D01*
X95219100Y-128871319D01*
X95219097Y-128871328D01*
X95047621Y-129399076D01*
X95046937Y-129401182D01*
X94934388Y-129852593D01*
X94918009Y-129918286D01*
X94911622Y-129943901D01*
X94911241Y-129946059D01*
X94911240Y-129946066D01*
X94874787Y-130152804D01*
X94814495Y-130494737D01*
X94756028Y-131051007D01*
X94755951Y-131053221D01*
X94741650Y-131462753D01*
X94741500Y-131467044D01*
X94741500Y-141129327D01*
X94741327Y-141135921D01*
X94730729Y-141338145D01*
X64516500Y-141338145D01*
X64516500Y-131610000D01*
X72661386Y-131610000D01*
X72661656Y-131614119D01*
X72678347Y-131868768D01*
X72681821Y-131921777D01*
X72742776Y-132228219D01*
X72843208Y-132524083D01*
X72845031Y-132527779D01*
X72845034Y-132527787D01*
X72929373Y-132698808D01*
X72981400Y-132804307D01*
X73154985Y-133064096D01*
X73157699Y-133067190D01*
X73157703Y-133067196D01*
X73335084Y-133269459D01*
X73360995Y-133299005D01*
X73364084Y-133301714D01*
X73592804Y-133502297D01*
X73592810Y-133502301D01*
X73595904Y-133505015D01*
X73855693Y-133678600D01*
X73859396Y-133680426D01*
X74132213Y-133814966D01*
X74132221Y-133814969D01*
X74135917Y-133816792D01*
X74139831Y-133818121D01*
X74139832Y-133818121D01*
X74427874Y-133915898D01*
X74427877Y-133915899D01*
X74431781Y-133917224D01*
X74435820Y-133918027D01*
X74435826Y-133918029D01*
X74734180Y-133977375D01*
X74734183Y-133977375D01*
X74738223Y-133978179D01*
X74742334Y-133978448D01*
X74742338Y-133978449D01*
X75045881Y-133998344D01*
X75050000Y-133998614D01*
X75054119Y-133998344D01*
X75357662Y-133978449D01*
X75357666Y-133978448D01*
X75361777Y-133978179D01*
X75365817Y-133977375D01*
X75365820Y-133977375D01*
X75664174Y-133918029D01*
X75664180Y-133918027D01*
X75668219Y-133917224D01*
X75672123Y-133915899D01*
X75672126Y-133915898D01*
X75960168Y-133818121D01*
X75960169Y-133818121D01*
X75964083Y-133816792D01*
X75967779Y-133814969D01*
X75967787Y-133814966D01*
X76240604Y-133680426D01*
X76244307Y-133678600D01*
X76504096Y-133505015D01*
X76507190Y-133502301D01*
X76507196Y-133502297D01*
X76735916Y-133301714D01*
X76739005Y-133299005D01*
X76764916Y-133269459D01*
X76942297Y-133067196D01*
X76942301Y-133067190D01*
X76945015Y-133064096D01*
X77118600Y-132804307D01*
X77170627Y-132698808D01*
X77254966Y-132527787D01*
X77254969Y-132527779D01*
X77256792Y-132524083D01*
X77357224Y-132228219D01*
X77418179Y-131921777D01*
X77421654Y-131868768D01*
X77438344Y-131614119D01*
X77438614Y-131610000D01*
X77429170Y-131465916D01*
X77418449Y-131302338D01*
X77418448Y-131302334D01*
X77418179Y-131298223D01*
X77372269Y-131067415D01*
X77358029Y-130995826D01*
X77358027Y-130995820D01*
X77357224Y-130991781D01*
X77256792Y-130695917D01*
X77254969Y-130692221D01*
X77254966Y-130692213D01*
X77120426Y-130419396D01*
X77118600Y-130415693D01*
X76945015Y-130155904D01*
X76942301Y-130152810D01*
X76942297Y-130152804D01*
X76741714Y-129924084D01*
X76739005Y-129920995D01*
X76735916Y-129918286D01*
X76507196Y-129717703D01*
X76507190Y-129717699D01*
X76504096Y-129714985D01*
X76244307Y-129541400D01*
X76193919Y-129516551D01*
X75967787Y-129405034D01*
X75967779Y-129405031D01*
X75964083Y-129403208D01*
X75958115Y-129401182D01*
X75672126Y-129304102D01*
X75672123Y-129304101D01*
X75668219Y-129302776D01*
X75664180Y-129301973D01*
X75664174Y-129301971D01*
X75365820Y-129242625D01*
X75365817Y-129242625D01*
X75361777Y-129241821D01*
X75357666Y-129241552D01*
X75357662Y-129241551D01*
X75054119Y-129221656D01*
X75050000Y-129221386D01*
X75045881Y-129221656D01*
X74742338Y-129241551D01*
X74742334Y-129241552D01*
X74738223Y-129241821D01*
X74734183Y-129242625D01*
X74734180Y-129242625D01*
X74435826Y-129301971D01*
X74435820Y-129301973D01*
X74431781Y-129302776D01*
X74427877Y-129304101D01*
X74427874Y-129304102D01*
X74141885Y-129401182D01*
X74135917Y-129403208D01*
X74132221Y-129405031D01*
X74132213Y-129405034D01*
X73906081Y-129516551D01*
X73855693Y-129541400D01*
X73595904Y-129714985D01*
X73592810Y-129717699D01*
X73592804Y-129717703D01*
X73364084Y-129918286D01*
X73360995Y-129920995D01*
X73358286Y-129924084D01*
X73157703Y-130152804D01*
X73157699Y-130152810D01*
X73154985Y-130155904D01*
X72981400Y-130415693D01*
X72979574Y-130419396D01*
X72845034Y-130692213D01*
X72845031Y-130692221D01*
X72843208Y-130695917D01*
X72742776Y-130991781D01*
X72741973Y-130995820D01*
X72741971Y-130995826D01*
X72727731Y-131067415D01*
X72681821Y-131298223D01*
X72681552Y-131302334D01*
X72681551Y-131302338D01*
X72670830Y-131465916D01*
X72661386Y-131610000D01*
X64516500Y-131610000D01*
X64516500Y-119497081D01*
X64536502Y-119428960D01*
X64590158Y-119382467D01*
X64660432Y-119372363D01*
X64725012Y-119401857D01*
X64763396Y-119461583D01*
X64765631Y-119470347D01*
X64815193Y-119698614D01*
X64848809Y-119853442D01*
X65023110Y-120471466D01*
X65023739Y-120473266D01*
X65023743Y-120473280D01*
X65111237Y-120723823D01*
X65234815Y-121077696D01*
X65483135Y-121669872D01*
X65767143Y-122245783D01*
X65768096Y-122247451D01*
X65768099Y-122247456D01*
X65865168Y-122417291D01*
X66085780Y-122803281D01*
X66086826Y-122804876D01*
X66086830Y-122804883D01*
X66436805Y-123338686D01*
X66436816Y-123338701D01*
X66437856Y-123340288D01*
X66574725Y-123523578D01*
X66820905Y-123853253D01*
X66820914Y-123853264D01*
X66822060Y-123854799D01*
X67236957Y-124344895D01*
X67681000Y-124808749D01*
X68152533Y-125244629D01*
X68649795Y-125650909D01*
X68651368Y-125652041D01*
X68651374Y-125652046D01*
X68880071Y-125816684D01*
X69170933Y-126026075D01*
X69172557Y-126027100D01*
X69172559Y-126027101D01*
X69233076Y-126065284D01*
X69714003Y-126368726D01*
X69715693Y-126369653D01*
X70275274Y-126676651D01*
X70275282Y-126676655D01*
X70276977Y-126677585D01*
X70857757Y-126951498D01*
X71454176Y-127189445D01*
X71456011Y-127190050D01*
X71982002Y-127363496D01*
X72064009Y-127390538D01*
X72065849Y-127391022D01*
X72065861Y-127391026D01*
X72339705Y-127463123D01*
X72684980Y-127554026D01*
X72686866Y-127554401D01*
X72686874Y-127554403D01*
X72976364Y-127611986D01*
X73314774Y-127679300D01*
X73316661Y-127679557D01*
X73316674Y-127679559D01*
X73820031Y-127748062D01*
X73951041Y-127765892D01*
X73952947Y-127766034D01*
X73952960Y-127766035D01*
X74396288Y-127798979D01*
X74591408Y-127813479D01*
X74955543Y-127818246D01*
X75231554Y-127821860D01*
X75231564Y-127821860D01*
X75233486Y-127821885D01*
X75235396Y-127821793D01*
X75235411Y-127821793D01*
X75872969Y-127791168D01*
X75872977Y-127791167D01*
X75874879Y-127791076D01*
X76513194Y-127721169D01*
X77146052Y-127612425D01*
X77771090Y-127465248D01*
X78385978Y-127280187D01*
X78387767Y-127279527D01*
X78387776Y-127279524D01*
X78986606Y-127058604D01*
X78986618Y-127058599D01*
X78988421Y-127057934D01*
X79576172Y-126799318D01*
X80147039Y-126505302D01*
X80698892Y-126176984D01*
X81229672Y-125815589D01*
X81737399Y-125422464D01*
X81805763Y-125362511D01*
X82182458Y-125032158D01*
X82220180Y-124999077D01*
X82676213Y-124547006D01*
X82719531Y-124498473D01*
X82828147Y-124376779D01*
X83103798Y-124067939D01*
X83116959Y-124051245D01*
X83500157Y-123565159D01*
X83501338Y-123563661D01*
X83867351Y-123036055D01*
X83975307Y-122858149D01*
X84199464Y-122488750D01*
X84199471Y-122488737D01*
X84200472Y-122487088D01*
X84270851Y-122353321D01*
X84498562Y-121920514D01*
X84498563Y-121920513D01*
X84499459Y-121918809D01*
X84763195Y-121333337D01*
X84763866Y-121331566D01*
X84763873Y-121331549D01*
X84990014Y-120734656D01*
X84990696Y-120732856D01*
X85181115Y-120119607D01*
X85333741Y-119495877D01*
X85351527Y-119397519D01*
X85447661Y-118865891D01*
X85447663Y-118865878D01*
X85448004Y-118863992D01*
X85475897Y-118628331D01*
X85523252Y-118228227D01*
X85523479Y-118226311D01*
X85558500Y-117609567D01*
X85558500Y-117310000D01*
X100361386Y-117310000D01*
X100361656Y-117314119D01*
X100381021Y-117609567D01*
X100381821Y-117621777D01*
X100382625Y-117625817D01*
X100382625Y-117625820D01*
X100400880Y-117717591D01*
X100442776Y-117928219D01*
X100543208Y-118224083D01*
X100545031Y-118227779D01*
X100545034Y-118227787D01*
X100656551Y-118453919D01*
X100681400Y-118504307D01*
X100683694Y-118507740D01*
X100683695Y-118507742D01*
X100694720Y-118524242D01*
X100854985Y-118764096D01*
X100857699Y-118767190D01*
X100857703Y-118767196D01*
X100944257Y-118865891D01*
X101060995Y-118999005D01*
X101064084Y-119001714D01*
X101292804Y-119202297D01*
X101292810Y-119202301D01*
X101295904Y-119205015D01*
X101484726Y-119331181D01*
X101547429Y-119373078D01*
X101555693Y-119378600D01*
X101593075Y-119397035D01*
X101832213Y-119514966D01*
X101832221Y-119514969D01*
X101835917Y-119516792D01*
X101839831Y-119518121D01*
X101839832Y-119518121D01*
X102127874Y-119615898D01*
X102127877Y-119615899D01*
X102131781Y-119617224D01*
X102135820Y-119618027D01*
X102135826Y-119618029D01*
X102434180Y-119677375D01*
X102434183Y-119677375D01*
X102438223Y-119678179D01*
X102442334Y-119678448D01*
X102442338Y-119678449D01*
X102745881Y-119698344D01*
X102750000Y-119698614D01*
X102754119Y-119698344D01*
X103057662Y-119678449D01*
X103057666Y-119678448D01*
X103061777Y-119678179D01*
X103065817Y-119677375D01*
X103065820Y-119677375D01*
X103364174Y-119618029D01*
X103364180Y-119618027D01*
X103368219Y-119617224D01*
X103372123Y-119615899D01*
X103372126Y-119615898D01*
X103660168Y-119518121D01*
X103660169Y-119518121D01*
X103664083Y-119516792D01*
X103667779Y-119514969D01*
X103667787Y-119514966D01*
X103906925Y-119397035D01*
X103944307Y-119378600D01*
X103952572Y-119373078D01*
X104015274Y-119331181D01*
X104204096Y-119205015D01*
X104207190Y-119202301D01*
X104207196Y-119202297D01*
X104435916Y-119001714D01*
X104439005Y-118999005D01*
X104555743Y-118865891D01*
X104642297Y-118767196D01*
X104642301Y-118767190D01*
X104645015Y-118764096D01*
X104805280Y-118524242D01*
X104816305Y-118507742D01*
X104816306Y-118507740D01*
X104818600Y-118504307D01*
X104843449Y-118453919D01*
X104954966Y-118227787D01*
X104954969Y-118227779D01*
X104956792Y-118224083D01*
X105057224Y-117928219D01*
X105099121Y-117717591D01*
X105117375Y-117625820D01*
X105117375Y-117625817D01*
X105118179Y-117621777D01*
X105118980Y-117609567D01*
X105138344Y-117314119D01*
X105138614Y-117310000D01*
X105127424Y-117139273D01*
X105118449Y-117002338D01*
X105118448Y-117002334D01*
X105118179Y-116998223D01*
X105114642Y-116980439D01*
X105058029Y-116695826D01*
X105058027Y-116695820D01*
X105057224Y-116691781D01*
X105031922Y-116617242D01*
X104958121Y-116399832D01*
X104958121Y-116399831D01*
X104956792Y-116395917D01*
X104954969Y-116392221D01*
X104954966Y-116392213D01*
X104820426Y-116119396D01*
X104818600Y-116115693D01*
X104814778Y-116109972D01*
X104686442Y-115917904D01*
X104645015Y-115855904D01*
X104642301Y-115852810D01*
X104642297Y-115852804D01*
X104441714Y-115624084D01*
X104439005Y-115620995D01*
X104407359Y-115593242D01*
X104207196Y-115417703D01*
X104207190Y-115417699D01*
X104204096Y-115414985D01*
X103944307Y-115241400D01*
X103893919Y-115216551D01*
X103667787Y-115105034D01*
X103667779Y-115105031D01*
X103664083Y-115103208D01*
X103510978Y-115051236D01*
X103372126Y-115004102D01*
X103372123Y-115004101D01*
X103368219Y-115002776D01*
X103364180Y-115001973D01*
X103364174Y-115001971D01*
X103065820Y-114942625D01*
X103065817Y-114942625D01*
X103061777Y-114941821D01*
X103057666Y-114941552D01*
X103057662Y-114941551D01*
X102754119Y-114921656D01*
X102750000Y-114921386D01*
X102745881Y-114921656D01*
X102442338Y-114941551D01*
X102442334Y-114941552D01*
X102438223Y-114941821D01*
X102434183Y-114942625D01*
X102434180Y-114942625D01*
X102135826Y-115001971D01*
X102135820Y-115001973D01*
X102131781Y-115002776D01*
X102127877Y-115004101D01*
X102127874Y-115004102D01*
X101989022Y-115051236D01*
X101835917Y-115103208D01*
X101832221Y-115105031D01*
X101832213Y-115105034D01*
X101606081Y-115216551D01*
X101555693Y-115241400D01*
X101295904Y-115414985D01*
X101292810Y-115417699D01*
X101292804Y-115417703D01*
X101092641Y-115593242D01*
X101060995Y-115620995D01*
X101058286Y-115624084D01*
X100857703Y-115852804D01*
X100857699Y-115852810D01*
X100854985Y-115855904D01*
X100813558Y-115917904D01*
X100685223Y-116109972D01*
X100681400Y-116115693D01*
X100679574Y-116119396D01*
X100545034Y-116392213D01*
X100545031Y-116392221D01*
X100543208Y-116395917D01*
X100541879Y-116399831D01*
X100541879Y-116399832D01*
X100468079Y-116617242D01*
X100442776Y-116691781D01*
X100441973Y-116695820D01*
X100441971Y-116695826D01*
X100385358Y-116980439D01*
X100381821Y-116998223D01*
X100381552Y-117002334D01*
X100381551Y-117002338D01*
X100372576Y-117139273D01*
X100361386Y-117310000D01*
X85558500Y-117310000D01*
X85558500Y-104680145D01*
X121527729Y-104680145D01*
X121527768Y-104682351D01*
X121531481Y-104895113D01*
X121531500Y-104897312D01*
X121531500Y-114522956D01*
X121531539Y-114524062D01*
X121531539Y-114524084D01*
X121537918Y-114706740D01*
X121546028Y-114938993D01*
X121563024Y-115100697D01*
X121596556Y-115419726D01*
X121604495Y-115495263D01*
X121604877Y-115497428D01*
X121668691Y-115859335D01*
X121701622Y-116046099D01*
X121836937Y-116588818D01*
X121837619Y-116590917D01*
X121837621Y-116590924D01*
X121999952Y-117090525D01*
X122009781Y-117120776D01*
X122010606Y-117122817D01*
X122010610Y-117122829D01*
X122218483Y-117637333D01*
X122218489Y-117637346D01*
X122219311Y-117639381D01*
X122220275Y-117641357D01*
X122220277Y-117641362D01*
X122431981Y-118075418D01*
X122464507Y-118142107D01*
X122744173Y-118626504D01*
X122745401Y-118628324D01*
X122745405Y-118628331D01*
X123017152Y-119031210D01*
X123056949Y-119090212D01*
X123401309Y-119530973D01*
X123402793Y-119532621D01*
X123774105Y-119945006D01*
X123774114Y-119945016D01*
X123775576Y-119946639D01*
X124177927Y-120335185D01*
X124179607Y-120336595D01*
X124179614Y-120336601D01*
X124320421Y-120454752D01*
X124606402Y-120694718D01*
X125058912Y-121023486D01*
X125533254Y-121319888D01*
X125774995Y-121448424D01*
X125984862Y-121560012D01*
X126027116Y-121582479D01*
X126029122Y-121583372D01*
X126029132Y-121583377D01*
X126536098Y-121809092D01*
X126536104Y-121809094D01*
X126538093Y-121809980D01*
X126540142Y-121810726D01*
X126540150Y-121810729D01*
X126743293Y-121884667D01*
X127063695Y-122001284D01*
X127601361Y-122155457D01*
X128148472Y-122271749D01*
X128702362Y-122349593D01*
X128704544Y-122349746D01*
X128704548Y-122349746D01*
X128748863Y-122352845D01*
X128815423Y-122377551D01*
X128858059Y-122434319D01*
X128863236Y-122505127D01*
X128829309Y-122567493D01*
X128781816Y-122597423D01*
X128774554Y-122599973D01*
X128766393Y-122603504D01*
X128531381Y-122725584D01*
X128523809Y-122730223D01*
X128378525Y-122834045D01*
X128370123Y-122844766D01*
X128377103Y-122857893D01*
X129527188Y-124007978D01*
X129541132Y-124015592D01*
X129542965Y-124015461D01*
X129549580Y-124011210D01*
X130702641Y-122858149D01*
X130709495Y-122845597D01*
X130701288Y-122834526D01*
X130607512Y-122762959D01*
X130600083Y-122758079D01*
X130369020Y-122628677D01*
X130360987Y-122624897D01*
X130287655Y-122596527D01*
X130231340Y-122553294D01*
X130207338Y-122486477D01*
X130223270Y-122417291D01*
X130274078Y-122367702D01*
X130324327Y-122353321D01*
X130375452Y-122349746D01*
X130375456Y-122349746D01*
X130377638Y-122349593D01*
X130931528Y-122271749D01*
X131478639Y-122155457D01*
X132016305Y-122001284D01*
X132336707Y-121884667D01*
X132539850Y-121810729D01*
X132539858Y-121810726D01*
X132541907Y-121809980D01*
X132543896Y-121809094D01*
X132543902Y-121809092D01*
X133050868Y-121583377D01*
X133050878Y-121583372D01*
X133052884Y-121582479D01*
X133095139Y-121560012D01*
X133305005Y-121448424D01*
X133546746Y-121319888D01*
X133904811Y-121096144D01*
X151639128Y-121096144D01*
X151646182Y-121106114D01*
X151695298Y-121147182D01*
X151702240Y-121152225D01*
X151944212Y-121304014D01*
X151951763Y-121308063D01*
X152212112Y-121425614D01*
X152220143Y-121428601D01*
X152494034Y-121509732D01*
X152502386Y-121511599D01*
X152784760Y-121554808D01*
X152793293Y-121555524D01*
X153078914Y-121560012D01*
X153087465Y-121559563D01*
X153371056Y-121525245D01*
X153379457Y-121523643D01*
X153655780Y-121451151D01*
X153663882Y-121448424D01*
X153927805Y-121339103D01*
X153935467Y-121335300D01*
X154182103Y-121191177D01*
X154189190Y-121186361D01*
X154291497Y-121106143D01*
X154298639Y-121096144D01*
X161799128Y-121096144D01*
X161806182Y-121106114D01*
X161855298Y-121147182D01*
X161862240Y-121152225D01*
X162104212Y-121304014D01*
X162111763Y-121308063D01*
X162372112Y-121425614D01*
X162380143Y-121428601D01*
X162654034Y-121509732D01*
X162662386Y-121511599D01*
X162944760Y-121554808D01*
X162953293Y-121555524D01*
X163238914Y-121560012D01*
X163247465Y-121559563D01*
X163531056Y-121525245D01*
X163539457Y-121523643D01*
X163815780Y-121451151D01*
X163823882Y-121448424D01*
X164087805Y-121339103D01*
X164095467Y-121335300D01*
X164342103Y-121191177D01*
X164349190Y-121186361D01*
X164451497Y-121106143D01*
X164459968Y-121094283D01*
X164453452Y-121082662D01*
X163142812Y-119772022D01*
X163128868Y-119764408D01*
X163127035Y-119764539D01*
X163120420Y-119768790D01*
X161806421Y-121082789D01*
X161799128Y-121096144D01*
X154298639Y-121096144D01*
X154299968Y-121094283D01*
X154293452Y-121082662D01*
X152982812Y-119772022D01*
X152968868Y-119764408D01*
X152967035Y-119764539D01*
X152960420Y-119768790D01*
X151646421Y-121082789D01*
X151639128Y-121096144D01*
X133904811Y-121096144D01*
X134021088Y-121023486D01*
X134473598Y-120694718D01*
X134759579Y-120454752D01*
X134900386Y-120336601D01*
X134900393Y-120336595D01*
X134902073Y-120335185D01*
X135304424Y-119946639D01*
X135305886Y-119945016D01*
X135305895Y-119945006D01*
X135677207Y-119532621D01*
X135678691Y-119530973D01*
X135795371Y-119381629D01*
X150807323Y-119381629D01*
X150823766Y-119666814D01*
X150824839Y-119675313D01*
X150879837Y-119955636D01*
X150882048Y-119963888D01*
X150974581Y-120234157D01*
X150977896Y-120242042D01*
X151106251Y-120497247D01*
X151110608Y-120504613D01*
X151261474Y-120724124D01*
X151271727Y-120732468D01*
X151285468Y-120725322D01*
X152597978Y-119412812D01*
X152604356Y-119401132D01*
X153334408Y-119401132D01*
X153334539Y-119402965D01*
X153338790Y-119409580D01*
X154653033Y-120723823D01*
X154665242Y-120730490D01*
X154676742Y-120721800D01*
X154793777Y-120562475D01*
X154798364Y-120555247D01*
X154934667Y-120304209D01*
X154938235Y-120296415D01*
X155039205Y-120029206D01*
X155041682Y-120021000D01*
X155105454Y-119742558D01*
X155106794Y-119734097D01*
X155132349Y-119447764D01*
X155132595Y-119442825D01*
X155133017Y-119402485D01*
X155132874Y-119397519D01*
X155131791Y-119381629D01*
X160967323Y-119381629D01*
X160983766Y-119666814D01*
X160984839Y-119675313D01*
X161039837Y-119955636D01*
X161042048Y-119963888D01*
X161134581Y-120234157D01*
X161137896Y-120242042D01*
X161266251Y-120497247D01*
X161270608Y-120504613D01*
X161421474Y-120724124D01*
X161431727Y-120732468D01*
X161445468Y-120725322D01*
X162757978Y-119412812D01*
X162764356Y-119401132D01*
X163494408Y-119401132D01*
X163494539Y-119402965D01*
X163498790Y-119409580D01*
X164813033Y-120723823D01*
X164825242Y-120730490D01*
X164836742Y-120721800D01*
X164953777Y-120562475D01*
X164958364Y-120555247D01*
X165094667Y-120304209D01*
X165098235Y-120296415D01*
X165199205Y-120029206D01*
X165201682Y-120021000D01*
X165265454Y-119742558D01*
X165266794Y-119734097D01*
X165292349Y-119447764D01*
X165292595Y-119442825D01*
X165293017Y-119402485D01*
X165292874Y-119397519D01*
X165273322Y-119110718D01*
X165272161Y-119102244D01*
X165214231Y-118822512D01*
X165211932Y-118814277D01*
X165116574Y-118544993D01*
X165113177Y-118537143D01*
X164982155Y-118283292D01*
X164977727Y-118275980D01*
X164837701Y-118076746D01*
X164827180Y-118068366D01*
X164813792Y-118075418D01*
X163502022Y-119387188D01*
X163494408Y-119401132D01*
X162764356Y-119401132D01*
X162765592Y-119398868D01*
X162765461Y-119397035D01*
X162761210Y-119390420D01*
X161446334Y-118075544D01*
X161434323Y-118068985D01*
X161422585Y-118077953D01*
X161294151Y-118256687D01*
X161289636Y-118263968D01*
X161155973Y-118516414D01*
X161152487Y-118524242D01*
X161054318Y-118792499D01*
X161051929Y-118800722D01*
X160991074Y-119079830D01*
X160989825Y-119088285D01*
X160967412Y-119373078D01*
X160967323Y-119381629D01*
X155131791Y-119381629D01*
X155113322Y-119110718D01*
X155112161Y-119102244D01*
X155054231Y-118822512D01*
X155051932Y-118814277D01*
X154956574Y-118544993D01*
X154953177Y-118537143D01*
X154822155Y-118283292D01*
X154817727Y-118275980D01*
X154677701Y-118076746D01*
X154667180Y-118068366D01*
X154653792Y-118075418D01*
X153342022Y-119387188D01*
X153334408Y-119401132D01*
X152604356Y-119401132D01*
X152605592Y-119398868D01*
X152605461Y-119397035D01*
X152601210Y-119390420D01*
X151286334Y-118075544D01*
X151274323Y-118068985D01*
X151262585Y-118077953D01*
X151134151Y-118256687D01*
X151129636Y-118263968D01*
X150995973Y-118516414D01*
X150992487Y-118524242D01*
X150894318Y-118792499D01*
X150891929Y-118800722D01*
X150831074Y-119079830D01*
X150829825Y-119088285D01*
X150807412Y-119373078D01*
X150807323Y-119381629D01*
X135795371Y-119381629D01*
X136023051Y-119090212D01*
X136062848Y-119031210D01*
X136334595Y-118628331D01*
X136334599Y-118628324D01*
X136335827Y-118626504D01*
X136615493Y-118142107D01*
X136647958Y-118075544D01*
X136859722Y-117641365D01*
X136859729Y-117641349D01*
X136860689Y-117639381D01*
X136865894Y-117626500D01*
X136937574Y-117449085D01*
X136981638Y-117393417D01*
X137005164Y-117380303D01*
X137292076Y-117258516D01*
X137341308Y-117248500D01*
X151906750Y-117248500D01*
X151974871Y-117268502D01*
X152021364Y-117322158D01*
X152031468Y-117392432D01*
X152001974Y-117457012D01*
X151971456Y-117482616D01*
X151739204Y-117621615D01*
X151732175Y-117626500D01*
X151648341Y-117693664D01*
X151639872Y-117705789D01*
X151646267Y-117717057D01*
X152957188Y-119027978D01*
X152971132Y-119035592D01*
X152972965Y-119035461D01*
X152979580Y-119031210D01*
X154293199Y-117717591D01*
X154300390Y-117704422D01*
X154293068Y-117694185D01*
X154226328Y-117639560D01*
X154219356Y-117634605D01*
X153972129Y-117483104D01*
X153972890Y-117481862D01*
X153926248Y-117436877D01*
X153909903Y-117367788D01*
X153933505Y-117300829D01*
X153989562Y-117257261D01*
X154035724Y-117248500D01*
X162066750Y-117248500D01*
X162134871Y-117268502D01*
X162181364Y-117322158D01*
X162191468Y-117392432D01*
X162161974Y-117457012D01*
X162131456Y-117482616D01*
X161899204Y-117621615D01*
X161892175Y-117626500D01*
X161808341Y-117693664D01*
X161799872Y-117705789D01*
X161806267Y-117717057D01*
X163117188Y-119027978D01*
X163131132Y-119035592D01*
X163132965Y-119035461D01*
X163139580Y-119031210D01*
X164453199Y-117717591D01*
X164460390Y-117704422D01*
X164453068Y-117694185D01*
X164386328Y-117639560D01*
X164379356Y-117634605D01*
X164135791Y-117485348D01*
X164128193Y-117481376D01*
X164029268Y-117437951D01*
X163974933Y-117392255D01*
X163953928Y-117324437D01*
X163972923Y-117256029D01*
X164025886Y-117208749D01*
X164068931Y-117197058D01*
X164104405Y-117193954D01*
X164104435Y-117193950D01*
X164106599Y-117193761D01*
X164153739Y-117186294D01*
X164172444Y-117183332D01*
X164178985Y-117182471D01*
X164204681Y-117179770D01*
X164245263Y-117175505D01*
X164450778Y-117139267D01*
X164452896Y-117138913D01*
X164659046Y-117106262D01*
X164724020Y-117091262D01*
X164730450Y-117089954D01*
X164757867Y-117085120D01*
X164793929Y-117078761D01*
X164793939Y-117078759D01*
X164796099Y-117078378D01*
X164798241Y-117077844D01*
X164998530Y-117027907D01*
X165000668Y-117027393D01*
X165201898Y-116980935D01*
X165201907Y-116980933D01*
X165204045Y-116980439D01*
X165206141Y-116979798D01*
X165206153Y-116979795D01*
X165267798Y-116960948D01*
X165274148Y-116959187D01*
X165338818Y-116943063D01*
X165453563Y-116905780D01*
X165537270Y-116878582D01*
X165539367Y-116877921D01*
X165736836Y-116817549D01*
X165736845Y-116817546D01*
X165738938Y-116816906D01*
X165740979Y-116816122D01*
X165740995Y-116816117D01*
X165801180Y-116793014D01*
X165807397Y-116790812D01*
X165870776Y-116770219D01*
X166064297Y-116692031D01*
X166066296Y-116691244D01*
X166127151Y-116667884D01*
X166259079Y-116617242D01*
X166259092Y-116617236D01*
X166261120Y-116616458D01*
X166321537Y-116588285D01*
X166327585Y-116585656D01*
X166387333Y-116561517D01*
X166387347Y-116561511D01*
X166389381Y-116560689D01*
X166391362Y-116559723D01*
X166576911Y-116469225D01*
X166578896Y-116468278D01*
X166766058Y-116381003D01*
X166766061Y-116381002D01*
X166768050Y-116380074D01*
X166769972Y-116379009D01*
X166769983Y-116379003D01*
X166826374Y-116347745D01*
X166832225Y-116344699D01*
X166892107Y-116315493D01*
X166894017Y-116314390D01*
X166894025Y-116314386D01*
X167072811Y-116211164D01*
X167074725Y-116210081D01*
X167238324Y-116119396D01*
X167257254Y-116108903D01*
X167313152Y-116072603D01*
X167318771Y-116069160D01*
X167374596Y-116036929D01*
X167374604Y-116036924D01*
X167376504Y-116035827D01*
X167549614Y-115919063D01*
X167551303Y-115917945D01*
X167726350Y-115804268D01*
X167779583Y-115764154D01*
X167784954Y-115760323D01*
X167838377Y-115724289D01*
X167838382Y-115724285D01*
X167840212Y-115723051D01*
X167966885Y-115624084D01*
X168004649Y-115594580D01*
X168006393Y-115593242D01*
X168171298Y-115468976D01*
X168173054Y-115467653D01*
X168223360Y-115423923D01*
X168228450Y-115419726D01*
X168279245Y-115380041D01*
X168280973Y-115378691D01*
X168282595Y-115377231D01*
X168282604Y-115377223D01*
X168354902Y-115312125D01*
X168436090Y-115239022D01*
X168437658Y-115237636D01*
X168590199Y-115105034D01*
X168593526Y-115102142D01*
X168593530Y-115102138D01*
X168595188Y-115100697D01*
X168642314Y-115053571D01*
X168647099Y-115049030D01*
X168695006Y-115005895D01*
X168695016Y-115005886D01*
X168696639Y-115004424D01*
X168841643Y-114854268D01*
X168843185Y-114852700D01*
X168990697Y-114705188D01*
X169034434Y-114654875D01*
X169038866Y-114650038D01*
X169060514Y-114627621D01*
X169083656Y-114603657D01*
X169083665Y-114603647D01*
X169085185Y-114602073D01*
X169150626Y-114524084D01*
X169219325Y-114442211D01*
X169220754Y-114440538D01*
X169223385Y-114437512D01*
X169357653Y-114283054D01*
X169397778Y-114229807D01*
X169401872Y-114224661D01*
X169443293Y-114175296D01*
X169444718Y-114173598D01*
X169567406Y-114004734D01*
X169568704Y-114002980D01*
X169692939Y-113838113D01*
X169694268Y-113836350D01*
X169701119Y-113825801D01*
X169730566Y-113780457D01*
X169734301Y-113775022D01*
X169747636Y-113756668D01*
X169773486Y-113721088D01*
X169884101Y-113544069D01*
X169885257Y-113542254D01*
X169997707Y-113369097D01*
X169997718Y-113369079D01*
X169998903Y-113367254D01*
X169999956Y-113365354D01*
X169999970Y-113365331D01*
X170031220Y-113308954D01*
X170034568Y-113303270D01*
X170068720Y-113248616D01*
X170068726Y-113248606D01*
X170069888Y-113246746D01*
X170167865Y-113062480D01*
X170168902Y-113060569D01*
X170269004Y-112879981D01*
X170269008Y-112879973D01*
X170270074Y-112878050D01*
X170271011Y-112876041D01*
X170298246Y-112817637D01*
X170301188Y-112811736D01*
X170331450Y-112754820D01*
X170331454Y-112754811D01*
X170332479Y-112752884D01*
X170417361Y-112562236D01*
X170418273Y-112560235D01*
X170505537Y-112373095D01*
X170506458Y-112371120D01*
X170530340Y-112308905D01*
X170532864Y-112302812D01*
X170559087Y-112243913D01*
X170559088Y-112243910D01*
X170559980Y-112241907D01*
X170631361Y-112045792D01*
X170632120Y-112043762D01*
X170706111Y-111851010D01*
X170706114Y-111851001D01*
X170706906Y-111848938D01*
X170726397Y-111785185D01*
X170728490Y-111778930D01*
X170751284Y-111716305D01*
X170808809Y-111515692D01*
X170809427Y-111513605D01*
X170869793Y-111316159D01*
X170869795Y-111316151D01*
X170870439Y-111314045D01*
X170870935Y-111311895D01*
X170870941Y-111311874D01*
X170885438Y-111249083D01*
X170887089Y-111242697D01*
X170904848Y-111180763D01*
X170904848Y-111180762D01*
X170905457Y-111178639D01*
X170948839Y-110974542D01*
X170949315Y-110972395D01*
X170995769Y-110771182D01*
X170995770Y-110771178D01*
X170996262Y-110769046D01*
X171006692Y-110703198D01*
X171007894Y-110696714D01*
X171021291Y-110633681D01*
X171021749Y-110631528D01*
X171050787Y-110424913D01*
X171051112Y-110422738D01*
X171083420Y-110218750D01*
X171083761Y-110216599D01*
X171083951Y-110214431D01*
X171083954Y-110214404D01*
X171089573Y-110150182D01*
X171090319Y-110143629D01*
X171099288Y-110079809D01*
X171099288Y-110079806D01*
X171099593Y-110077638D01*
X171114145Y-109869536D01*
X171114317Y-109867343D01*
X171132318Y-109661586D01*
X171132510Y-109659394D01*
X171133674Y-109592733D01*
X171133962Y-109586145D01*
X171138457Y-109521860D01*
X171138457Y-109521850D01*
X171138610Y-109519667D01*
X171138610Y-109311009D01*
X171138629Y-109308810D01*
X171142232Y-109102351D01*
X171142271Y-109100145D01*
X171138783Y-109033589D01*
X171138610Y-109026995D01*
X171138610Y-108960333D01*
X171124053Y-108752151D01*
X171123919Y-108749957D01*
X171113113Y-108543776D01*
X171112998Y-108541578D01*
X171104875Y-108475418D01*
X171104243Y-108468853D01*
X171099746Y-108404551D01*
X171099593Y-108402362D01*
X171070546Y-108195685D01*
X171070260Y-108193511D01*
X171045100Y-107988594D01*
X171045099Y-107988585D01*
X171044832Y-107986414D01*
X171032117Y-107920999D01*
X171031028Y-107914494D01*
X171022053Y-107850635D01*
X171021749Y-107848472D01*
X170978359Y-107644336D01*
X170977921Y-107642181D01*
X170938529Y-107439526D01*
X170938528Y-107439521D01*
X170938107Y-107437356D01*
X170937534Y-107435217D01*
X170920850Y-107372949D01*
X170919311Y-107366537D01*
X170916891Y-107355150D01*
X170905457Y-107301361D01*
X170847928Y-107100735D01*
X170847347Y-107098640D01*
X170793909Y-106899207D01*
X170793340Y-106897082D01*
X170771641Y-106834064D01*
X170769657Y-106827771D01*
X170766942Y-106818302D01*
X170751284Y-106763695D01*
X170750349Y-106761125D01*
X170744365Y-106744684D01*
X170736969Y-106694447D01*
X170739898Y-106642856D01*
X170740000Y-106641067D01*
X170740000Y-97693662D01*
X170740001Y-97693112D01*
X170741375Y-97378225D01*
X170741375Y-97378210D01*
X170741383Y-97376289D01*
X170736182Y-97284681D01*
X170731074Y-97194725D01*
X170730930Y-97191430D01*
X170725435Y-97011608D01*
X170725376Y-97009667D01*
X170712983Y-96874796D01*
X170712659Y-96870437D01*
X170712320Y-96864457D01*
X170704980Y-96735189D01*
X170683596Y-96554523D01*
X170683253Y-96551248D01*
X170676915Y-96482270D01*
X170666620Y-96370228D01*
X170651486Y-96271900D01*
X170646020Y-96236382D01*
X170645427Y-96232026D01*
X170629730Y-96099413D01*
X170629505Y-96097508D01*
X170619820Y-96043946D01*
X170597148Y-95918573D01*
X170596603Y-95915319D01*
X170569231Y-95737478D01*
X170569230Y-95737472D01*
X170568937Y-95735569D01*
X170540198Y-95603203D01*
X170539340Y-95598891D01*
X170515582Y-95467511D01*
X170515241Y-95465624D01*
X170472023Y-95289006D01*
X170471281Y-95285792D01*
X170433099Y-95109936D01*
X170433097Y-95109928D01*
X170432691Y-95108058D01*
X170395918Y-94977672D01*
X170394803Y-94973436D01*
X170363871Y-94847024D01*
X170362615Y-94841893D01*
X170308680Y-94668190D01*
X170307748Y-94665043D01*
X170305284Y-94656305D01*
X170258390Y-94490034D01*
X170213737Y-94362166D01*
X170212360Y-94357990D01*
X170187835Y-94279005D01*
X170172197Y-94228644D01*
X170171506Y-94226820D01*
X170107759Y-94058561D01*
X170106631Y-94055462D01*
X170047315Y-93885608D01*
X170046685Y-93883804D01*
X169994316Y-93758918D01*
X169992686Y-93754833D01*
X169945373Y-93629951D01*
X169945366Y-93629934D01*
X169944695Y-93628163D01*
X169887038Y-93500168D01*
X169869999Y-93462344D01*
X169868684Y-93459319D01*
X169817276Y-93336726D01*
X169798365Y-93291628D01*
X169738455Y-93170143D01*
X169736579Y-93166165D01*
X169681754Y-93044458D01*
X169681754Y-93044457D01*
X169680958Y-93042691D01*
X169596282Y-92881747D01*
X169594813Y-92878865D01*
X169515202Y-92717431D01*
X169514357Y-92715717D01*
X169447142Y-92598116D01*
X169445028Y-92594263D01*
X169411542Y-92530615D01*
X169381972Y-92474412D01*
X169353603Y-92427660D01*
X169287639Y-92318955D01*
X169285965Y-92316114D01*
X169196678Y-92159895D01*
X169196677Y-92159893D01*
X169195720Y-92158219D01*
X169121454Y-92044944D01*
X169119117Y-92041240D01*
X169049855Y-91927099D01*
X169048852Y-91925446D01*
X168999773Y-91854698D01*
X168945196Y-91776026D01*
X168943352Y-91773292D01*
X168844695Y-91622814D01*
X168844684Y-91622799D01*
X168843644Y-91621212D01*
X168762591Y-91512668D01*
X168760029Y-91509109D01*
X168682838Y-91397839D01*
X168681147Y-91395693D01*
X168570256Y-91255030D01*
X168568248Y-91252413D01*
X168460595Y-91108247D01*
X168460586Y-91108236D01*
X168459440Y-91106701D01*
X168458206Y-91105243D01*
X168458193Y-91105227D01*
X168371919Y-91003318D01*
X168369136Y-90999911D01*
X168286493Y-90895078D01*
X168285298Y-90893562D01*
X168164212Y-90757896D01*
X168162048Y-90755407D01*
X168045794Y-90618083D01*
X168044543Y-90616605D01*
X167950877Y-90518760D01*
X167947892Y-90515530D01*
X167875147Y-90434026D01*
X167875144Y-90434023D01*
X167873958Y-90432694D01*
X167746859Y-90305595D01*
X167744936Y-90303631D01*
X167601821Y-90154131D01*
X167600500Y-90152751D01*
X167516529Y-90075129D01*
X167512964Y-90071700D01*
X155785950Y-78344687D01*
X155785238Y-78343975D01*
X155436446Y-78015865D01*
X155434976Y-78014643D01*
X155434962Y-78014630D01*
X154944227Y-77606490D01*
X154944226Y-77606489D01*
X154942748Y-77605260D01*
X154424904Y-77225560D01*
X153884846Y-76878184D01*
X153883180Y-76877251D01*
X153883170Y-76877245D01*
X153326270Y-76565366D01*
X153326271Y-76565366D01*
X153324588Y-76564424D01*
X153322873Y-76563597D01*
X153322860Y-76563590D01*
X152902400Y-76360785D01*
X152746220Y-76285453D01*
X152151900Y-76042310D01*
X151543846Y-75835903D01*
X150924325Y-75667003D01*
X150922454Y-75666614D01*
X150922438Y-75666610D01*
X150297533Y-75536629D01*
X150297530Y-75536629D01*
X150295648Y-75536237D01*
X149814389Y-75466458D01*
X149662057Y-75444371D01*
X149662055Y-75444371D01*
X149660160Y-75444096D01*
X149658247Y-75443937D01*
X149022154Y-75391081D01*
X149022136Y-75391080D01*
X149020234Y-75390922D01*
X149018314Y-75390880D01*
X149018312Y-75390880D01*
X148863145Y-75387494D01*
X148378254Y-75376914D01*
X148376346Y-75376989D01*
X148376342Y-75376989D01*
X147738539Y-75402048D01*
X147738525Y-75402049D01*
X147736616Y-75402124D01*
X147734702Y-75402317D01*
X147734698Y-75402317D01*
X147099621Y-75466266D01*
X147099619Y-75466266D01*
X147097715Y-75466458D01*
X146463932Y-75569676D01*
X145837633Y-75711394D01*
X145221154Y-75891080D01*
X145219349Y-75891728D01*
X145219343Y-75891730D01*
X144618602Y-76107419D01*
X144618596Y-76107421D01*
X144616795Y-76108068D01*
X144615045Y-76108820D01*
X144615037Y-76108823D01*
X144328986Y-76231721D01*
X144026809Y-76361546D01*
X144025088Y-76362414D01*
X144025074Y-76362420D01*
X143464049Y-76645200D01*
X143453398Y-76650569D01*
X142898701Y-76974058D01*
X142364788Y-77330808D01*
X141853649Y-77719487D01*
X141367192Y-78138645D01*
X141365820Y-78139982D01*
X140908607Y-78585378D01*
X140908598Y-78585387D01*
X140907231Y-78586719D01*
X140475483Y-79062038D01*
X140073557Y-79562826D01*
X140072449Y-79564393D01*
X140072436Y-79564411D01*
X139853987Y-79873510D01*
X139702953Y-80087218D01*
X139365054Y-80633256D01*
X139364141Y-80634956D01*
X139063075Y-81195268D01*
X139061120Y-81198906D01*
X139060315Y-81200653D01*
X138798486Y-81768606D01*
X138792286Y-81782054D01*
X138791595Y-81783831D01*
X138560253Y-82378722D01*
X138560248Y-82378737D01*
X138559552Y-82380526D01*
X138558963Y-82382366D01*
X138389335Y-82912285D01*
X138363789Y-82992090D01*
X138363321Y-82993931D01*
X138363318Y-82993943D01*
X138315550Y-83182032D01*
X138205726Y-83614465D01*
X138085952Y-84245328D01*
X138004917Y-84882327D01*
X137998783Y-84975917D01*
X137997706Y-84992345D01*
X137973292Y-85059012D01*
X137961071Y-85073199D01*
X123931818Y-99102452D01*
X123930250Y-99103994D01*
X123775576Y-99253361D01*
X123659978Y-99381746D01*
X123636010Y-99408365D01*
X123634525Y-99409986D01*
X123569500Y-99479718D01*
X123492140Y-99562676D01*
X123490764Y-99564376D01*
X123490739Y-99564404D01*
X123450185Y-99614485D01*
X123445902Y-99619501D01*
X123402786Y-99667386D01*
X123402779Y-99667395D01*
X123401309Y-99669027D01*
X123272778Y-99833539D01*
X123271496Y-99835150D01*
X123141544Y-99995627D01*
X123141528Y-99995648D01*
X123140141Y-99997361D01*
X123138873Y-99999172D01*
X123101915Y-100051953D01*
X123097995Y-100057250D01*
X123056949Y-100109788D01*
X123055731Y-100111594D01*
X123055717Y-100111613D01*
X122940231Y-100282828D01*
X122939006Y-100284611D01*
X122819320Y-100455540D01*
X122818183Y-100457432D01*
X122818178Y-100457440D01*
X122785001Y-100512656D01*
X122781456Y-100518221D01*
X122745415Y-100571654D01*
X122744173Y-100573496D01*
X122743069Y-100575409D01*
X122639833Y-100754219D01*
X122638717Y-100756114D01*
X122531242Y-100934982D01*
X122500981Y-100994373D01*
X122497834Y-101000169D01*
X122464507Y-101057893D01*
X122463542Y-101059872D01*
X122463537Y-101059881D01*
X122373035Y-101245438D01*
X122372065Y-101247385D01*
X122277310Y-101433352D01*
X122261492Y-101470618D01*
X122251265Y-101494710D01*
X122248529Y-101500713D01*
X122219311Y-101560619D01*
X122218489Y-101562653D01*
X122218483Y-101562667D01*
X122141147Y-101754082D01*
X122140306Y-101756114D01*
X122058761Y-101948222D01*
X122058040Y-101950316D01*
X122058035Y-101950329D01*
X122037060Y-102011244D01*
X122034750Y-102017424D01*
X122009781Y-102079224D01*
X122009102Y-102081314D01*
X121945281Y-102277734D01*
X121944605Y-102279754D01*
X121876660Y-102477082D01*
X121876088Y-102479217D01*
X121859412Y-102541451D01*
X121857539Y-102547775D01*
X121837621Y-102609075D01*
X121837617Y-102609091D01*
X121836937Y-102611182D01*
X121836401Y-102613333D01*
X121786460Y-102813634D01*
X121785910Y-102815763D01*
X121731893Y-103017356D01*
X121731476Y-103019503D01*
X121731475Y-103019506D01*
X121719175Y-103082786D01*
X121717747Y-103089228D01*
X121701622Y-103153901D01*
X121701239Y-103156075D01*
X121665380Y-103359440D01*
X121664980Y-103361598D01*
X121625168Y-103566414D01*
X121624902Y-103568583D01*
X121617047Y-103632558D01*
X121616076Y-103639059D01*
X121604495Y-103704737D01*
X121604266Y-103706916D01*
X121604265Y-103706923D01*
X121582678Y-103912306D01*
X121582430Y-103914483D01*
X121557002Y-104121578D01*
X121553514Y-104188132D01*
X121553000Y-104194673D01*
X121546028Y-104261007D01*
X121545951Y-104263218D01*
X121538744Y-104469602D01*
X121538648Y-104471799D01*
X121527729Y-104680145D01*
X85558500Y-104680145D01*
X85558500Y-103694953D01*
X85578502Y-103626832D01*
X85595405Y-103605858D01*
X89296025Y-99905238D01*
X89362731Y-99834328D01*
X89622817Y-99557847D01*
X89624135Y-99556446D01*
X89625357Y-99554976D01*
X89625370Y-99554962D01*
X90033510Y-99064227D01*
X90033511Y-99064226D01*
X90034740Y-99062748D01*
X90414440Y-98544904D01*
X90761817Y-98004846D01*
X91075576Y-97444588D01*
X91354547Y-96866220D01*
X91597690Y-96271900D01*
X91804097Y-95663845D01*
X91972997Y-95044324D01*
X91979351Y-95013780D01*
X92103371Y-94417533D01*
X92103371Y-94417530D01*
X92103763Y-94415648D01*
X92195904Y-93780160D01*
X92200951Y-93719425D01*
X92248919Y-93142154D01*
X92248920Y-93142136D01*
X92249078Y-93140234D01*
X92251244Y-93040991D01*
X92256158Y-92815773D01*
X92261084Y-92590000D01*
X93661386Y-92590000D01*
X93681821Y-92901777D01*
X93682625Y-92905817D01*
X93682625Y-92905820D01*
X93738839Y-93188425D01*
X93742776Y-93208219D01*
X93744101Y-93212123D01*
X93744102Y-93212126D01*
X93841879Y-93500168D01*
X93843208Y-93504083D01*
X93845031Y-93507779D01*
X93845034Y-93507787D01*
X93949404Y-93719425D01*
X93981400Y-93784307D01*
X94154985Y-94044096D01*
X94157699Y-94047190D01*
X94157703Y-94047196D01*
X94318454Y-94230496D01*
X94360995Y-94279005D01*
X94364084Y-94281714D01*
X94592804Y-94482297D01*
X94592810Y-94482301D01*
X94595904Y-94485015D01*
X94855693Y-94658600D01*
X94859396Y-94660426D01*
X95132213Y-94794966D01*
X95132221Y-94794969D01*
X95135917Y-94796792D01*
X95139831Y-94798121D01*
X95139832Y-94798121D01*
X95427874Y-94895898D01*
X95427877Y-94895899D01*
X95431781Y-94897224D01*
X95435820Y-94898027D01*
X95435826Y-94898029D01*
X95734180Y-94957375D01*
X95734183Y-94957375D01*
X95738223Y-94958179D01*
X95742334Y-94958448D01*
X95742338Y-94958449D01*
X96045881Y-94978344D01*
X96050000Y-94978614D01*
X96054119Y-94978344D01*
X96357662Y-94958449D01*
X96357666Y-94958448D01*
X96361777Y-94958179D01*
X96365817Y-94957375D01*
X96365820Y-94957375D01*
X96664174Y-94898029D01*
X96664180Y-94898027D01*
X96668219Y-94897224D01*
X96672123Y-94895899D01*
X96672126Y-94895898D01*
X96960168Y-94798121D01*
X96960169Y-94798121D01*
X96964083Y-94796792D01*
X96967779Y-94794969D01*
X96967787Y-94794966D01*
X97240604Y-94660426D01*
X97244307Y-94658600D01*
X97504096Y-94485015D01*
X97507190Y-94482301D01*
X97507196Y-94482297D01*
X97735916Y-94281714D01*
X97739005Y-94279005D01*
X97781546Y-94230496D01*
X97942297Y-94047196D01*
X97942301Y-94047190D01*
X97945015Y-94044096D01*
X98118600Y-93784307D01*
X98150596Y-93719425D01*
X98254966Y-93507787D01*
X98254969Y-93507779D01*
X98256792Y-93504083D01*
X98258121Y-93500168D01*
X98355898Y-93212126D01*
X98355899Y-93212123D01*
X98357224Y-93208219D01*
X98361162Y-93188425D01*
X98417375Y-92905820D01*
X98417375Y-92905817D01*
X98418179Y-92901777D01*
X98438614Y-92590000D01*
X98431038Y-92474412D01*
X98418449Y-92282338D01*
X98418448Y-92282334D01*
X98418179Y-92278223D01*
X98417375Y-92274180D01*
X98358029Y-91975826D01*
X98358027Y-91975820D01*
X98357224Y-91971781D01*
X98341496Y-91925446D01*
X98258121Y-91679832D01*
X98258121Y-91679831D01*
X98256792Y-91675917D01*
X98254969Y-91672221D01*
X98254966Y-91672213D01*
X98120426Y-91399396D01*
X98118600Y-91395693D01*
X97945015Y-91135904D01*
X97942301Y-91132810D01*
X97942297Y-91132804D01*
X97741714Y-90904084D01*
X97739005Y-90900995D01*
X97728891Y-90892125D01*
X97507196Y-90697703D01*
X97507190Y-90697699D01*
X97504096Y-90694985D01*
X97244307Y-90521400D01*
X97193919Y-90496551D01*
X96967787Y-90385034D01*
X96967779Y-90385031D01*
X96964083Y-90383208D01*
X96735442Y-90305595D01*
X96672126Y-90284102D01*
X96672123Y-90284101D01*
X96668219Y-90282776D01*
X96664180Y-90281973D01*
X96664174Y-90281971D01*
X96365820Y-90222625D01*
X96365817Y-90222625D01*
X96361777Y-90221821D01*
X96357666Y-90221552D01*
X96357662Y-90221551D01*
X96054119Y-90201656D01*
X96050000Y-90201386D01*
X96045881Y-90201656D01*
X95742338Y-90221551D01*
X95742334Y-90221552D01*
X95738223Y-90221821D01*
X95734183Y-90222625D01*
X95734180Y-90222625D01*
X95435826Y-90281971D01*
X95435820Y-90281973D01*
X95431781Y-90282776D01*
X95427877Y-90284101D01*
X95427874Y-90284102D01*
X95364558Y-90305595D01*
X95135917Y-90383208D01*
X95132221Y-90385031D01*
X95132213Y-90385034D01*
X94906081Y-90496551D01*
X94855693Y-90521400D01*
X94595904Y-90694985D01*
X94592810Y-90697699D01*
X94592804Y-90697703D01*
X94371109Y-90892125D01*
X94360995Y-90900995D01*
X94358286Y-90904084D01*
X94157703Y-91132804D01*
X94157699Y-91132810D01*
X94154985Y-91135904D01*
X93981400Y-91395693D01*
X93979574Y-91399396D01*
X93845034Y-91672213D01*
X93845031Y-91672221D01*
X93843208Y-91675917D01*
X93841879Y-91679831D01*
X93841879Y-91679832D01*
X93758505Y-91925446D01*
X93742776Y-91971781D01*
X93741973Y-91975820D01*
X93741971Y-91975826D01*
X93682625Y-92274180D01*
X93681821Y-92278223D01*
X93681552Y-92282334D01*
X93681551Y-92282338D01*
X93668962Y-92474412D01*
X93661386Y-92590000D01*
X92261084Y-92590000D01*
X92263086Y-92498254D01*
X92260379Y-92429352D01*
X92237952Y-91858539D01*
X92237951Y-91858525D01*
X92237876Y-91856616D01*
X92235150Y-91829539D01*
X92173734Y-91219621D01*
X92173734Y-91219619D01*
X92173542Y-91217715D01*
X92070324Y-90583932D01*
X91928606Y-89957633D01*
X91748920Y-89341154D01*
X91531932Y-88736795D01*
X91278454Y-88146809D01*
X91277586Y-88145088D01*
X91277580Y-88145074D01*
X90990305Y-87575132D01*
X90989431Y-87573398D01*
X90665942Y-87018701D01*
X90309193Y-86484788D01*
X89920514Y-85973649D01*
X89848437Y-85890000D01*
X118381386Y-85890000D01*
X118401821Y-86201777D01*
X118462776Y-86508219D01*
X118563208Y-86804083D01*
X118565031Y-86807779D01*
X118565034Y-86807787D01*
X118669875Y-87020382D01*
X118701400Y-87084307D01*
X118874985Y-87344096D01*
X118877699Y-87347190D01*
X118877703Y-87347196D01*
X119074607Y-87571721D01*
X119080995Y-87579005D01*
X119084084Y-87581714D01*
X119312804Y-87782297D01*
X119312810Y-87782301D01*
X119315904Y-87785015D01*
X119575693Y-87958600D01*
X119579396Y-87960426D01*
X119852213Y-88094966D01*
X119852221Y-88094969D01*
X119855917Y-88096792D01*
X119859831Y-88098121D01*
X119859832Y-88098121D01*
X120147874Y-88195898D01*
X120147877Y-88195899D01*
X120151781Y-88197224D01*
X120155820Y-88198027D01*
X120155826Y-88198029D01*
X120454180Y-88257375D01*
X120454183Y-88257375D01*
X120458223Y-88258179D01*
X120462334Y-88258448D01*
X120462338Y-88258449D01*
X120765881Y-88278344D01*
X120770000Y-88278614D01*
X120774119Y-88278344D01*
X121077662Y-88258449D01*
X121077666Y-88258448D01*
X121081777Y-88258179D01*
X121085817Y-88257375D01*
X121085820Y-88257375D01*
X121384174Y-88198029D01*
X121384180Y-88198027D01*
X121388219Y-88197224D01*
X121392123Y-88195899D01*
X121392126Y-88195898D01*
X121680168Y-88098121D01*
X121680169Y-88098121D01*
X121684083Y-88096792D01*
X121687779Y-88094969D01*
X121687787Y-88094966D01*
X121960604Y-87960426D01*
X121964307Y-87958600D01*
X122224096Y-87785015D01*
X122227190Y-87782301D01*
X122227196Y-87782297D01*
X122455916Y-87581714D01*
X122459005Y-87579005D01*
X122465393Y-87571721D01*
X122662297Y-87347196D01*
X122662301Y-87347190D01*
X122665015Y-87344096D01*
X122838600Y-87084307D01*
X122870125Y-87020382D01*
X122974966Y-86807787D01*
X122974969Y-86807779D01*
X122976792Y-86804083D01*
X123077224Y-86508219D01*
X123138179Y-86201777D01*
X123158614Y-85890000D01*
X123138179Y-85578223D01*
X123077224Y-85271781D01*
X122976792Y-84975917D01*
X122974969Y-84972221D01*
X122974966Y-84972213D01*
X122840426Y-84699396D01*
X122838600Y-84695693D01*
X122665015Y-84435904D01*
X122662301Y-84432810D01*
X122662297Y-84432804D01*
X122461714Y-84204084D01*
X122459005Y-84200995D01*
X122386693Y-84137579D01*
X122227196Y-83997703D01*
X122227190Y-83997699D01*
X122224096Y-83994985D01*
X122035274Y-83868819D01*
X121967742Y-83823695D01*
X121967740Y-83823694D01*
X121964307Y-83821400D01*
X121913919Y-83796551D01*
X121687787Y-83685034D01*
X121687779Y-83685031D01*
X121684083Y-83683208D01*
X121487146Y-83616357D01*
X121392126Y-83584102D01*
X121392123Y-83584101D01*
X121388219Y-83582776D01*
X121384180Y-83581973D01*
X121384174Y-83581971D01*
X121085820Y-83522625D01*
X121085817Y-83522625D01*
X121081777Y-83521821D01*
X121077666Y-83521552D01*
X121077662Y-83521551D01*
X120774119Y-83501656D01*
X120770000Y-83501386D01*
X120765881Y-83501656D01*
X120462338Y-83521551D01*
X120462334Y-83521552D01*
X120458223Y-83521821D01*
X120454183Y-83522625D01*
X120454180Y-83522625D01*
X120155826Y-83581971D01*
X120155820Y-83581973D01*
X120151781Y-83582776D01*
X120147877Y-83584101D01*
X120147874Y-83584102D01*
X120052854Y-83616357D01*
X119855917Y-83683208D01*
X119852221Y-83685031D01*
X119852213Y-83685034D01*
X119626081Y-83796551D01*
X119575693Y-83821400D01*
X119572260Y-83823694D01*
X119572258Y-83823695D01*
X119504726Y-83868819D01*
X119315904Y-83994985D01*
X119312810Y-83997699D01*
X119312804Y-83997703D01*
X119153307Y-84137579D01*
X119080995Y-84200995D01*
X119078286Y-84204084D01*
X118877703Y-84432804D01*
X118877699Y-84432810D01*
X118874985Y-84435904D01*
X118701400Y-84695693D01*
X118699574Y-84699396D01*
X118565034Y-84972213D01*
X118565031Y-84972221D01*
X118563208Y-84975917D01*
X118462776Y-85271781D01*
X118401821Y-85578223D01*
X118381386Y-85890000D01*
X89848437Y-85890000D01*
X89501355Y-85487192D01*
X89065395Y-85039666D01*
X89054622Y-85028607D01*
X89054613Y-85028598D01*
X89053281Y-85027231D01*
X88577962Y-84595482D01*
X88077174Y-84193557D01*
X88075607Y-84192449D01*
X88075589Y-84192436D01*
X87762475Y-83971149D01*
X87552782Y-83822953D01*
X87006744Y-83485054D01*
X86697918Y-83319116D01*
X86442792Y-83182032D01*
X86442783Y-83182027D01*
X86441094Y-83181120D01*
X86035076Y-82993943D01*
X85859678Y-82913083D01*
X85859665Y-82913078D01*
X85857946Y-82912285D01*
X85764966Y-82876127D01*
X85261278Y-82680253D01*
X85261263Y-82680248D01*
X85259474Y-82679552D01*
X85163199Y-82648734D01*
X84649726Y-82484370D01*
X84649717Y-82484367D01*
X84647910Y-82483789D01*
X84646069Y-82483321D01*
X84646057Y-82483318D01*
X84392348Y-82418884D01*
X84025535Y-82325726D01*
X83394672Y-82205952D01*
X83392788Y-82205712D01*
X83392786Y-82205712D01*
X83296293Y-82193437D01*
X82757673Y-82124916D01*
X82282788Y-82093791D01*
X82118840Y-82083045D01*
X82118837Y-82083045D01*
X82116916Y-82082919D01*
X81821012Y-82081628D01*
X81476725Y-82080125D01*
X81476710Y-82080125D01*
X81474789Y-82080117D01*
X81472856Y-82080227D01*
X81472847Y-82080227D01*
X81008066Y-82106618D01*
X80833689Y-82116520D01*
X80472418Y-82159280D01*
X80197916Y-82191769D01*
X80197910Y-82191770D01*
X80196008Y-82191995D01*
X80194122Y-82192336D01*
X80194109Y-82192338D01*
X79631957Y-82293993D01*
X79564124Y-82306259D01*
X78940393Y-82458885D01*
X78938572Y-82459451D01*
X78938570Y-82459451D01*
X78784156Y-82507398D01*
X78327144Y-82649303D01*
X78325343Y-82649985D01*
X78325344Y-82649985D01*
X77728451Y-82876127D01*
X77728434Y-82876134D01*
X77726663Y-82876805D01*
X77724925Y-82877588D01*
X77724920Y-82877590D01*
X77646129Y-82913083D01*
X77141191Y-83140542D01*
X76572912Y-83439528D01*
X76571246Y-83440539D01*
X76168330Y-83685034D01*
X76023946Y-83772648D01*
X75496339Y-84138662D01*
X74992062Y-84536202D01*
X74531194Y-84947542D01*
X74529926Y-84948810D01*
X67649198Y-91829539D01*
X67648809Y-91829927D01*
X67423787Y-92052994D01*
X67329870Y-92158219D01*
X67302692Y-92188669D01*
X67300478Y-92191086D01*
X67175865Y-92323554D01*
X67174643Y-92325023D01*
X67174630Y-92325038D01*
X67089281Y-92427660D01*
X67086410Y-92430992D01*
X66996202Y-92532061D01*
X66926488Y-92620493D01*
X66883588Y-92674911D01*
X66881512Y-92677474D01*
X66849706Y-92715717D01*
X66765260Y-92817252D01*
X66703284Y-92901777D01*
X66685181Y-92926466D01*
X66682527Y-92929956D01*
X66598662Y-93036339D01*
X66593030Y-93044458D01*
X66495018Y-93185740D01*
X66493103Y-93188425D01*
X66392699Y-93325360D01*
X66385560Y-93335096D01*
X66384520Y-93336713D01*
X66384511Y-93336726D01*
X66312276Y-93449029D01*
X66309845Y-93452668D01*
X66232649Y-93563945D01*
X66145615Y-93707372D01*
X66138301Y-93719425D01*
X66136553Y-93722221D01*
X66038184Y-93875154D01*
X66037239Y-93876841D01*
X66037235Y-93876848D01*
X65971999Y-93993334D01*
X65969784Y-93997132D01*
X65943368Y-94040665D01*
X65899528Y-94112912D01*
X65814820Y-94273914D01*
X65813316Y-94276684D01*
X65724424Y-94435412D01*
X65723597Y-94437127D01*
X65723590Y-94437140D01*
X65665583Y-94557402D01*
X65663603Y-94561329D01*
X65608190Y-94666652D01*
X65600541Y-94681191D01*
X65599752Y-94682943D01*
X65525838Y-94847024D01*
X65524444Y-94850013D01*
X65501284Y-94898029D01*
X65445453Y-95013780D01*
X65406883Y-95108058D01*
X65394174Y-95139122D01*
X65392445Y-95143146D01*
X65336805Y-95266663D01*
X65336129Y-95268446D01*
X65336127Y-95268452D01*
X65272375Y-95436724D01*
X65271166Y-95439793D01*
X65242143Y-95510736D01*
X65202310Y-95608100D01*
X65158767Y-95736373D01*
X65157301Y-95740459D01*
X65109304Y-95867144D01*
X65093335Y-95918573D01*
X65055380Y-96040808D01*
X65054360Y-96043946D01*
X64995903Y-96216154D01*
X64995398Y-96218007D01*
X64960279Y-96346821D01*
X64959050Y-96351038D01*
X64918885Y-96480393D01*
X64918431Y-96482249D01*
X64918425Y-96482270D01*
X64875659Y-96657042D01*
X64874837Y-96660221D01*
X64827003Y-96835675D01*
X64826614Y-96837546D01*
X64826610Y-96837562D01*
X64799421Y-96968279D01*
X64798450Y-96972568D01*
X64789372Y-97009667D01*
X64766259Y-97104123D01*
X64765917Y-97106015D01*
X64765747Y-97106814D01*
X64732020Y-97169288D01*
X64669872Y-97203611D01*
X64599032Y-97198885D01*
X64541994Y-97156610D01*
X64516865Y-97090209D01*
X64516500Y-97080620D01*
X64516500Y-64890000D01*
X79361386Y-64890000D01*
X79361656Y-64894119D01*
X79373539Y-65075411D01*
X79381821Y-65201777D01*
X79382625Y-65205817D01*
X79382625Y-65205820D01*
X79408898Y-65337900D01*
X79442776Y-65508219D01*
X79543208Y-65804083D01*
X79545031Y-65807779D01*
X79545034Y-65807787D01*
X79571959Y-65862384D01*
X79681400Y-66084307D01*
X79854985Y-66344096D01*
X79857699Y-66347190D01*
X79857703Y-66347196D01*
X79913874Y-66411246D01*
X80060995Y-66579005D01*
X80064084Y-66581714D01*
X80292804Y-66782297D01*
X80292810Y-66782301D01*
X80295904Y-66785015D01*
X80555693Y-66958600D01*
X80559396Y-66960426D01*
X80832213Y-67094966D01*
X80832221Y-67094969D01*
X80835917Y-67096792D01*
X80839831Y-67098121D01*
X80839832Y-67098121D01*
X81127874Y-67195898D01*
X81127877Y-67195899D01*
X81131781Y-67197224D01*
X81135820Y-67198027D01*
X81135826Y-67198029D01*
X81434180Y-67257375D01*
X81434183Y-67257375D01*
X81438223Y-67258179D01*
X81442334Y-67258448D01*
X81442338Y-67258449D01*
X81745881Y-67278344D01*
X81750000Y-67278614D01*
X81754119Y-67278344D01*
X82057662Y-67258449D01*
X82057666Y-67258448D01*
X82061777Y-67258179D01*
X82065817Y-67257375D01*
X82065820Y-67257375D01*
X82364174Y-67198029D01*
X82364180Y-67198027D01*
X82368219Y-67197224D01*
X82372123Y-67195899D01*
X82372126Y-67195898D01*
X82660168Y-67098121D01*
X82660169Y-67098121D01*
X82664083Y-67096792D01*
X82667779Y-67094969D01*
X82667787Y-67094966D01*
X82940604Y-66960426D01*
X82944307Y-66958600D01*
X83204096Y-66785015D01*
X83207190Y-66782301D01*
X83207196Y-66782297D01*
X83435916Y-66581714D01*
X83439005Y-66579005D01*
X83586126Y-66411246D01*
X83642297Y-66347196D01*
X83642301Y-66347190D01*
X83645015Y-66344096D01*
X83818600Y-66084307D01*
X83928041Y-65862384D01*
X83954966Y-65807787D01*
X83954969Y-65807779D01*
X83956792Y-65804083D01*
X84057224Y-65508219D01*
X84091103Y-65337900D01*
X84117375Y-65205820D01*
X84117375Y-65205817D01*
X84118179Y-65201777D01*
X84126462Y-65075411D01*
X84126588Y-65073486D01*
X85538115Y-65073486D01*
X85538207Y-65075396D01*
X85538207Y-65075411D01*
X85550669Y-65334841D01*
X85568924Y-65714879D01*
X85638831Y-66353194D01*
X85747575Y-66986052D01*
X85894752Y-67611090D01*
X86079813Y-68225978D01*
X86080473Y-68227767D01*
X86080476Y-68227776D01*
X86284348Y-68780393D01*
X86302066Y-68828421D01*
X86560682Y-69416172D01*
X86854698Y-69987039D01*
X87183016Y-70538892D01*
X87273791Y-70672213D01*
X87480514Y-70975826D01*
X87544411Y-71069672D01*
X87937536Y-71577399D01*
X87938806Y-71578847D01*
X87938810Y-71578852D01*
X87948587Y-71590000D01*
X88360923Y-72060180D01*
X88812994Y-72516213D01*
X88814435Y-72517499D01*
X88814438Y-72517502D01*
X88962469Y-72649625D01*
X89292061Y-72943798D01*
X89796339Y-73341338D01*
X90323945Y-73707351D01*
X90325575Y-73708340D01*
X90325581Y-73708344D01*
X90871250Y-74039464D01*
X90871263Y-74039471D01*
X90872912Y-74040472D01*
X91441191Y-74339459D01*
X92026663Y-74603195D01*
X92028434Y-74603866D01*
X92028451Y-74603873D01*
X92584186Y-74814421D01*
X92627144Y-74830696D01*
X93240393Y-75021115D01*
X93864123Y-75173741D01*
X93866010Y-75174082D01*
X93866009Y-75174082D01*
X94494109Y-75287661D01*
X94494122Y-75287663D01*
X94496008Y-75288004D01*
X94497910Y-75288229D01*
X94497916Y-75288230D01*
X94772418Y-75320719D01*
X95133689Y-75363479D01*
X95750433Y-75398500D01*
X109665047Y-75398500D01*
X109733168Y-75418502D01*
X109754142Y-75435405D01*
X113454762Y-79136025D01*
X113803554Y-79464135D01*
X113805024Y-79465357D01*
X113805038Y-79465370D01*
X114158401Y-79759259D01*
X114297252Y-79874740D01*
X114815096Y-80254440D01*
X115355154Y-80601817D01*
X115915412Y-80915576D01*
X116493780Y-81194547D01*
X117088100Y-81437690D01*
X117696155Y-81644097D01*
X118315676Y-81812997D01*
X118317548Y-81813386D01*
X118317563Y-81813390D01*
X118942467Y-81943371D01*
X118944352Y-81943763D01*
X119333919Y-82000247D01*
X119426936Y-82013734D01*
X119579840Y-82035904D01*
X119581752Y-82036063D01*
X119581753Y-82036063D01*
X120217846Y-82088919D01*
X120217864Y-82088920D01*
X120219766Y-82089078D01*
X120221686Y-82089120D01*
X120221688Y-82089120D01*
X120376855Y-82092506D01*
X120861746Y-82103086D01*
X120863654Y-82103011D01*
X120863658Y-82103011D01*
X121501461Y-82077952D01*
X121501475Y-82077951D01*
X121503384Y-82077876D01*
X121505298Y-82077683D01*
X121505302Y-82077683D01*
X122140379Y-82013734D01*
X122140381Y-82013734D01*
X122142285Y-82013542D01*
X122776068Y-81910324D01*
X123402367Y-81768606D01*
X124018846Y-81588920D01*
X124020651Y-81588272D01*
X124020657Y-81588270D01*
X124621398Y-81372581D01*
X124621404Y-81372579D01*
X124623205Y-81371932D01*
X124624955Y-81371180D01*
X124624963Y-81371177D01*
X124911014Y-81248279D01*
X125213191Y-81118454D01*
X125214912Y-81117586D01*
X125214926Y-81117580D01*
X125784868Y-80830305D01*
X125786602Y-80829431D01*
X126341299Y-80505942D01*
X126875212Y-80149193D01*
X127386351Y-79760514D01*
X127872808Y-79341355D01*
X128160995Y-79060616D01*
X128331393Y-78894622D01*
X128331402Y-78894613D01*
X128332769Y-78893281D01*
X128764518Y-78417962D01*
X129166443Y-77917174D01*
X129167551Y-77915607D01*
X129167564Y-77915589D01*
X129388851Y-77602475D01*
X129537047Y-77392782D01*
X129874946Y-76846744D01*
X130176538Y-76285453D01*
X130177968Y-76282792D01*
X130177973Y-76282783D01*
X130178880Y-76281094D01*
X130299820Y-76018755D01*
X130446917Y-75699678D01*
X130446922Y-75699665D01*
X130447715Y-75697946D01*
X130497432Y-75570100D01*
X130679747Y-75101278D01*
X130679752Y-75101263D01*
X130680448Y-75099474D01*
X130766302Y-74831265D01*
X130875630Y-74489726D01*
X130875633Y-74489717D01*
X130876211Y-74487910D01*
X130913713Y-74340248D01*
X130989616Y-74041377D01*
X131034274Y-73865535D01*
X131154048Y-73234672D01*
X131235084Y-72597673D01*
X131277081Y-71956916D01*
X131278682Y-71590000D01*
X146081386Y-71590000D01*
X146101821Y-71901777D01*
X146102625Y-71905817D01*
X146102625Y-71905820D01*
X146133602Y-72061550D01*
X146162776Y-72208219D01*
X146263208Y-72504083D01*
X146265031Y-72507779D01*
X146265034Y-72507787D01*
X146310302Y-72599580D01*
X146401400Y-72784307D01*
X146574985Y-73044096D01*
X146577699Y-73047190D01*
X146577703Y-73047196D01*
X146740462Y-73232786D01*
X146780995Y-73279005D01*
X146784084Y-73281714D01*
X147012804Y-73482297D01*
X147012810Y-73482301D01*
X147015904Y-73485015D01*
X147275693Y-73658600D01*
X147279396Y-73660426D01*
X147552213Y-73794966D01*
X147552221Y-73794969D01*
X147555917Y-73796792D01*
X147559831Y-73798121D01*
X147559832Y-73798121D01*
X147847874Y-73895898D01*
X147847877Y-73895899D01*
X147851781Y-73897224D01*
X147855820Y-73898027D01*
X147855826Y-73898029D01*
X148154180Y-73957375D01*
X148154183Y-73957375D01*
X148158223Y-73958179D01*
X148162334Y-73958448D01*
X148162338Y-73958449D01*
X148465881Y-73978344D01*
X148470000Y-73978614D01*
X148474119Y-73978344D01*
X148777662Y-73958449D01*
X148777666Y-73958448D01*
X148781777Y-73958179D01*
X148785817Y-73957375D01*
X148785820Y-73957375D01*
X149084174Y-73898029D01*
X149084180Y-73898027D01*
X149088219Y-73897224D01*
X149092123Y-73895899D01*
X149092126Y-73895898D01*
X149380168Y-73798121D01*
X149380169Y-73798121D01*
X149384083Y-73796792D01*
X149387779Y-73794969D01*
X149387787Y-73794966D01*
X149660604Y-73660426D01*
X149664307Y-73658600D01*
X149924096Y-73485015D01*
X149927190Y-73482301D01*
X149927196Y-73482297D01*
X150155916Y-73281714D01*
X150159005Y-73279005D01*
X150199538Y-73232786D01*
X150362297Y-73047196D01*
X150362301Y-73047190D01*
X150365015Y-73044096D01*
X150538600Y-72784307D01*
X150629698Y-72599580D01*
X150674966Y-72507787D01*
X150674969Y-72507779D01*
X150676792Y-72504083D01*
X150777224Y-72208219D01*
X150806399Y-72061550D01*
X150837375Y-71905820D01*
X150837375Y-71905817D01*
X150838179Y-71901777D01*
X150858614Y-71590000D01*
X150840576Y-71314789D01*
X150838449Y-71282338D01*
X150838448Y-71282334D01*
X150838179Y-71278223D01*
X150777224Y-70971781D01*
X150676792Y-70675917D01*
X150674969Y-70672221D01*
X150674966Y-70672213D01*
X150540426Y-70399396D01*
X150538600Y-70395693D01*
X150365015Y-70135904D01*
X150362301Y-70132810D01*
X150362297Y-70132804D01*
X150161714Y-69904084D01*
X150159005Y-69900995D01*
X150155916Y-69898286D01*
X149927196Y-69697703D01*
X149927190Y-69697699D01*
X149924096Y-69694985D01*
X149664307Y-69521400D01*
X149613919Y-69496551D01*
X149387787Y-69385034D01*
X149387779Y-69385031D01*
X149384083Y-69383208D01*
X149380168Y-69381879D01*
X149092126Y-69284102D01*
X149092123Y-69284101D01*
X149088219Y-69282776D01*
X149084180Y-69281973D01*
X149084174Y-69281971D01*
X148785820Y-69222625D01*
X148785817Y-69222625D01*
X148781777Y-69221821D01*
X148777666Y-69221552D01*
X148777662Y-69221551D01*
X148474119Y-69201656D01*
X148470000Y-69201386D01*
X148465881Y-69201656D01*
X148162338Y-69221551D01*
X148162334Y-69221552D01*
X148158223Y-69221821D01*
X148154183Y-69222625D01*
X148154180Y-69222625D01*
X147855826Y-69281971D01*
X147855820Y-69281973D01*
X147851781Y-69282776D01*
X147847877Y-69284101D01*
X147847874Y-69284102D01*
X147559832Y-69381879D01*
X147555917Y-69383208D01*
X147552221Y-69385031D01*
X147552213Y-69385034D01*
X147326081Y-69496551D01*
X147275693Y-69521400D01*
X147015904Y-69694985D01*
X147012810Y-69697699D01*
X147012804Y-69697703D01*
X146784084Y-69898286D01*
X146780995Y-69900995D01*
X146778286Y-69904084D01*
X146577703Y-70132804D01*
X146577699Y-70132810D01*
X146574985Y-70135904D01*
X146401400Y-70395693D01*
X146399574Y-70399396D01*
X146265034Y-70672213D01*
X146265031Y-70672221D01*
X146263208Y-70675917D01*
X146162776Y-70971781D01*
X146101821Y-71278223D01*
X146101552Y-71282334D01*
X146101551Y-71282338D01*
X146099424Y-71314789D01*
X146081386Y-71590000D01*
X131278682Y-71590000D01*
X131279883Y-71314789D01*
X131278041Y-71282338D01*
X131243829Y-70679832D01*
X131243480Y-70673689D01*
X131168005Y-70036008D01*
X131158843Y-69985339D01*
X131054082Y-69406010D01*
X131053741Y-69404124D01*
X130901115Y-68780393D01*
X130710697Y-68167144D01*
X130499324Y-67609234D01*
X130483873Y-67568451D01*
X130483866Y-67568434D01*
X130483195Y-67566663D01*
X130219458Y-66981191D01*
X129920472Y-66412912D01*
X129866070Y-66323261D01*
X129588345Y-65865582D01*
X129588341Y-65865576D01*
X129587352Y-65863946D01*
X129221338Y-65336339D01*
X128823798Y-64832062D01*
X128412458Y-64371194D01*
X121530461Y-57489198D01*
X121530073Y-57488809D01*
X121308368Y-57265161D01*
X121307006Y-57263787D01*
X121171316Y-57142678D01*
X121168899Y-57140464D01*
X121037847Y-57017183D01*
X121036446Y-57015865D01*
X121034977Y-57014643D01*
X121034962Y-57014630D01*
X120932340Y-56929281D01*
X120929008Y-56926410D01*
X120829385Y-56837493D01*
X120827939Y-56836202D01*
X120739507Y-56766488D01*
X120685089Y-56723588D01*
X120682526Y-56721512D01*
X120544227Y-56606490D01*
X120544226Y-56606489D01*
X120542748Y-56605260D01*
X120433523Y-56525172D01*
X120430033Y-56522519D01*
X120325162Y-56439845D01*
X120325156Y-56439841D01*
X120323661Y-56438662D01*
X120237903Y-56379170D01*
X120174260Y-56335018D01*
X120171575Y-56333103D01*
X120026456Y-56226698D01*
X120026457Y-56226698D01*
X120024904Y-56225560D01*
X120023287Y-56224520D01*
X120023274Y-56224511D01*
X119910971Y-56152276D01*
X119907332Y-56149845D01*
X119796055Y-56072649D01*
X119640575Y-55978301D01*
X119637779Y-55976553D01*
X119560475Y-55926830D01*
X119484846Y-55878184D01*
X119483159Y-55877239D01*
X119483152Y-55877235D01*
X119366666Y-55811999D01*
X119362868Y-55809784D01*
X119248754Y-55740539D01*
X119247088Y-55739528D01*
X119086086Y-55654820D01*
X119083316Y-55653316D01*
X118924588Y-55564424D01*
X118922873Y-55563597D01*
X118922860Y-55563590D01*
X118802598Y-55505583D01*
X118798671Y-55503603D01*
X118680528Y-55441445D01*
X118680517Y-55441440D01*
X118678809Y-55440541D01*
X118613643Y-55411186D01*
X118512976Y-55365838D01*
X118509987Y-55364444D01*
X118422805Y-55322393D01*
X118346220Y-55285453D01*
X118220863Y-55234167D01*
X118216854Y-55232445D01*
X118093337Y-55176805D01*
X118091554Y-55176129D01*
X118091548Y-55176127D01*
X117923276Y-55112375D01*
X117920207Y-55111166D01*
X117833159Y-55075554D01*
X117751900Y-55042310D01*
X117750096Y-55041698D01*
X117750089Y-55041695D01*
X117709253Y-55027833D01*
X117623627Y-54998767D01*
X117619541Y-54997301D01*
X117492856Y-54949304D01*
X117319193Y-54895380D01*
X117316054Y-54894360D01*
X117145662Y-54836519D01*
X117145649Y-54836515D01*
X117143846Y-54835903D01*
X117013173Y-54800277D01*
X117008957Y-54799049D01*
X116881440Y-54759454D01*
X116881435Y-54759453D01*
X116879607Y-54758885D01*
X116877751Y-54758431D01*
X116877730Y-54758425D01*
X116702958Y-54715659D01*
X116699779Y-54714837D01*
X116524325Y-54667003D01*
X116522454Y-54666614D01*
X116522438Y-54666610D01*
X116391721Y-54639421D01*
X116387432Y-54638450D01*
X116257754Y-54606718D01*
X116257745Y-54606716D01*
X116255877Y-54606259D01*
X116253986Y-54605917D01*
X116253981Y-54605916D01*
X116076957Y-54573905D01*
X116073719Y-54573276D01*
X115897533Y-54536629D01*
X115897530Y-54536629D01*
X115895648Y-54536237D01*
X115876275Y-54533428D01*
X115761587Y-54516799D01*
X115757246Y-54516092D01*
X115625891Y-54492339D01*
X115625878Y-54492337D01*
X115623992Y-54491996D01*
X115622089Y-54491771D01*
X115622084Y-54491770D01*
X115566362Y-54485175D01*
X115443375Y-54470618D01*
X115440162Y-54470195D01*
X115260160Y-54444096D01*
X115125181Y-54432880D01*
X115120841Y-54432444D01*
X114986311Y-54416521D01*
X114804757Y-54406212D01*
X114801496Y-54405984D01*
X114748402Y-54401572D01*
X114622153Y-54391081D01*
X114622138Y-54391080D01*
X114620234Y-54390922D01*
X114618314Y-54390880D01*
X114618312Y-54390880D01*
X114590782Y-54390279D01*
X114484787Y-54387966D01*
X114480420Y-54387795D01*
X114369567Y-54381500D01*
X114189802Y-54381500D01*
X114187053Y-54381470D01*
X113978254Y-54376914D01*
X113976346Y-54376989D01*
X113976342Y-54376989D01*
X113864001Y-54381403D01*
X113859054Y-54381500D01*
X95886809Y-54381500D01*
X95885871Y-54381529D01*
X95885848Y-54381529D01*
X95627251Y-54389430D01*
X95408167Y-54396124D01*
X94768728Y-54454880D01*
X94304642Y-54526309D01*
X94135978Y-54552269D01*
X94135972Y-54552270D01*
X94134069Y-54552563D01*
X93771292Y-54631330D01*
X93508436Y-54688401D01*
X93508428Y-54688403D01*
X93506558Y-54688809D01*
X92888534Y-54863110D01*
X92886734Y-54863739D01*
X92886720Y-54863743D01*
X92284108Y-55074185D01*
X92282304Y-55074815D01*
X91690128Y-55323135D01*
X91688411Y-55323982D01*
X91688406Y-55323984D01*
X91453652Y-55439752D01*
X91114217Y-55607143D01*
X91112549Y-55608096D01*
X91112544Y-55608099D01*
X90955651Y-55697771D01*
X90556719Y-55925780D01*
X90555124Y-55926826D01*
X90555117Y-55926830D01*
X90021314Y-56276805D01*
X90021299Y-56276816D01*
X90019712Y-56277856D01*
X89944426Y-56334075D01*
X89506747Y-56660905D01*
X89506736Y-56660914D01*
X89505201Y-56662060D01*
X89015105Y-57076957D01*
X88551251Y-57521000D01*
X88115371Y-57992533D01*
X87709091Y-58489795D01*
X87333925Y-59010933D01*
X86991274Y-59554003D01*
X86682415Y-60116977D01*
X86408502Y-60697757D01*
X86170555Y-61294176D01*
X85969462Y-61904009D01*
X85805974Y-62524980D01*
X85805599Y-62526866D01*
X85805597Y-62526874D01*
X85747012Y-62821400D01*
X85680700Y-63154774D01*
X85680443Y-63156661D01*
X85680441Y-63156674D01*
X85673989Y-63204084D01*
X85594108Y-63791041D01*
X85593966Y-63792947D01*
X85593965Y-63792960D01*
X85561021Y-64236288D01*
X85546521Y-64431408D01*
X85538115Y-65073486D01*
X84126588Y-65073486D01*
X84138344Y-64894119D01*
X84138614Y-64890000D01*
X84118179Y-64578223D01*
X84117375Y-64574180D01*
X84058029Y-64275826D01*
X84058027Y-64275820D01*
X84057224Y-64271781D01*
X83956792Y-63975917D01*
X83954969Y-63972221D01*
X83954966Y-63972213D01*
X83820426Y-63699396D01*
X83818600Y-63695693D01*
X83645015Y-63435904D01*
X83642301Y-63432810D01*
X83642297Y-63432804D01*
X83441714Y-63204084D01*
X83439005Y-63200995D01*
X83384158Y-63152895D01*
X83207196Y-62997703D01*
X83207190Y-62997699D01*
X83204096Y-62994985D01*
X82944307Y-62821400D01*
X82893919Y-62796551D01*
X82667787Y-62685034D01*
X82667779Y-62685031D01*
X82664083Y-62683208D01*
X82660168Y-62681879D01*
X82372126Y-62584102D01*
X82372123Y-62584101D01*
X82368219Y-62582776D01*
X82364180Y-62581973D01*
X82364174Y-62581971D01*
X82065820Y-62522625D01*
X82065817Y-62522625D01*
X82061777Y-62521821D01*
X82057666Y-62521552D01*
X82057662Y-62521551D01*
X81754119Y-62501656D01*
X81750000Y-62501386D01*
X81745881Y-62501656D01*
X81442338Y-62521551D01*
X81442334Y-62521552D01*
X81438223Y-62521821D01*
X81434183Y-62522625D01*
X81434180Y-62522625D01*
X81135826Y-62581971D01*
X81135820Y-62581973D01*
X81131781Y-62582776D01*
X81127877Y-62584101D01*
X81127874Y-62584102D01*
X80839832Y-62681879D01*
X80835917Y-62683208D01*
X80832221Y-62685031D01*
X80832213Y-62685034D01*
X80606081Y-62796551D01*
X80555693Y-62821400D01*
X80295904Y-62994985D01*
X80292810Y-62997699D01*
X80292804Y-62997703D01*
X80115842Y-63152895D01*
X80060995Y-63200995D01*
X80058286Y-63204084D01*
X79857703Y-63432804D01*
X79857699Y-63432810D01*
X79854985Y-63435904D01*
X79681400Y-63695693D01*
X79679574Y-63699396D01*
X79545034Y-63972213D01*
X79545031Y-63972221D01*
X79543208Y-63975917D01*
X79442776Y-64271781D01*
X79441973Y-64275820D01*
X79441971Y-64275826D01*
X79382625Y-64574180D01*
X79381821Y-64578223D01*
X79361386Y-64890000D01*
X64516500Y-64890000D01*
X64516500Y-53826393D01*
X65500803Y-53826393D01*
X65501210Y-53833458D01*
X65516960Y-54106601D01*
X65517785Y-54110806D01*
X65517786Y-54110814D01*
X65528711Y-54166497D01*
X65570996Y-54382024D01*
X65572383Y-54386074D01*
X65572384Y-54386079D01*
X65660522Y-54643509D01*
X65661911Y-54647565D01*
X65696159Y-54715659D01*
X65756945Y-54836519D01*
X65788022Y-54898310D01*
X65790448Y-54901839D01*
X65790451Y-54901845D01*
X65856050Y-54997291D01*
X65946997Y-55129620D01*
X66135894Y-55337215D01*
X66139183Y-55339965D01*
X66347925Y-55514501D01*
X66347930Y-55514505D01*
X66351217Y-55517253D01*
X66406424Y-55551884D01*
X66585341Y-55664119D01*
X66585345Y-55664121D01*
X66588981Y-55666402D01*
X66844788Y-55781903D01*
X66848907Y-55783123D01*
X67109790Y-55860401D01*
X67109795Y-55860402D01*
X67113903Y-55861619D01*
X67118137Y-55862267D01*
X67118142Y-55862268D01*
X67362514Y-55899662D01*
X67391347Y-55904074D01*
X67534292Y-55906319D01*
X67667694Y-55908415D01*
X67667700Y-55908415D01*
X67671985Y-55908482D01*
X67950626Y-55874763D01*
X68222112Y-55803540D01*
X68226072Y-55801900D01*
X68226077Y-55801898D01*
X68378816Y-55738631D01*
X68481420Y-55696131D01*
X68532296Y-55666402D01*
X68720054Y-55556685D01*
X68720055Y-55556685D01*
X68723752Y-55554524D01*
X68944624Y-55381338D01*
X68960996Y-55364444D01*
X69136965Y-55182857D01*
X69139948Y-55179779D01*
X69142481Y-55176331D01*
X69142485Y-55176326D01*
X69303572Y-54957032D01*
X69306110Y-54953577D01*
X69336118Y-54898310D01*
X69437986Y-54710692D01*
X69437987Y-54710690D01*
X69440036Y-54706916D01*
X69511994Y-54516484D01*
X69537729Y-54448380D01*
X69537730Y-54448376D01*
X69539247Y-54444362D01*
X69601907Y-54170773D01*
X69610121Y-54078743D01*
X69626637Y-53893677D01*
X69626637Y-53893675D01*
X69626857Y-53891211D01*
X69627310Y-53848000D01*
X69625837Y-53826393D01*
X166592803Y-53826393D01*
X166593210Y-53833458D01*
X166608960Y-54106601D01*
X166609785Y-54110806D01*
X166609786Y-54110814D01*
X166620711Y-54166497D01*
X166662996Y-54382024D01*
X166664383Y-54386074D01*
X166664384Y-54386079D01*
X166752522Y-54643509D01*
X166753911Y-54647565D01*
X166788159Y-54715659D01*
X166848945Y-54836519D01*
X166880022Y-54898310D01*
X166882448Y-54901839D01*
X166882451Y-54901845D01*
X166948050Y-54997291D01*
X167038997Y-55129620D01*
X167227894Y-55337215D01*
X167231183Y-55339965D01*
X167439925Y-55514501D01*
X167439930Y-55514505D01*
X167443217Y-55517253D01*
X167498424Y-55551884D01*
X167677341Y-55664119D01*
X167677345Y-55664121D01*
X167680981Y-55666402D01*
X167936788Y-55781903D01*
X167940907Y-55783123D01*
X168201790Y-55860401D01*
X168201795Y-55860402D01*
X168205903Y-55861619D01*
X168210137Y-55862267D01*
X168210142Y-55862268D01*
X168454514Y-55899662D01*
X168483347Y-55904074D01*
X168626292Y-55906319D01*
X168759694Y-55908415D01*
X168759700Y-55908415D01*
X168763985Y-55908482D01*
X169042626Y-55874763D01*
X169314112Y-55803540D01*
X169318072Y-55801900D01*
X169318077Y-55801898D01*
X169470816Y-55738631D01*
X169573420Y-55696131D01*
X169624296Y-55666402D01*
X169812054Y-55556685D01*
X169812055Y-55556685D01*
X169815752Y-55554524D01*
X170036624Y-55381338D01*
X170052996Y-55364444D01*
X170228965Y-55182857D01*
X170231948Y-55179779D01*
X170234481Y-55176331D01*
X170234485Y-55176326D01*
X170395572Y-54957032D01*
X170398110Y-54953577D01*
X170428118Y-54898310D01*
X170529986Y-54710692D01*
X170529987Y-54710690D01*
X170532036Y-54706916D01*
X170603994Y-54516484D01*
X170629729Y-54448380D01*
X170629730Y-54448376D01*
X170631247Y-54444362D01*
X170693907Y-54170773D01*
X170702121Y-54078743D01*
X170718637Y-53893677D01*
X170718637Y-53893675D01*
X170718857Y-53891211D01*
X170719310Y-53848000D01*
X170700220Y-53567977D01*
X170694923Y-53542396D01*
X170644172Y-53297332D01*
X170643303Y-53293135D01*
X170549612Y-53028561D01*
X170539401Y-53008776D01*
X170422847Y-52782957D01*
X170422847Y-52782956D01*
X170420882Y-52779150D01*
X170410595Y-52764512D01*
X170261956Y-52553022D01*
X170259493Y-52549517D01*
X170068433Y-52343912D01*
X169851237Y-52166139D01*
X169611923Y-52019487D01*
X169589348Y-52009577D01*
X169358853Y-51908397D01*
X169354921Y-51906671D01*
X169335519Y-51901144D01*
X169089114Y-51830954D01*
X169089115Y-51830954D01*
X169084986Y-51829778D01*
X168879217Y-51800493D01*
X168811365Y-51790836D01*
X168811363Y-51790836D01*
X168807113Y-51790231D01*
X168802824Y-51790209D01*
X168802817Y-51790208D01*
X168530730Y-51788783D01*
X168530723Y-51788783D01*
X168526444Y-51788761D01*
X168522199Y-51789320D01*
X168522197Y-51789320D01*
X168458813Y-51797665D01*
X168248172Y-51825397D01*
X167977446Y-51899459D01*
X167719277Y-52009577D01*
X167573721Y-52096691D01*
X167482123Y-52151511D01*
X167482119Y-52151514D01*
X167478441Y-52153715D01*
X167259395Y-52329204D01*
X167256451Y-52332306D01*
X167256447Y-52332310D01*
X167069142Y-52529688D01*
X167066192Y-52532797D01*
X166902408Y-52760727D01*
X166771073Y-53008776D01*
X166769601Y-53012799D01*
X166769599Y-53012803D01*
X166762354Y-53032602D01*
X166674616Y-53272355D01*
X166673703Y-53276541D01*
X166673703Y-53276542D01*
X166635641Y-53451115D01*
X166614825Y-53546585D01*
X166592803Y-53826393D01*
X69625837Y-53826393D01*
X69608220Y-53567977D01*
X69602923Y-53542396D01*
X69552172Y-53297332D01*
X69551303Y-53293135D01*
X69457612Y-53028561D01*
X69447401Y-53008776D01*
X69330847Y-52782957D01*
X69330847Y-52782956D01*
X69328882Y-52779150D01*
X69318595Y-52764512D01*
X69169956Y-52553022D01*
X69167493Y-52549517D01*
X68976433Y-52343912D01*
X68759237Y-52166139D01*
X68519923Y-52019487D01*
X68497348Y-52009577D01*
X68266853Y-51908397D01*
X68262921Y-51906671D01*
X68243519Y-51901144D01*
X67997114Y-51830954D01*
X67997115Y-51830954D01*
X67992986Y-51829778D01*
X67787217Y-51800493D01*
X67719365Y-51790836D01*
X67719363Y-51790836D01*
X67715113Y-51790231D01*
X67710824Y-51790209D01*
X67710817Y-51790208D01*
X67438730Y-51788783D01*
X67438723Y-51788783D01*
X67434444Y-51788761D01*
X67430199Y-51789320D01*
X67430197Y-51789320D01*
X67366813Y-51797665D01*
X67156172Y-51825397D01*
X66885446Y-51899459D01*
X66627277Y-52009577D01*
X66481721Y-52096691D01*
X66390123Y-52151511D01*
X66390119Y-52151514D01*
X66386441Y-52153715D01*
X66167395Y-52329204D01*
X66164451Y-52332306D01*
X66164447Y-52332310D01*
X65977142Y-52529688D01*
X65974192Y-52532797D01*
X65810408Y-52760727D01*
X65679073Y-53008776D01*
X65677601Y-53012799D01*
X65677599Y-53012803D01*
X65670354Y-53032602D01*
X65582616Y-53272355D01*
X65581703Y-53276541D01*
X65581703Y-53276542D01*
X65543641Y-53451115D01*
X65522825Y-53546585D01*
X65500803Y-53826393D01*
X64516500Y-53826393D01*
X64516500Y-50926500D01*
X64536502Y-50858379D01*
X64590158Y-50811886D01*
X64642500Y-50800500D01*
X171577500Y-50800500D01*
X171645621Y-50820502D01*
G37*
%TD.AperFunction*%
M02*
