%TF.GenerationSoftware,KiCad,Pcbnew,(6.0.7)*%
%TF.CreationDate,2022-08-27T17:55:12+01:00*%
%TF.ProjectId,Buck Racing 2,4275636b-2052-4616-9369-6e6720322e6b,v01*%
%TF.SameCoordinates,Original*%
%TF.FileFunction,Drillmap*%
%TF.FilePolarity,Positive*%
%FSLAX45Y45*%
G04 Gerber Fmt 4.5, Leading zero omitted, Abs format (unit mm)*
G04 Created by KiCad (PCBNEW (6.0.7)) date 2022-08-27 17:55:12*
%MOMM*%
%LPD*%
G01*
G04 APERTURE LIST*
%ADD10C,0.150000*%
%ADD11C,0.100000*%
%ADD12C,0.200000*%
G04 APERTURE END LIST*
D10*
X17020600Y-15240000D02*
G75*
G03*
X17020600Y-15240000I-155000J0D01*
G01*
X6911400Y-15240000D02*
G75*
G03*
X6911400Y-15240000I-155000J0D01*
G01*
X6911400Y-5384800D02*
G75*
G03*
X6911400Y-5384800I-155000J0D01*
G01*
X17020600Y-5384800D02*
G75*
G03*
X17020600Y-5384800I-155000J0D01*
G01*
D11*
X17221200Y-15595600D02*
X17221200Y-5029200D01*
X6400800Y-5029200D02*
X17221200Y-5029200D01*
X6400800Y-15595600D02*
X6400800Y-5029200D01*
X17221200Y-15595600D02*
X6400800Y-15595600D01*
D12*
X6653419Y-15911076D02*
X6653419Y-15711076D01*
X6701038Y-15711076D01*
X6729609Y-15720600D01*
X6748657Y-15739648D01*
X6758181Y-15758695D01*
X6767705Y-15796790D01*
X6767705Y-15825362D01*
X6758181Y-15863457D01*
X6748657Y-15882505D01*
X6729609Y-15901552D01*
X6701038Y-15911076D01*
X6653419Y-15911076D01*
X6853419Y-15911076D02*
X6853419Y-15777743D01*
X6853419Y-15815838D02*
X6862943Y-15796790D01*
X6872467Y-15787267D01*
X6891514Y-15777743D01*
X6910562Y-15777743D01*
X6977228Y-15911076D02*
X6977228Y-15777743D01*
X6977228Y-15711076D02*
X6967705Y-15720600D01*
X6977228Y-15730124D01*
X6986752Y-15720600D01*
X6977228Y-15711076D01*
X6977228Y-15730124D01*
X7101038Y-15911076D02*
X7081990Y-15901552D01*
X7072467Y-15882505D01*
X7072467Y-15711076D01*
X7205800Y-15911076D02*
X7186752Y-15901552D01*
X7177228Y-15882505D01*
X7177228Y-15711076D01*
X7434371Y-15911076D02*
X7434371Y-15711076D01*
X7501038Y-15853933D01*
X7567705Y-15711076D01*
X7567705Y-15911076D01*
X7748657Y-15911076D02*
X7748657Y-15806314D01*
X7739133Y-15787267D01*
X7720086Y-15777743D01*
X7681990Y-15777743D01*
X7662943Y-15787267D01*
X7748657Y-15901552D02*
X7729609Y-15911076D01*
X7681990Y-15911076D01*
X7662943Y-15901552D01*
X7653419Y-15882505D01*
X7653419Y-15863457D01*
X7662943Y-15844409D01*
X7681990Y-15834886D01*
X7729609Y-15834886D01*
X7748657Y-15825362D01*
X7843895Y-15777743D02*
X7843895Y-15977743D01*
X7843895Y-15787267D02*
X7862943Y-15777743D01*
X7901038Y-15777743D01*
X7920086Y-15787267D01*
X7929609Y-15796790D01*
X7939133Y-15815838D01*
X7939133Y-15872981D01*
X7929609Y-15892028D01*
X7920086Y-15901552D01*
X7901038Y-15911076D01*
X7862943Y-15911076D01*
X7843895Y-15901552D01*
X8024848Y-15892028D02*
X8034371Y-15901552D01*
X8024848Y-15911076D01*
X8015324Y-15901552D01*
X8024848Y-15892028D01*
X8024848Y-15911076D01*
X8024848Y-15787267D02*
X8034371Y-15796790D01*
X8024848Y-15806314D01*
X8015324Y-15796790D01*
X8024848Y-15787267D01*
X8024848Y-15806314D01*
M02*
