%TF.GenerationSoftware,KiCad,Pcbnew,(6.0.7)*%
%TF.CreationDate,2022-08-27T17:54:50+01:00*%
%TF.ProjectId,Buck Racing 2,4275636b-2052-4616-9369-6e6720322e6b,v01*%
%TF.SameCoordinates,Original*%
%TF.FileFunction,Legend,Top*%
%TF.FilePolarity,Positive*%
%FSLAX46Y46*%
G04 Gerber Fmt 4.6, Leading zero omitted, Abs format (unit mm)*
G04 Created by KiCad (PCBNEW (6.0.7)) date 2022-08-27 17:54:50*
%MOMM*%
%LPD*%
G01*
G04 APERTURE LIST*
%ADD10C,0.150000*%
%ADD11C,0.300000*%
%ADD12C,0.400000*%
%ADD13C,0.254000*%
%ADD14C,0.120000*%
%ADD15C,0.100000*%
%ADD16C,0.200000*%
%ADD17C,3.000000*%
%ADD18C,3.300000*%
%ADD19C,2.160000*%
%ADD20R,2.160000X2.160000*%
%ADD21C,3.750000*%
%ADD22C,12.816000*%
%ADD23R,2.850000X2.850000*%
%ADD24C,2.850000*%
%ADD25C,1.217000*%
%ADD26R,1.700000X1.700000*%
%ADD27O,1.700000X1.700000*%
G04 APERTURE END LIST*
D10*
X130690904Y-145296000D02*
X130595666Y-145248380D01*
X130452809Y-145248380D01*
X130309952Y-145296000D01*
X130214714Y-145391238D01*
X130167095Y-145486476D01*
X130119476Y-145676952D01*
X130119476Y-145819809D01*
X130167095Y-146010285D01*
X130214714Y-146105523D01*
X130309952Y-146200761D01*
X130452809Y-146248380D01*
X130548047Y-146248380D01*
X130690904Y-146200761D01*
X130738523Y-146153142D01*
X130738523Y-145819809D01*
X130548047Y-145819809D01*
X170180047Y-119324428D02*
X170941952Y-119324428D01*
X170180047Y-142565428D02*
X170941952Y-142565428D01*
X170307047Y-132786428D02*
X171068952Y-132786428D01*
X170688000Y-133167380D02*
X170688000Y-132405476D01*
D11*
X132905571Y-124186142D02*
X134048428Y-124186142D01*
D12*
X162753142Y-82513142D02*
X162848380Y-82156000D01*
X162943619Y-82036952D01*
X163134095Y-81917904D01*
X163419809Y-81917904D01*
X163610285Y-82036952D01*
X163705523Y-82156000D01*
X163800761Y-82394095D01*
X163800761Y-83346476D01*
X161800761Y-83346476D01*
X161800761Y-82513142D01*
X161896000Y-82275047D01*
X161991238Y-82156000D01*
X162181714Y-82036952D01*
X162372190Y-82036952D01*
X162562666Y-82156000D01*
X162657904Y-82275047D01*
X162753142Y-82513142D01*
X162753142Y-83346476D01*
X163800761Y-80846476D02*
X162467428Y-80846476D01*
X162848380Y-80846476D02*
X162657904Y-80727428D01*
X162562666Y-80608380D01*
X162467428Y-80370285D01*
X162467428Y-80132190D01*
X163800761Y-79298857D02*
X162467428Y-79298857D01*
X161800761Y-79298857D02*
X161896000Y-79417904D01*
X161991238Y-79298857D01*
X161896000Y-79179809D01*
X161800761Y-79298857D01*
X161991238Y-79298857D01*
X163705523Y-78227428D02*
X163800761Y-77989333D01*
X163800761Y-77513142D01*
X163705523Y-77275047D01*
X163515047Y-77156000D01*
X163419809Y-77156000D01*
X163229333Y-77275047D01*
X163134095Y-77513142D01*
X163134095Y-77870285D01*
X163038857Y-78108380D01*
X162848380Y-78227428D01*
X162753142Y-78227428D01*
X162562666Y-78108380D01*
X162467428Y-77870285D01*
X162467428Y-77513142D01*
X162562666Y-77275047D01*
X162467428Y-76441714D02*
X162467428Y-75489333D01*
X161800761Y-76084571D02*
X163515047Y-76084571D01*
X163705523Y-75965523D01*
X163800761Y-75727428D01*
X163800761Y-75489333D01*
X163800761Y-74298857D02*
X163705523Y-74536952D01*
X163610285Y-74656000D01*
X163419809Y-74775047D01*
X162848380Y-74775047D01*
X162657904Y-74656000D01*
X162562666Y-74536952D01*
X162467428Y-74298857D01*
X162467428Y-73941714D01*
X162562666Y-73703619D01*
X162657904Y-73584571D01*
X162848380Y-73465523D01*
X163419809Y-73465523D01*
X163610285Y-73584571D01*
X163705523Y-73703619D01*
X163800761Y-73941714D01*
X163800761Y-74298857D01*
X163800761Y-72036952D02*
X163705523Y-72275047D01*
X163515047Y-72394095D01*
X161800761Y-72394095D01*
X163800761Y-67751238D02*
X162848380Y-68584571D01*
X163800761Y-69179809D02*
X161800761Y-69179809D01*
X161800761Y-68227428D01*
X161896000Y-67989333D01*
X161991238Y-67870285D01*
X162181714Y-67751238D01*
X162467428Y-67751238D01*
X162657904Y-67870285D01*
X162753142Y-67989333D01*
X162848380Y-68227428D01*
X162848380Y-69179809D01*
X163800761Y-65608380D02*
X162753142Y-65608380D01*
X162562666Y-65727428D01*
X162467428Y-65965523D01*
X162467428Y-66441714D01*
X162562666Y-66679809D01*
X163705523Y-65608380D02*
X163800761Y-65846476D01*
X163800761Y-66441714D01*
X163705523Y-66679809D01*
X163515047Y-66798857D01*
X163324571Y-66798857D01*
X163134095Y-66679809D01*
X163038857Y-66441714D01*
X163038857Y-65846476D01*
X162943619Y-65608380D01*
X163705523Y-63346476D02*
X163800761Y-63584571D01*
X163800761Y-64060761D01*
X163705523Y-64298857D01*
X163610285Y-64417904D01*
X163419809Y-64536952D01*
X162848380Y-64536952D01*
X162657904Y-64417904D01*
X162562666Y-64298857D01*
X162467428Y-64060761D01*
X162467428Y-63584571D01*
X162562666Y-63346476D01*
X163800761Y-62275047D02*
X162467428Y-62275047D01*
X161800761Y-62275047D02*
X161896000Y-62394095D01*
X161991238Y-62275047D01*
X161896000Y-62156000D01*
X161800761Y-62275047D01*
X161991238Y-62275047D01*
X162467428Y-61084571D02*
X163800761Y-61084571D01*
X162657904Y-61084571D02*
X162562666Y-60965523D01*
X162467428Y-60727428D01*
X162467428Y-60370285D01*
X162562666Y-60132190D01*
X162753142Y-60013142D01*
X163800761Y-60013142D01*
X162467428Y-57751238D02*
X164086476Y-57751238D01*
X164276952Y-57870285D01*
X164372190Y-57989333D01*
X164467428Y-58227428D01*
X164467428Y-58584571D01*
X164372190Y-58822666D01*
X163705523Y-57751238D02*
X163800761Y-57989333D01*
X163800761Y-58465523D01*
X163705523Y-58703619D01*
X163610285Y-58822666D01*
X163419809Y-58941714D01*
X162848380Y-58941714D01*
X162657904Y-58822666D01*
X162562666Y-58703619D01*
X162467428Y-58465523D01*
X162467428Y-57989333D01*
X162562666Y-57751238D01*
X165973142Y-65489333D02*
X166068380Y-65132190D01*
X166163619Y-65013142D01*
X166354095Y-64894095D01*
X166639809Y-64894095D01*
X166830285Y-65013142D01*
X166925523Y-65132190D01*
X167020761Y-65370285D01*
X167020761Y-66322666D01*
X165020761Y-66322666D01*
X165020761Y-65489333D01*
X165116000Y-65251238D01*
X165211238Y-65132190D01*
X165401714Y-65013142D01*
X165592190Y-65013142D01*
X165782666Y-65132190D01*
X165877904Y-65251238D01*
X165973142Y-65489333D01*
X165973142Y-66322666D01*
X167020761Y-62394095D02*
X166068380Y-63227428D01*
X167020761Y-63822666D02*
X165020761Y-63822666D01*
X165020761Y-62870285D01*
X165116000Y-62632190D01*
X165211238Y-62513142D01*
X165401714Y-62394095D01*
X165687428Y-62394095D01*
X165877904Y-62513142D01*
X165973142Y-62632190D01*
X166068380Y-62870285D01*
X166068380Y-63822666D01*
X165020761Y-60846476D02*
X165020761Y-60608380D01*
X165116000Y-60370285D01*
X165211238Y-60251238D01*
X165401714Y-60132190D01*
X165782666Y-60013142D01*
X166258857Y-60013142D01*
X166639809Y-60132190D01*
X166830285Y-60251238D01*
X166925523Y-60370285D01*
X167020761Y-60608380D01*
X167020761Y-60846476D01*
X166925523Y-61084571D01*
X166830285Y-61203619D01*
X166639809Y-61322666D01*
X166258857Y-61441714D01*
X165782666Y-61441714D01*
X165401714Y-61322666D01*
X165211238Y-61203619D01*
X165116000Y-61084571D01*
X165020761Y-60846476D01*
X167020761Y-57632190D02*
X167020761Y-59060761D01*
X167020761Y-58346476D02*
X165020761Y-58346476D01*
X165306476Y-58584571D01*
X165496952Y-58822666D01*
X165592190Y-59060761D01*
X170145523Y-63822666D02*
X170240761Y-63465523D01*
X170240761Y-62870285D01*
X170145523Y-62632190D01*
X170050285Y-62513142D01*
X169859809Y-62394095D01*
X169669333Y-62394095D01*
X169478857Y-62513142D01*
X169383619Y-62632190D01*
X169288380Y-62870285D01*
X169193142Y-63346476D01*
X169097904Y-63584571D01*
X169002666Y-63703619D01*
X168812190Y-63822666D01*
X168621714Y-63822666D01*
X168431238Y-63703619D01*
X168336000Y-63584571D01*
X168240761Y-63346476D01*
X168240761Y-62751238D01*
X168336000Y-62394095D01*
X169193142Y-61322666D02*
X169193142Y-60489333D01*
X170240761Y-60132190D02*
X170240761Y-61322666D01*
X168240761Y-61322666D01*
X168240761Y-60132190D01*
X170050285Y-57632190D02*
X170145523Y-57751238D01*
X170240761Y-58108380D01*
X170240761Y-58346476D01*
X170145523Y-58703619D01*
X169955047Y-58941714D01*
X169764571Y-59060761D01*
X169383619Y-59179809D01*
X169097904Y-59179809D01*
X168716952Y-59060761D01*
X168526476Y-58941714D01*
X168336000Y-58703619D01*
X168240761Y-58346476D01*
X168240761Y-58108380D01*
X168336000Y-57751238D01*
X168431238Y-57632190D01*
D10*
X113307904Y-132278380D02*
X113307904Y-131278380D01*
X113546000Y-131278380D01*
X113688857Y-131326000D01*
X113784095Y-131421238D01*
X113831714Y-131516476D01*
X113879333Y-131706952D01*
X113879333Y-131849809D01*
X113831714Y-132040285D01*
X113784095Y-132135523D01*
X113688857Y-132230761D01*
X113546000Y-132278380D01*
X113307904Y-132278380D01*
X114831714Y-132278380D02*
X114260285Y-132278380D01*
X114546000Y-132278380D02*
X114546000Y-131278380D01*
X114450761Y-131421238D01*
X114355523Y-131516476D01*
X114260285Y-131564095D01*
D13*
X157673523Y-117009333D02*
X158580666Y-117009333D01*
X158762095Y-117069809D01*
X158883047Y-117190761D01*
X158943523Y-117372190D01*
X158943523Y-117493142D01*
X157794476Y-116465047D02*
X157734000Y-116404571D01*
X157673523Y-116283619D01*
X157673523Y-115981238D01*
X157734000Y-115860285D01*
X157794476Y-115799809D01*
X157915428Y-115739333D01*
X158036380Y-115739333D01*
X158217809Y-115799809D01*
X158943523Y-116525523D01*
X158943523Y-115739333D01*
X157673523Y-140123333D02*
X158580666Y-140123333D01*
X158762095Y-140183809D01*
X158883047Y-140304761D01*
X158943523Y-140486190D01*
X158943523Y-140607142D01*
X158943523Y-138853333D02*
X158943523Y-139579047D01*
X158943523Y-139216190D02*
X157673523Y-139216190D01*
X157854952Y-139337142D01*
X157975904Y-139458095D01*
X158036380Y-139579047D01*
X135194523Y-78951666D02*
X135194523Y-79556428D01*
X133924523Y-79556428D01*
X133924523Y-78649285D02*
X133924523Y-77863095D01*
X134408333Y-78286428D01*
X134408333Y-78105000D01*
X134468809Y-77984047D01*
X134529285Y-77923571D01*
X134650238Y-77863095D01*
X134952619Y-77863095D01*
X135073571Y-77923571D01*
X135134047Y-77984047D01*
X135194523Y-78105000D01*
X135194523Y-78467857D01*
X135134047Y-78588809D01*
X135073571Y-78649285D01*
X88688333Y-79314523D02*
X88083571Y-79314523D01*
X88083571Y-78044523D01*
X89051190Y-78165476D02*
X89111666Y-78105000D01*
X89232619Y-78044523D01*
X89535000Y-78044523D01*
X89655952Y-78105000D01*
X89716428Y-78165476D01*
X89776904Y-78286428D01*
X89776904Y-78407380D01*
X89716428Y-78588809D01*
X88990714Y-79314523D01*
X89776904Y-79314523D01*
X89474523Y-124671666D02*
X89474523Y-125276428D01*
X88204523Y-125276428D01*
X89474523Y-123583095D02*
X89474523Y-124308809D01*
X89474523Y-123945952D02*
X88204523Y-123945952D01*
X88385952Y-124066904D01*
X88506904Y-124187857D01*
X88567380Y-124308809D01*
X129993571Y-114591666D02*
X130054047Y-114652142D01*
X130114523Y-114833571D01*
X130114523Y-114954523D01*
X130054047Y-115135952D01*
X129933095Y-115256904D01*
X129812142Y-115317380D01*
X129570238Y-115377857D01*
X129388809Y-115377857D01*
X129146904Y-115317380D01*
X129025952Y-115256904D01*
X128905000Y-115135952D01*
X128844523Y-114954523D01*
X128844523Y-114833571D01*
X128905000Y-114652142D01*
X128965476Y-114591666D01*
X128965476Y-114107857D02*
X128905000Y-114047380D01*
X128844523Y-113926428D01*
X128844523Y-113624047D01*
X128905000Y-113503095D01*
X128965476Y-113442619D01*
X129086428Y-113382142D01*
X129207380Y-113382142D01*
X129388809Y-113442619D01*
X130114523Y-114168333D01*
X130114523Y-113382142D01*
X142282333Y-144471571D02*
X142221857Y-144532047D01*
X142040428Y-144592523D01*
X141919476Y-144592523D01*
X141738047Y-144532047D01*
X141617095Y-144411095D01*
X141556619Y-144290142D01*
X141496142Y-144048238D01*
X141496142Y-143866809D01*
X141556619Y-143624904D01*
X141617095Y-143503952D01*
X141738047Y-143383000D01*
X141919476Y-143322523D01*
X142040428Y-143322523D01*
X142221857Y-143383000D01*
X142282333Y-143443476D01*
X143491857Y-144592523D02*
X142766142Y-144592523D01*
X143129000Y-144592523D02*
X143129000Y-143322523D01*
X143008047Y-143503952D01*
X142887095Y-143624904D01*
X142766142Y-143685380D01*
D10*
X149407571Y-147406857D02*
X149455190Y-147264000D01*
X149502809Y-147216380D01*
X149598047Y-147168761D01*
X149740904Y-147168761D01*
X149836142Y-147216380D01*
X149883761Y-147264000D01*
X149931380Y-147359238D01*
X149931380Y-147740190D01*
X148931380Y-147740190D01*
X148931380Y-147406857D01*
X148979000Y-147311619D01*
X149026619Y-147264000D01*
X149121857Y-147216380D01*
X149217095Y-147216380D01*
X149312333Y-147264000D01*
X149359952Y-147311619D01*
X149407571Y-147406857D01*
X149407571Y-147740190D01*
X149264714Y-146311619D02*
X149931380Y-146311619D01*
X149264714Y-146740190D02*
X149788523Y-146740190D01*
X149883761Y-146692571D01*
X149931380Y-146597333D01*
X149931380Y-146454476D01*
X149883761Y-146359238D01*
X149836142Y-146311619D01*
X149883761Y-145406857D02*
X149931380Y-145502095D01*
X149931380Y-145692571D01*
X149883761Y-145787809D01*
X149836142Y-145835428D01*
X149740904Y-145883047D01*
X149455190Y-145883047D01*
X149359952Y-145835428D01*
X149312333Y-145787809D01*
X149264714Y-145692571D01*
X149264714Y-145502095D01*
X149312333Y-145406857D01*
X149931380Y-144978285D02*
X148931380Y-144978285D01*
X149550428Y-144883047D02*
X149931380Y-144597333D01*
X149264714Y-144597333D02*
X149645666Y-144978285D01*
X149931380Y-143597333D02*
X149455190Y-143930666D01*
X149931380Y-144168761D02*
X148931380Y-144168761D01*
X148931380Y-143787809D01*
X148979000Y-143692571D01*
X149026619Y-143644952D01*
X149121857Y-143597333D01*
X149264714Y-143597333D01*
X149359952Y-143644952D01*
X149407571Y-143692571D01*
X149455190Y-143787809D01*
X149455190Y-144168761D01*
X149883761Y-142787809D02*
X149931380Y-142883047D01*
X149931380Y-143073523D01*
X149883761Y-143168761D01*
X149788523Y-143216380D01*
X149407571Y-143216380D01*
X149312333Y-143168761D01*
X149264714Y-143073523D01*
X149264714Y-142883047D01*
X149312333Y-142787809D01*
X149407571Y-142740190D01*
X149502809Y-142740190D01*
X149598047Y-143216380D01*
X149264714Y-142454476D02*
X149264714Y-142073523D01*
X148931380Y-142311619D02*
X149788523Y-142311619D01*
X149883761Y-142264000D01*
X149931380Y-142168761D01*
X149931380Y-142073523D01*
X149264714Y-141311619D02*
X149931380Y-141311619D01*
X149264714Y-141740190D02*
X149788523Y-141740190D01*
X149883761Y-141692571D01*
X149931380Y-141597333D01*
X149931380Y-141454476D01*
X149883761Y-141359238D01*
X149836142Y-141311619D01*
X149931380Y-140835428D02*
X149264714Y-140835428D01*
X149455190Y-140835428D02*
X149359952Y-140787809D01*
X149312333Y-140740190D01*
X149264714Y-140644952D01*
X149264714Y-140549714D01*
X149264714Y-140216380D02*
X149931380Y-140216380D01*
X149359952Y-140216380D02*
X149312333Y-140168761D01*
X149264714Y-140073523D01*
X149264714Y-139930666D01*
X149312333Y-139835428D01*
X149407571Y-139787809D01*
X149931380Y-139787809D01*
X123230047Y-148264571D02*
X123372904Y-148312190D01*
X123420523Y-148359809D01*
X123468142Y-148455047D01*
X123468142Y-148597904D01*
X123420523Y-148693142D01*
X123372904Y-148740761D01*
X123277666Y-148788380D01*
X122896714Y-148788380D01*
X122896714Y-147788380D01*
X123230047Y-147788380D01*
X123325285Y-147836000D01*
X123372904Y-147883619D01*
X123420523Y-147978857D01*
X123420523Y-148074095D01*
X123372904Y-148169333D01*
X123325285Y-148216952D01*
X123230047Y-148264571D01*
X122896714Y-148264571D01*
X124325285Y-148121714D02*
X124325285Y-148788380D01*
X123896714Y-148121714D02*
X123896714Y-148645523D01*
X123944333Y-148740761D01*
X124039571Y-148788380D01*
X124182428Y-148788380D01*
X124277666Y-148740761D01*
X124325285Y-148693142D01*
X125230047Y-148740761D02*
X125134809Y-148788380D01*
X124944333Y-148788380D01*
X124849095Y-148740761D01*
X124801476Y-148693142D01*
X124753857Y-148597904D01*
X124753857Y-148312190D01*
X124801476Y-148216952D01*
X124849095Y-148169333D01*
X124944333Y-148121714D01*
X125134809Y-148121714D01*
X125230047Y-148169333D01*
X125658619Y-148788380D02*
X125658619Y-147788380D01*
X125753857Y-148407428D02*
X126039571Y-148788380D01*
X126039571Y-148121714D02*
X125658619Y-148502666D01*
X126991952Y-147836000D02*
X126896714Y-147788380D01*
X126753857Y-147788380D01*
X126611000Y-147836000D01*
X126515761Y-147931238D01*
X126468142Y-148026476D01*
X126420523Y-148216952D01*
X126420523Y-148359809D01*
X126468142Y-148550285D01*
X126515761Y-148645523D01*
X126611000Y-148740761D01*
X126753857Y-148788380D01*
X126849095Y-148788380D01*
X126991952Y-148740761D01*
X127039571Y-148693142D01*
X127039571Y-148359809D01*
X126849095Y-148359809D01*
X127896714Y-148788380D02*
X127896714Y-148264571D01*
X127849095Y-148169333D01*
X127753857Y-148121714D01*
X127563380Y-148121714D01*
X127468142Y-148169333D01*
X127896714Y-148740761D02*
X127801476Y-148788380D01*
X127563380Y-148788380D01*
X127468142Y-148740761D01*
X127420523Y-148645523D01*
X127420523Y-148550285D01*
X127468142Y-148455047D01*
X127563380Y-148407428D01*
X127801476Y-148407428D01*
X127896714Y-148359809D01*
X128230047Y-148121714D02*
X128611000Y-148121714D01*
X128372904Y-147788380D02*
X128372904Y-148645523D01*
X128420523Y-148740761D01*
X128515761Y-148788380D01*
X128611000Y-148788380D01*
X129325285Y-148740761D02*
X129230047Y-148788380D01*
X129039571Y-148788380D01*
X128944333Y-148740761D01*
X128896714Y-148645523D01*
X128896714Y-148264571D01*
X128944333Y-148169333D01*
X129039571Y-148121714D01*
X129230047Y-148121714D01*
X129325285Y-148169333D01*
X129372904Y-148264571D01*
X129372904Y-148359809D01*
X128896714Y-148455047D01*
D14*
X115594400Y-148844000D02*
X116762800Y-147472400D01*
X111492600Y-148854200D02*
X116802600Y-148854200D01*
X116802600Y-148854200D02*
X116802600Y-132984200D01*
X116802600Y-132984200D02*
X111492600Y-132984200D01*
X111492600Y-132984200D02*
X111492600Y-148854200D01*
D15*
X150670000Y-124450000D02*
X150670000Y-104150000D01*
X150670000Y-104150000D02*
X169370000Y-104150000D01*
X169370000Y-104150000D02*
X169370000Y-124450000D01*
X169370000Y-124450000D02*
X150670000Y-124450000D01*
X169370000Y-147919600D02*
X150670000Y-147919600D01*
X169370000Y-127619600D02*
X169370000Y-147919600D01*
X150670000Y-127619600D02*
X169370000Y-127619600D01*
X150670000Y-147919600D02*
X150670000Y-127619600D01*
X152620000Y-58240000D02*
X152620000Y-58240000D01*
X152620000Y-58240000D02*
X122620000Y-58240000D01*
X122620000Y-58240000D02*
X122620000Y-58240000D01*
X122620000Y-58240000D02*
X152620000Y-58240000D01*
X122870000Y-58240000D02*
X122870000Y-58240000D01*
X122870000Y-58240000D02*
X116620000Y-58240000D01*
X116620000Y-58240000D02*
X116620000Y-58240000D01*
X116620000Y-58240000D02*
X122870000Y-58240000D01*
X116620000Y-99240000D02*
X116620000Y-99240000D01*
X116620000Y-99240000D02*
X152620000Y-99240000D01*
X152620000Y-99240000D02*
X152620000Y-99240000D01*
X152620000Y-99240000D02*
X116620000Y-99240000D01*
D16*
X153820000Y-70440000D02*
X153820000Y-70440000D01*
X153820000Y-70540000D02*
X153820000Y-70540000D01*
X153820000Y-70440000D02*
X153820000Y-70440000D01*
X153820000Y-70440000D02*
G75*
G03*
X153820000Y-70540000I0J-50000D01*
G01*
X153820000Y-70540000D02*
G75*
G03*
X153820000Y-70440000I0J50000D01*
G01*
X153820000Y-70440000D02*
G75*
G03*
X153820000Y-70540000I0J-50000D01*
G01*
D15*
X68400000Y-60740000D02*
X68400000Y-60740000D01*
X68400000Y-60740000D02*
X68400000Y-90740000D01*
X68400000Y-90740000D02*
X68400000Y-90740000D01*
X68400000Y-90740000D02*
X68400000Y-60740000D01*
X68400000Y-90490000D02*
X68400000Y-90490000D01*
X68400000Y-90490000D02*
X68400000Y-96740000D01*
X68400000Y-96740000D02*
X68400000Y-96740000D01*
X68400000Y-96740000D02*
X68400000Y-90490000D01*
X109400000Y-96740000D02*
X109400000Y-96740000D01*
X109400000Y-96740000D02*
X109400000Y-60740000D01*
X109400000Y-60740000D02*
X109400000Y-60740000D01*
X109400000Y-60740000D02*
X109400000Y-96740000D01*
D16*
X80600000Y-59540000D02*
X80600000Y-59540000D01*
X80700000Y-59540000D02*
X80700000Y-59540000D01*
X80600000Y-59540000D02*
X80600000Y-59540000D01*
X80600000Y-59540000D02*
G75*
G03*
X80700000Y-59540000I50000J0D01*
G01*
X80700000Y-59540000D02*
G75*
G03*
X80600000Y-59540000I-50000J0D01*
G01*
X80600000Y-59540000D02*
G75*
G03*
X80700000Y-59540000I50000J0D01*
G01*
D15*
X70900000Y-144960000D02*
X70900000Y-144960000D01*
X70900000Y-144960000D02*
X100900000Y-144960000D01*
X100900000Y-144960000D02*
X100900000Y-144960000D01*
X100900000Y-144960000D02*
X70900000Y-144960000D01*
X100650000Y-144960000D02*
X100650000Y-144960000D01*
X100650000Y-144960000D02*
X106900000Y-144960000D01*
X106900000Y-144960000D02*
X106900000Y-144960000D01*
X106900000Y-144960000D02*
X100650000Y-144960000D01*
X106900000Y-103960000D02*
X106900000Y-103960000D01*
X106900000Y-103960000D02*
X70900000Y-103960000D01*
X70900000Y-103960000D02*
X70900000Y-103960000D01*
X70900000Y-103960000D02*
X106900000Y-103960000D01*
D16*
X69700000Y-132760000D02*
X69700000Y-132760000D01*
X69700000Y-132660000D02*
X69700000Y-132660000D01*
X69700000Y-132760000D02*
X69700000Y-132760000D01*
X69700000Y-132760000D02*
G75*
G03*
X69700000Y-132660000I0J50000D01*
G01*
X69700000Y-132660000D02*
G75*
G03*
X69700000Y-132760000I0J-50000D01*
G01*
X69700000Y-132760000D02*
G75*
G03*
X69700000Y-132660000I0J50000D01*
G01*
X147040000Y-119380000D02*
G75*
G03*
X147040000Y-119380000I-17500000J0D01*
G01*
D15*
X138176000Y-140142000D02*
X143256000Y-140142000D01*
X143256000Y-140142000D02*
X143256000Y-143322000D01*
X143256000Y-143322000D02*
X138176000Y-143322000D01*
X138176000Y-143322000D02*
X138176000Y-140142000D01*
D14*
X145482000Y-147649000D02*
X148142000Y-147649000D01*
X145482000Y-142509000D02*
X145482000Y-147649000D01*
X145482000Y-141239000D02*
X145482000Y-139909000D01*
X148142000Y-142509000D02*
X148142000Y-147649000D01*
X145482000Y-139909000D02*
X146812000Y-139909000D01*
X145482000Y-142509000D02*
X148142000Y-142509000D01*
X141553000Y-148142000D02*
X141553000Y-145482000D01*
X136413000Y-148142000D02*
X141553000Y-148142000D01*
X135143000Y-148142000D02*
X133813000Y-148142000D01*
X136413000Y-145482000D02*
X141553000Y-145482000D01*
X133813000Y-148142000D02*
X133813000Y-146812000D01*
X136413000Y-148142000D02*
X136413000Y-145482000D01*
%LPC*%
D17*
X114527600Y-146379200D03*
X114527600Y-135459200D03*
D18*
X163130000Y-119400000D03*
X163130000Y-109240000D03*
X152970000Y-119400000D03*
X152970000Y-109240000D03*
X152970000Y-132709600D03*
X152970000Y-142869600D03*
X163130000Y-132709600D03*
X163130000Y-142869600D03*
D19*
X122428000Y-145796000D03*
X124968000Y-145796000D03*
D20*
X127508000Y-145796000D03*
D21*
X148470000Y-71590000D03*
D22*
X120770000Y-71590000D03*
D21*
X120770000Y-85890000D03*
D22*
X148470000Y-85890000D03*
D21*
X81750000Y-64890000D03*
D22*
X81750000Y-92590000D03*
D21*
X96050000Y-92590000D03*
D22*
X96050000Y-64890000D03*
D21*
X75050000Y-131610000D03*
D22*
X102750000Y-131610000D03*
D21*
X102750000Y-117310000D03*
D22*
X75050000Y-117310000D03*
D23*
X129540000Y-114380000D03*
D24*
X129540000Y-124380000D03*
D25*
X139446000Y-141732000D03*
X141986000Y-141732000D03*
D26*
X146812000Y-141239000D03*
D27*
X146812000Y-143779000D03*
X146812000Y-146319000D03*
D26*
X135143000Y-146812000D03*
D27*
X137683000Y-146812000D03*
X140223000Y-146812000D03*
M02*
